<svg xmlns="http://www.w3.org/2000/svg" xmlns:xlink="http://www.w3.org/1999/xlink" width="80" height="80" viewBox="0 0 80 80">
  <defs>
    <clipPath id="clip-path">
      <rect id="Прямоугольник_294" data-name="Прямоугольник 294" width="80" height="80" transform="translate(-0.078)" fill="#1c1c21"/>
    </clipPath>
  </defs>
  <g id="Группа_масок_107" data-name="Группа масок 107" transform="translate(0.078)" clip-path="url(#clip-path)">
    <g id="Сгруппировать_228" data-name="Сгруппировать 228" transform="translate(14.152 34.729)">
      <path id="Контур_298" data-name="Контур 298" d="M383.978,390.388q-.3,1.7-.6,3.4-.617,3.465-1.23,6.933c-.03.171-.091.214-.256.211-.777-.008-1.557-.011-2.334,0a.378.378,0,0,1-.408-.25c-.786-1.618-1.587-3.23-2.384-4.843-.034-.069-.072-.135-.137-.256l-.913,5.329H372.5c.074-.429.146-.848.222-1.267q.7-3.927,1.4-7.855c.083-.467.186-.933.28-1.4h2.688c.054.095.11.189.16.286q.938,1.853,1.873,3.709c.222.438.447.874.7,1.375.071-.394.13-.721.187-1.05q.379-2.158.757-4.319Z" transform="translate(-372.5 -390.388)" fill="#fff"/>
      <path id="Контур_299" data-name="Контур 299" d="M418.856,395.652c-.056.305-.1.614-.17.915a5.27,5.27,0,0,1-3.993,4.014,8.7,8.7,0,0,1-2.394.341c-1.367.008-2.734,0-4.1,0h-.19c.086-.487.165-.953.248-1.418q.792-4.435,1.585-8.867c.016-.083.037-.167.054-.25h4.151c.074.014.147.031.223.041.44.066.89.1,1.321.2a3.9,3.9,0,0,1,3.1,2.954c.071.278.112.562.167.843Zm-6.947,2.642c.366,0,.695.015,1.022,0a2.1,2.1,0,0,0,1.517-.759,3.679,3.679,0,0,0,.8-3.339,1.365,1.365,0,0,0-1.325-1.137c-.288-.032-.581-.014-.87-.031-.161-.01-.211.053-.239.206-.177,1.025-.368,2.049-.552,3.073C412.144,396.957,412.03,397.612,411.909,398.294Z" transform="translate(-367.428 -390.388)" fill="#fff"/>
      <path id="Контур_300" data-name="Контур 300" d="M402.807,390.388c-.142.163-.277.335-.429.49q-1.546,1.582-3.1,3.154a.43.43,0,0,0-.126.489q.9,3.122,1.785,6.249c.01.037.019.073.035.131a1.726,1.726,0,0,1-.185.021c-1.022,0-2.043,0-3.065,0a.214.214,0,0,1-.255-.194c-.3-1.182-.619-2.36-.933-3.538-.019-.073-.042-.145-.055-.191-.318.3-.639.593-.954.9-.169.162-.313.354-.494.5a1.022,1.022,0,0,0-.342.689c-.1.608-.217,1.213-.329,1.823h-3.44c.087-.491.169-.973.255-1.453q.746-4.181,1.493-8.362c.042-.238.093-.474.139-.712h3.4c-.07.47-.134.939-.213,1.408-.123.734-.257,1.466-.4,2.266l3.347-3.674Z" transform="translate(-369.868 -390.388)" fill="#fff"/>
      <path id="Контур_301" data-name="Контур 301" d="M410.108,390.388c-.1.6-.2,1.2-.3,1.8-.05.294-.123.583-.155.878-.021.2-.111.231-.289.23-1.344-.007-2.687,0-4.031,0h-.3l-.211,1.075h4.022l-.455,2.45h-4l-.229,1.227h4.653l-.51,2.861h-8.066c.073-.422.143-.834.216-1.247q.8-4.491,1.6-8.984a2.877,2.877,0,0,1,.085-.289Z" transform="translate(-368.538 -390.388)" fill="#fff"/>
      <path id="Контур_302" data-name="Контур 302" d="M390.33,390.388c.149.99.295,1.979.446,2.968q.459,2.993.922,5.984c.079.518.159,1.034.241,1.569h-3.486l-.123-1.237c-.067-.006-.135-.016-.2-.017-.777,0-1.555.006-2.334,0a.262.262,0,0,0-.288.2q-.185.47-.4.927a.262.262,0,0,1-.178.137c-1.225.008-2.45.006-3.73.006l5.359-10.536Zm-2.211,6.813-.251-2.728-.051,0-1.168,2.731Z" transform="translate(-371.258 -390.388)" fill="#fff"/>
    </g>
  </g>
</svg>
