<svg xmlns="http://www.w3.org/2000/svg" xmlns:xlink="http://www.w3.org/1999/xlink" width="80" height="80" viewBox="0 0 80 80">
  <defs>
    <clipPath id="clip-path">
      <rect id="Прямоугольник_311" data-name="Прямоугольник 311" width="80" height="80" fill="#1c1c21"/>
    </clipPath>
  </defs>
  <g id="Группа_масок_123" data-name="Группа масок 123" clip-path="url(#clip-path)">
    <g id="Сгруппировать_238" data-name="Сгруппировать 238" transform="translate(8.571 31.759)">
      <path id="Контур_335" data-name="Контур 335" d="M100.126,133.1c-.282-.066-.567-.12-.845-.2a2.243,2.243,0,0,1-1.722-2.241,1.057,1.057,0,0,1,.149-.019h1.784a1.848,1.848,0,0,0,2.385.816.534.534,0,0,0,.359-.568.654.654,0,0,0-.375-.433c-.541-.158-1.105-.233-1.651-.374a10.1,10.1,0,0,1-1.583-.486,1.657,1.657,0,0,1-.953-1.67,1.629,1.629,0,0,1,.961-1.505,4.732,4.732,0,0,1,2.608-.415,5.707,5.707,0,0,1,1.528.313,2.176,2.176,0,0,1,1.393,2.069c-.631,0-1.246,0-1.859-.008-.056,0-.137-.106-.161-.178a.855.855,0,0,0-.77-.645,4.645,4.645,0,0,0-.968,0c-.408.048-.616.243-.621.511-.008.362.271.49.543.557.549.134,1.112.206,1.662.335a10.389,10.389,0,0,1,1.445.413c1.28.5,1.181,2.429.322,3.061a3.559,3.559,0,0,1-1.6.6c-.089.014-.177.042-.266.065Z" transform="translate(-97.492 -116.619)" fill="#fff"/>
      <path id="Контур_336" data-name="Контур 336" d="M107.193,133.054c-.312-.08-.631-.141-.936-.242a2.216,2.216,0,0,1-1.666-1.992,12.264,12.264,0,0,1,0-2.225,2.317,2.317,0,0,1,1.885-2.063,5.627,5.627,0,0,1,3.288.057,2.307,2.307,0,0,1,1.662,2.237c.015.585.022,1.171,0,1.757a2.334,2.334,0,0,1-1.655,2.213c-.325.111-.664.174-1,.259Zm-.578-3.357h.007c0,.282-.013.565,0,.846a.827.827,0,0,0,.711.873,4.363,4.363,0,0,0,1.33,0,.806.806,0,0,0,.689-.824,16.424,16.424,0,0,0,.008-1.661.985.985,0,0,0-.93-1.009,3.119,3.119,0,0,0-.875,0,.993.993,0,0,0-.941,1.059C106.606,129.216,106.614,129.457,106.614,129.7Z" transform="translate(-96.494 -116.571)" fill="#fff"/>
      <path id="Контур_337" data-name="Контур 337" d="M140.851,133.054c-.214-.047-.426-.089-.639-.141a2.183,2.183,0,0,1-1.8-2.154,1.729,1.729,0,0,1,.23-.029c.419,0,.84.011,1.259-.007a.44.44,0,0,1,.518.306.938.938,0,0,0,.47.429,2.245,2.245,0,0,0,1.541.071.546.546,0,0,0,.43-.553.454.454,0,0,0-.415-.446c-.685-.151-1.375-.275-2.058-.431a4.706,4.706,0,0,1-.831-.28,1.652,1.652,0,0,1-1.018-1.659,1.523,1.523,0,0,1,1.041-1.47,5.1,5.1,0,0,1,3.864-.007,2.006,2.006,0,0,1,1.2,1.917c-.583,0-1.166.006-1.747-.008-.054,0-.127-.119-.153-.2a.751.751,0,0,0-.653-.56,6.074,6.074,0,0,0-1.059,0,.5.5,0,0,0-.5.44.463.463,0,0,0,.416.51c.579.137,1.168.234,1.749.367a9.007,9.007,0,0,1,1.177.325,1.474,1.474,0,0,1,1,1.389,1.636,1.636,0,0,1-.827,1.7,7.768,7.768,0,0,1-1.241.418l-.2.065Z" transform="translate(-91.655 -116.572)" fill="#fff"/>
      <path id="Контур_338" data-name="Контур 338" d="M114.3,133.054c-.261-.066-.526-.12-.782-.2a2.313,2.313,0,0,1-1.763-2.19,14.64,14.64,0,0,1-.016-1.913,2.267,2.267,0,0,1,1.5-2.069,4.722,4.722,0,0,1,3.474-.083,2.335,2.335,0,0,1,1.606,2.544h-1.9c-.008-.013-.029-.029-.029-.045a1.006,1.006,0,0,0-.587-1.053,1.627,1.627,0,0,0-1.621.133,1.071,1.071,0,0,0-.379.68,12.891,12.891,0,0,0-.008,1.72.847.847,0,0,0,.573.762,1.91,1.91,0,0,0,1.384.038.829.829,0,0,0,.571-.853c0-.251.079-.347.345-.337.543.019,1.088.006,1.626.006a2.345,2.345,0,0,1-1.943,2.733c-.159.04-.317.085-.474.127Z" transform="translate(-95.47 -116.572)" fill="#fff"/>
      <path id="Контур_339" data-name="Контур 339" d="M120.376,117.892c.678,0,1.349-.008,2.017.011.081,0,.189.143.231.242.494,1.176.977,2.357,1.465,3.535.039.094.083.186.146.325.531-1.3,1.049-2.541,1.544-3.793a.443.443,0,0,1,.506-.329c.7.022,1.4.008,2.126.008v6.91h-1.905v-3.787l-.063-.018c-.033.063-.072.123-.1.19-.458,1.122-.921,2.243-1.367,3.371a.356.356,0,0,1-.415.271c-.342-.026-.761.087-1.006-.073s-.288-.581-.415-.89q-.543-1.32-1.082-2.641a.571.571,0,0,0-.168-.238V124.8h-1.515Z" transform="translate(-94.232 -117.776)" fill="#fff"/>
      <path id="Контур_340" data-name="Контур 340" d="M145.46,126.083c.686,0,1.366-.009,2.045.011.075,0,.173.159.216.262.486,1.157.962,2.317,1.442,3.475.042.1.089.207.158.366l.978-2.385c.209-.513.415-1.027.634-1.536.034-.079.131-.185.2-.186.784-.014,1.569-.008,2.365-.008V133h-1.918V129.2l-.063-.016c-.049.107-.1.214-.146.323-.438,1.074-.882,2.145-1.3,3.225a.37.37,0,0,1-.438.283,3.191,3.191,0,0,0-.661,0c-.285.037-.4-.095-.5-.341-.438-1.107-.895-2.208-1.346-3.311a.4.4,0,0,0-.159-.2v3.824h-1.51Z" transform="translate(-90.649 -116.605)" fill="#fff"/>
      <path id="Контур_341" data-name="Контур 341" d="M153.506,117.89V124.8h-1.913v-3.778l-.07-.021c-.035.073-.075.144-.105.218-.455,1.113-.912,2.225-1.355,3.343-.078.2-.169.282-.386.266-.345-.024-.771.1-1.015-.058s-.3-.594-.435-.912c-.363-.879-.721-1.761-1.081-2.641a.555.555,0,0,0-.169-.235V124.8h-1.514v-6.91c.685,0,1.365-.008,2.045.01.071,0,.163.142.2.235.494,1.176.977,2.357,1.465,3.535.039.095.086.187.151.328.361-.883.7-1.72,1.047-2.558.183-.445.358-.893.554-1.331.042-.093.162-.21.249-.211C151.939,117.883,152.7,117.89,153.506,117.89Z" transform="translate(-90.648 -117.775)" fill="#fff"/>
      <path id="Контур_342" data-name="Контур 342" d="M104.082,120.206c-.6,0-1.21.006-1.816-.007-.061,0-.15-.1-.171-.174a.859.859,0,0,0-.826-.658,5.253,5.253,0,0,0-1.03.032.526.526,0,0,0-.5.483.488.488,0,0,0,.424.513c.567.141,1.146.238,1.715.369a12.461,12.461,0,0,1,1.422.382,1.53,1.53,0,0,1,1.042,1.437,1.81,1.81,0,0,1-.754,1.757,3.647,3.647,0,0,1-1.878.555,7.078,7.078,0,0,1-2.5-.182,2.271,2.271,0,0,1-1.709-2.237h1.983a1.1,1.1,0,0,0,1.058.873,5.137,5.137,0,0,0,1.093-.021.609.609,0,0,0,.567-.578c.016-.336-.227-.469-.486-.528-.654-.149-1.321-.238-1.97-.4a4.868,4.868,0,0,1-1.286-.478,1.753,1.753,0,0,1,.016-3.019,4.492,4.492,0,0,1,1.514-.465,5.291,5.291,0,0,1,2.609.213A2.167,2.167,0,0,1,104.082,120.206Z" transform="translate(-97.5 -117.789)" fill="#fff"/>
      <path id="Контур_343" data-name="Контур 343" d="M112.1,124.822c.177-.441.336-.835.5-1.23.735-1.81,1.474-3.619,2.2-5.434a.367.367,0,0,1,.417-.273c.366.018.735-.008,1.1.014a.407.407,0,0,1,.3.184q1.347,3.276,2.671,6.562c.018.046.03.095.056.177-.687,0-1.345.007-2-.009a.311.311,0,0,1-.222-.2c-.117-.637-.493-.807-1.107-.737a12.318,12.318,0,0,1-1.6.009.268.268,0,0,0-.3.2c-.3.736-.3.734-1.089.734Zm3.406-4.354-.865,2.224H116.4Z" transform="translate(-95.414 -117.776)" fill="#fff"/>
      <path id="Контур_344" data-name="Контур 344" d="M144.424,124.822c-.687,0-1.345,0-2-.006-.064,0-.13-.073-.19-.12-.022-.017-.023-.057-.034-.086-.3-.72-.3-.72-1.071-.72-.535,0-1.071.006-1.606,0a.286.286,0,0,0-.325.208c-.288.73-.295.727-1.091.727h-.886a2.55,2.55,0,0,1,.069-.246q1.3-3.211,2.6-6.422c.077-.19.165-.283.386-.27.366.021.735.017,1.1,0a.328.328,0,0,1,.363.255q1.3,3.213,2.607,6.419A2.614,2.614,0,0,1,144.424,124.822Zm-3.831-4.352-.866,2.223h1.761Z" transform="translate(-91.826 -117.776)" fill="#fff"/>
      <path id="Контур_345" data-name="Контур 345" d="M128.81,132.964c-.618,0-1.226.009-1.833-.009a.377.377,0,0,1-.25-.207c-.291-.661-.287-.663-1.018-.663-.483,0-.967.01-1.449,0a.34.34,0,0,0-.392.256c-.235.631-.245.629-.909.627q-.425,0-.85,0a.426.426,0,0,1-.086-.024c.027-.087.048-.175.082-.258q1.217-2.991,2.431-5.985c.078-.193.163-.281.383-.269.357.021.714-.006,1.071.014a.374.374,0,0,1,.274.17q1.284,3.117,2.545,6.243A.5.5,0,0,1,128.81,132.964Zm-4.419-2.007h1.669l-.846-2.1Z" transform="translate(-93.997 -116.556)" fill="#fff"/>
      <path id="Контур_346" data-name="Контур 346" d="M134.254,117.906h2c.014.027.04.054.04.081,0,1.631.029,3.264-.023,4.894a1.839,1.839,0,0,1-1.762,1.937,7.069,7.069,0,0,1-2.566-.07,1.946,1.946,0,0,1-1.59-2.353h2.019c.032.193.053.4.1.6a.862.862,0,0,0,.983.645c.442-.017.659-.213.739-.7a4.315,4.315,0,0,0,.053-.687c.006-1.328,0-2.657,0-3.985Z" transform="translate(-92.808 -117.772)" fill="#fff"/>
      <path id="Контур_347" data-name="Контур 347" d="M105.473,117.9h2.05v5.421h3.414V124.8h-5.464Z" transform="translate(-96.361 -117.773)" fill="#fff"/>
      <path id="Контур_348" data-name="Контур 348" d="M131.172,126.453v5.074h3.2v1.408h-5.158v-6.482Z" transform="translate(-92.969 -116.551)" fill="#fff"/>
      <path id="Контур_349" data-name="Контур 349" d="M121.02,132.943H119.1v-6.494h1.922Z" transform="translate(-94.415 -116.552)" fill="#fff"/>
      <path id="Контур_350" data-name="Контур 350" d="M137.124,126.45v6.491h-1.937V126.45Z" transform="translate(-92.116 -116.552)" fill="#fff"/>
    </g>
  </g>
</svg>
