<svg xmlns="http://www.w3.org/2000/svg" xmlns:xlink="http://www.w3.org/1999/xlink" width="80" height="80" viewBox="0 0 80 80">
  <defs>
    <clipPath id="clip-path">
      <rect id="Прямоугольник_296" data-name="Прямоугольник 296" width="80" height="80" fill="#1c1c21"/>
    </clipPath>
  </defs>
  <g id="Группа_масок_109" data-name="Группа масок 109" clip-path="url(#clip-path)">
    <g id="Grupo_19" data-name="Grupo 19" transform="translate(11.429 32.917)">
      <path id="Exclusión_6" data-name="Exclusión 6" d="M137.359,42.965a2.413,2.413,0,0,1-1.144-.266,2.908,2.908,0,0,1-.971-.8l-.219.862h-3.258V28.8h3.494v3.337a2.541,2.541,0,0,1,.957-.752,2.654,2.654,0,0,1,1.159-.251,3.339,3.339,0,0,1,1.238.219,1.856,1.856,0,0,1,1.128,1.409c.031.266.047.825.047,1.662V39.58a7.806,7.806,0,0,1-.171,1.865,1.964,1.964,0,0,1-.784,1.065A2.358,2.358,0,0,1,137.359,42.965Zm-1.63-9.808a.4.4,0,0,0-.423.235,4.341,4.341,0,0,0-.094,1.191V39.49a4.339,4.339,0,0,0,.11,1.19.451.451,0,0,0,.438.266c.242,0,.377-.082.438-.266a4.952,4.952,0,0,0,.11-1.285V34.6a3.508,3.508,0,0,0-.126-1.159.445.445,0,0,0-.453-.285Zm-31.7,9.808a5.478,5.478,0,0,1-2.271-.407,2.439,2.439,0,0,1-1.3-1.112,4.931,4.931,0,0,1-.361-2.131v-.549h3.087v.721a3.729,3.729,0,0,0,.125,1.19.449.449,0,0,0,.455.282.611.611,0,0,0,.517-.187,1.451,1.451,0,0,0,.142-.784,1.72,1.72,0,0,0-.189-1.034,21.087,21.087,0,0,0-2.021-1.222,4.449,4.449,0,0,1-1.864-1.567,3.976,3.976,0,0,1-.345-1.677,4.629,4.629,0,0,1,.36-2.053,2.269,2.269,0,0,1,1.223-1,5.425,5.425,0,0,1,2.021-.36,5.353,5.353,0,0,1,1.927.281,3.232,3.232,0,0,1,1.223.768,2,2,0,0,1,.517.875,6.155,6.155,0,0,1,.095,1.271v.673h-3.087V34.33a3.25,3.25,0,0,0-.094-1.018c-.062-.137-.21-.2-.455-.2a.517.517,0,0,0-.439.2.965.965,0,0,0-.141.579,3.021,3.021,0,0,0,.079.784,1.243,1.243,0,0,0,.438.533,8.21,8.21,0,0,0,1.5.862,5.26,5.26,0,0,1,1.99,1.394,3.282,3.282,0,0,1,.47,1.911,4.991,4.991,0,0,1-.344,2.115,2.329,2.329,0,0,1-1.207,1.095A5.055,5.055,0,0,1,104.033,42.965Zm22.609-.015a5.736,5.736,0,0,1-1.943-.314,2.952,2.952,0,0,1-1.314-.862,3.106,3.106,0,0,1-.657-1.222,7.458,7.458,0,0,1-.187-1.943V35.288a5.46,5.46,0,0,1,.408-2.365,2.815,2.815,0,0,1,1.331-1.331,4.743,4.743,0,0,1,2.114-.455,4.636,4.636,0,0,1,2.43.549,2.973,2.973,0,0,1,1.347,1.473,7.085,7.085,0,0,1,.376,2.584h-.016v1.489h-4.512v2.475a2.6,2.6,0,0,0,.126,1,.471.471,0,0,0,.438.218.518.518,0,0,0,.534-.3,3.68,3.68,0,0,0,.125-1.144V37.969h3.306v.846a7.219,7.219,0,0,1-.126,1.63,3.553,3.553,0,0,1-.626,1.206,2.929,2.929,0,0,1-1.254.971,4.693,4.693,0,0,1-1.9.329Zm-.063-9.809c-.249,0-.406.077-.454.219a4.3,4.3,0,0,0-.095,1.191v.832h1.034v-.832a4.181,4.181,0,0,0-.094-1.144.378.378,0,0,0-.392-.266Zm18.347,9.777a6.56,6.56,0,0,1-1.959-.25,2.648,2.648,0,0,1-1.254-.768,3.231,3.231,0,0,1-.626-1.238,9.233,9.233,0,0,1-.187-2.178V35.555a7.391,7.391,0,0,1,.344-2.491,2.866,2.866,0,0,1,1.238-1.441,4.532,4.532,0,0,1,2.288-.534,5.245,5.245,0,0,1,2.021.361,3.139,3.139,0,0,1,1.3.909,3.381,3.381,0,0,1,.627,1.159,6.576,6.576,0,0,1,.171,1.818l-.016,2.76a11.118,11.118,0,0,1-.155,2.255,3.032,3.032,0,0,1-.657,1.347,2.9,2.9,0,0,1-1.3.925,5.474,5.474,0,0,1-1.834.3Zm-.016-9.761c-.229,0-.363.07-.423.219a3.721,3.721,0,0,0-.11,1.112v5.139a3.55,3.55,0,0,0,.11,1.051.387.387,0,0,0,.407.25.405.405,0,0,0,.408-.219,2.815,2.815,0,0,0,.11-.957V34.49a3.911,3.911,0,0,0-.094-1.112.4.4,0,0,0-.408-.221Zm-32.338,9.761a6.475,6.475,0,0,1-1.958-.25,2.643,2.643,0,0,1-1.254-.768,3.217,3.217,0,0,1-.627-1.238,9.293,9.293,0,0,1-.187-2.178V35.555a7.392,7.392,0,0,1,.344-2.491,2.877,2.877,0,0,1,1.238-1.441,4.532,4.532,0,0,1,2.288-.534,5.247,5.247,0,0,1,2.022.361,3.135,3.135,0,0,1,1.3.909,3.382,3.382,0,0,1,.627,1.159,6.577,6.577,0,0,1,.173,1.818l-.016,2.76a11.038,11.038,0,0,1-.157,2.255,3,3,0,0,1-.657,1.347,2.892,2.892,0,0,1-1.3.925A5.474,5.474,0,0,1,112.573,42.919Zm-.031-9.761c-.229,0-.363.07-.424.219a3.721,3.721,0,0,0-.109,1.112v5.139a3.512,3.512,0,0,0,.109,1.051.388.388,0,0,0,.408.25.406.406,0,0,0,.408-.219,2.844,2.844,0,0,0,.11-.957V34.49a3.912,3.912,0,0,0-.095-1.112.4.4,0,0,0-.407-.221Zm47.88,9.746a1.821,1.821,0,0,1-1.8-1.8,1.689,1.689,0,0,1,.282-.941,1.643,1.643,0,0,1,.689-.626,1.757,1.757,0,0,1,2.083.329,1.767,1.767,0,0,1,.518,1.254,1.714,1.714,0,0,1-.518,1.253,1.673,1.673,0,0,1-1.253.534Zm.032-3.229a1.424,1.424,0,0,0-1.065.438,1.4,1.4,0,0,0-.408,1,1.376,1.376,0,0,0,.423,1.018,1.428,1.428,0,0,0,1.018.423,1.325,1.325,0,0,0,.973-.423,1.429,1.429,0,0,0,.423-1.018,1.353,1.353,0,0,0-.2-.752,1.292,1.292,0,0,0-.534-.517,1.222,1.222,0,0,0-.626-.173Zm-8.085,3.088h-2.914l1.52-5.97-1.52-5.469h2.914c.5,2.409.728,3.713.768,3.981.36-2.049.6-3.313.768-3.981h3.086l-1.378,5.469,1.677,5.969h-3.384c-.327-1.425-.585-2.738-.768-3.9-.255,1.474-.505,2.75-.768,3.9Zm-31.054,0h-3.573V28.8h3.573V42.763Zm38.7-.721h-.376V40.147h.893a.645.645,0,0,1,.486.157.525.525,0,0,1,.141.376.518.518,0,0,1-.125.36.619.619,0,0,1-.376.189.434.434,0,0,1,.187.125c.014.021.033.053.059.1s.082.135.144.232l.234.36h-.47l-.157-.3a1.436,1.436,0,0,0-.25-.377.419.419,0,0,0-.282-.109h-.109v.783ZM160,40.491v.517h.314a.585.585,0,0,0,.313-.062.242.242,0,0,0,.109-.2.219.219,0,0,0-.094-.187.632.632,0,0,0-.281-.063Z" transform="translate(-100 -28.802)" fill="#fff"/>
    </g>
  </g>
</svg>
