<svg xmlns="http://www.w3.org/2000/svg" xmlns:xlink="http://www.w3.org/1999/xlink" width="80" height="80" viewBox="0 0 80 80">
  <defs>
    <clipPath id="clip-path">
      <rect id="Прямоугольник_285" data-name="Прямоугольник 285" width="80" height="80" fill="#1c1c21"/>
    </clipPath>
  </defs>
  <g id="Группа_масок_98" data-name="Группа масок 98" clip-path="url(#clip-path)">
    <g id="Grupo_197" data-name="Grupo 197" transform="translate(20 20.92)">
      <path id="Trazado_27" data-name="Trazado 27" d="M18.682,307.419c.695.5,1.359.15,1.989-.149,2.168-1.035,5.119-2.051,5.242-2.11s.123.1.123.1l.015.213s-.01,2.928-.056,3.464.046,2.254.071,2.581a2.444,2.444,0,0,0,.387,1.194.9.9,0,0,0,1.224.319l.023-.015c.344-.174.295-.653.265-.986s-.01-1.531-.025-1.787.128-5.512.12-5.738.071-.17.071-.17,1.033-.317,1.625-.449,2.151-.313,2.826-.446.719-.458.719-.656a.779.779,0,0,0-.509-.864,3.027,3.027,0,0,0-1.592-.214c-.581.04-2.786.562-2.952.592s-.113-.12-.113-.12a1.8,1.8,0,0,1-.009-.314,102.536,102.536,0,0,1,.147-11.7c.064-.526-.565-.915-.813-1-.854-.208-1.017.193-1.086.334a4.4,4.4,0,0,0-.27.888c0,.011,0,.035,0,.058a1.428,1.428,0,0,0-.094.258,64.659,64.659,0,0,1-3.7,7.112c-1.929,3.192-4.439,6.838-4.439,6.838s-.162.325-.254.529a1.326,1.326,0,0,0-.026,1C17.785,306.721,17.988,306.922,18.682,307.419Zm1.064-2.184s1.049-2.143,6.337-10.4c.026,3.517.081,7.846.064,7.993a.3.3,0,0,1-.24.271s-2.7,1.024-3.8,1.479-2.018.686-2.247.779-.115-.118-.115-.118Z" transform="translate(-17.5 -288.191)" fill="#fff"/>
      <path id="Trazado_28" data-name="Trazado 28" d="M37.565,302.7c-.3.361-1.495,1.825-2.113,2.547-.568.662-.289.312-1.136,1.278-1.155,1.321-1.752,1.961-2.491,2.928-.4.519-.673.883-.373,1.163.494.455,2.126-1.131,2.787-1.779s1.3-1.243.975-.931c-.294.278,3.515-3.259,5.106-5.009a1.851,1.851,0,0,0-.334-3.049c-.421-.266-1.872-1.21-2.983-1.9a1.743,1.743,0,0,1-.939-2.046,18.257,18.257,0,0,1,2.645-3.315c1.1-1.181,1.68-2.112,1.57-2.9-.1-.71-.811-.934-1.117-1.064a6.56,6.56,0,0,0-1.679-.307,23.146,23.146,0,0,0-4.691.4,1.109,1.109,0,0,0-.871,1.305l.011.054c.1.606,1.057.609,1.8.459a35.344,35.344,0,0,1,3.835-.4c.343.031.238.373.117.6a36.147,36.147,0,0,0-2.9,3.587c-.862,1.441-1.128,2.558-.6,3.746s3.4,2.657,3.8,2.878a.694.694,0,0,1,.246.952c-.014.023-.029.045-.045.066C38.178,301.956,37.837,302.375,37.565,302.7Z" transform="translate(-15.525 -288.305)" fill="#fff"/>
      <path id="Trazado_29" data-name="Trazado 29" d="M22.939,323.682c-.154.138-.275.35-.142.506a3.444,3.444,0,0,0,.565.473s.134.253.851-.334c.517-.422,7.858-6.766,8.407-7.184s2.947-2.327,3.586-2.8c6.84-5.051,11.633-9.05,20.545-13.656a6.082,6.082,0,0,0-3.106.152,50.191,50.191,0,0,0-4.687,2.52c-5.387,3.186-7.631,5.045-14.155,10.162C31.946,315.766,30.462,316.97,22.939,323.682Z" transform="translate(-16.751 -286.555)" fill="#fff"/>
    </g>
  </g>
</svg>
