<svg xmlns="http://www.w3.org/2000/svg" xmlns:xlink="http://www.w3.org/1999/xlink" width="80" height="80" viewBox="0 0 80 80">
  <defs>
    <clipPath id="clip-path">
      <rect id="Прямоугольник_302" data-name="Прямоугольник 302" width="80" height="80" transform="translate(-0.078)" fill="#1c1c21"/>
    </clipPath>
  </defs>
  <g id="Группа_масок_115" data-name="Группа масок 115" transform="translate(0.078)" clip-path="url(#clip-path)">
    <g id="Grupo_200" data-name="Grupo 200" transform="translate(5.58 37.035)">
      <path id="Trazado_40" data-name="Trazado 40" d="M277.656,308.335a2.426,2.426,0,0,1-1.056-.23,2.613,2.613,0,0,1-.84-.626,2.931,2.931,0,0,1-.558-.937,3.283,3.283,0,0,1-.2-1.154v-.016a3.271,3.271,0,0,1,.2-1.151,2.956,2.956,0,0,1,.558-.942,2.666,2.666,0,0,1,.85-.639,2.514,2.514,0,0,1,1.087-.233,3.033,3.033,0,0,1,.65.066,2.453,2.453,0,0,1,.541.184,2.591,2.591,0,0,1,.454.282,3.8,3.8,0,0,1,.394.36l-.589.745a2.928,2.928,0,0,0-.662-.515,1.6,1.6,0,0,0-.8-.2,1.5,1.5,0,0,0-.688.16,1.727,1.727,0,0,0-.549.433,2,2,0,0,0-.358.643,2.416,2.416,0,0,0-.127.786v.016a2.441,2.441,0,0,0,.127.79,2.05,2.05,0,0,0,.358.651,1.7,1.7,0,0,0,.547.438,1.513,1.513,0,0,0,.688.16,1.587,1.587,0,0,0,.818-.2,3.311,3.311,0,0,0,.678-.544l.587.655a3.5,3.5,0,0,1-.421.423,2.767,2.767,0,0,1-.473.319,2.222,2.222,0,0,1-.553.2A2.954,2.954,0,0,1,277.656,308.335Z" transform="translate(-275 -302.406)" fill="#fff"/>
      <path id="Trazado_41" data-name="Trazado 41" d="M283.959,308.335a2.574,2.574,0,0,1-1.1-.233,2.63,2.63,0,0,1-.856-.634,2.928,2.928,0,0,1-.558-.938,3.218,3.218,0,0,1-.2-1.142v-.016a3.224,3.224,0,0,1,.2-1.143,2.933,2.933,0,0,1,.566-.942,2.719,2.719,0,0,1,.865-.642,2.524,2.524,0,0,1,1.1-.239,2.576,2.576,0,0,1,1.1.233,2.617,2.617,0,0,1,.856.635,2.965,2.965,0,0,1,.558.937,3.219,3.219,0,0,1,.2,1.143v.016a3.217,3.217,0,0,1-.2,1.142,2.937,2.937,0,0,1-.567.942,2.715,2.715,0,0,1-.864.642A2.532,2.532,0,0,1,283.959,308.335Zm.015-.925a1.583,1.583,0,0,0,.707-.16,1.684,1.684,0,0,0,.552-.433,2.049,2.049,0,0,0,.359-.643,2.36,2.36,0,0,0,.13-.786v-.016a2.38,2.38,0,0,0-.13-.79,1.988,1.988,0,0,0-.363-.647,1.752,1.752,0,0,0-.559-.438,1.549,1.549,0,0,0-.711-.165,1.575,1.575,0,0,0-.707.16,1.7,1.7,0,0,0-.552.433,2.071,2.071,0,0,0-.359.643,2.329,2.329,0,0,0-.129.786v.016a2.377,2.377,0,0,0,.129.79,2.008,2.008,0,0,0,.363.647,1.751,1.751,0,0,0,.559.438,1.55,1.55,0,0,0,.711.165Z" transform="translate(-274.108 -302.406)" fill="#fff"/>
      <path id="Trazado_42" data-name="Trazado 42" d="M288.592,302.493h.847l2.785,3.963v-3.963h.907v5.731h-.765l-2.866-4.077v4.077h-.909Z" transform="translate(-273.058 -302.393)" fill="#fff"/>
      <path id="Trazado_43" data-name="Trazado 43" d="M297.233,308.317a3.021,3.021,0,0,1-1.153-.225,3.126,3.126,0,0,1-1.019-.693l.551-.72a3.2,3.2,0,0,0,.766.552,1.934,1.934,0,0,0,.879.192,1.052,1.052,0,0,0,.673-.2.639.639,0,0,0,.249-.525v-.016a.728.728,0,0,0-.049-.274.581.581,0,0,0-.178-.225,1.416,1.416,0,0,0-.358-.2,4.907,4.907,0,0,0-.593-.178,5.687,5.687,0,0,1-.743-.241,2.013,2.013,0,0,1-.544-.328,1.277,1.277,0,0,1-.336-.471,1.75,1.75,0,0,1-.115-.672v-.016a1.692,1.692,0,0,1,.133-.675,1.581,1.581,0,0,1,.366-.525,1.68,1.68,0,0,1,.559-.339,2.028,2.028,0,0,1,.714-.122,2.731,2.731,0,0,1,1.03.184,3,3,0,0,1,.859.537l-.49.761a3.121,3.121,0,0,0-.707-.438,1.751,1.751,0,0,0-.706-.152.917.917,0,0,0-.626.2.618.618,0,0,0-.223.482v.017a.764.764,0,0,0,.051.29.556.556,0,0,0,.191.23,1.547,1.547,0,0,0,.381.192q.242.089.615.189a5.492,5.492,0,0,1,.728.254,1.8,1.8,0,0,1,.526.339,1.335,1.335,0,0,1,.317.467,1.63,1.63,0,0,1,.109.618v.016a1.806,1.806,0,0,1-.137.72,1.512,1.512,0,0,1-.379.541,1.62,1.62,0,0,1-.585.336A2.355,2.355,0,0,1,297.233,308.317Z" transform="translate(-272.134 -302.403)" fill="#fff"/>
      <path id="Trazado_44" data-name="Trazado 44" d="M303.581,308.335a2.574,2.574,0,0,1-1.1-.233,2.63,2.63,0,0,1-.856-.634,2.949,2.949,0,0,1-.558-.938,3.219,3.219,0,0,1-.2-1.142v-.016a3.225,3.225,0,0,1,.2-1.143,2.934,2.934,0,0,1,.566-.942,2.719,2.719,0,0,1,.865-.642,2.524,2.524,0,0,1,1.1-.239,2.576,2.576,0,0,1,1.1.233,2.618,2.618,0,0,1,.856.635,2.966,2.966,0,0,1,.558.937,3.22,3.22,0,0,1,.2,1.143v.016a3.218,3.218,0,0,1-.2,1.142,2.936,2.936,0,0,1-.567.942,2.706,2.706,0,0,1-.865.642A2.523,2.523,0,0,1,303.581,308.335Zm.015-.925a1.575,1.575,0,0,0,.707-.16,1.684,1.684,0,0,0,.552-.433,2.026,2.026,0,0,0,.359-.643,2.333,2.333,0,0,0,.13-.786v-.016a2.381,2.381,0,0,0-.13-.79,1.985,1.985,0,0,0-.362-.647,1.756,1.756,0,0,0-.56-.438,1.549,1.549,0,0,0-.711-.165,1.575,1.575,0,0,0-.707.16,1.684,1.684,0,0,0-.552.433,2.05,2.05,0,0,0-.359.643,2.355,2.355,0,0,0-.13.786v.016a2.38,2.38,0,0,0,.13.79,1.988,1.988,0,0,0,.363.647,1.751,1.751,0,0,0,.559.438,1.55,1.55,0,0,0,.711.165Z" transform="translate(-271.305 -302.406)" fill="#fff"/>
      <path id="Trazado_45" data-name="Trazado 45" d="M308.215,302.493h2.321a2.316,2.316,0,0,1,.871.152,1.721,1.721,0,0,1,.632.422,1.676,1.676,0,0,1,.32.549,2.038,2.038,0,0,1,.112.687v.017a2.021,2.021,0,0,1-.094.634,1.709,1.709,0,0,1-.256.5,1.6,1.6,0,0,1-.391.368,1.868,1.868,0,0,1-.5.234l1.407,2.169h-1.079l-1.285-2h-1.149v2h-.907Zm2.25,2.841a1.141,1.141,0,0,0,.784-.258.9.9,0,0,0,.29-.7v-.016a.884.884,0,0,0-.283-.711,1.192,1.192,0,0,0-.8-.243h-1.336v1.933Z" transform="translate(-270.255 -302.393)" fill="#fff"/>
      <path id="Trazado_46" data-name="Trazado 46" d="M315.816,303.427h-1.651v-.934h4.226v.934H316.74v4.8h-.925Z" transform="translate(-269.405 -302.393)" fill="#fff"/>
      <path id="Trazado_47" data-name="Trazado 47" d="M320.263,302.493h.907v5.731h-.907Z" transform="translate(-268.534 -302.393)" fill="#fff"/>
      <path id="Trazado_48" data-name="Trazado 48" d="M326.072,308.315a2.477,2.477,0,0,1-.915-.16,1.824,1.824,0,0,1-.7-.479,2.162,2.162,0,0,1-.447-.79,3.448,3.448,0,0,1-.157-1.094v-3.3h.907v3.258a1.848,1.848,0,0,0,.352,1.221,1.2,1.2,0,0,0,.973.417,1.219,1.219,0,0,0,.966-.4,1.766,1.766,0,0,0,.351-1.2v-3.3h.909v3.249a3.625,3.625,0,0,1-.16,1.122,2.268,2.268,0,0,1-.45.807,1.819,1.819,0,0,1-.7.482A2.536,2.536,0,0,1,326.072,308.315Z" transform="translate(-268.021 -302.393)" fill="#fff"/>
      <path id="Trazado_49" data-name="Trazado 49" d="M330.522,302.493h.974l1.585,2.711,1.584-2.711h.975v5.731h-.907v-4.11l-1.645,2.7h-.03l-1.63-2.686v4.094h-.907Z" transform="translate(-267.068 -302.393)" fill="#fff"/>
    </g>
  </g>
</svg>
