<svg xmlns="http://www.w3.org/2000/svg" xmlns:xlink="http://www.w3.org/1999/xlink" width="80" height="80" viewBox="0 0 80 80">
  <defs>
    <clipPath id="clip-path">
      <rect id="Прямоугольник_308" data-name="Прямоугольник 308" width="80" height="80" fill="#1c1c21"/>
    </clipPath>
  </defs>
  <g id="Группа_масок_120" data-name="Группа масок 120" clip-path="url(#clip-path)">
    <g id="Grupo_27" data-name="Grupo 27" transform="translate(20.001 26.028)">
      <path id="Exclusión_11" data-name="Exclusión 11" d="M413.329,230.712a7.844,7.844,0,0,1-1.682-.141l.021.04h-3.846l-2-5.387c.007.213.015.429.024.638v0c.017.421.035.855.035,1.282v3.463h-6.63l-2.142-5.586v5.586h-3.526V217.574h3.526v3.767l1.783-3.784h6.849a7.636,7.636,0,0,1,3.241.562,3.313,3.313,0,0,1,1.846,2.143,3.8,3.8,0,0,1,3.784-2.824,5.577,5.577,0,0,1,2.523.541v3.966a2.846,2.846,0,0,0-2.082-1.4.882.882,0,0,0-.921.8,1.13,1.13,0,0,0,.339.721,3.106,3.106,0,0,0,.41.354c.083.065.163.127.231.186a6.488,6.488,0,0,1,1.743,1.6,3.674,3.674,0,0,1,.642,2.263,4.32,4.32,0,0,1-1.159,3.032,3.88,3.88,0,0,1-1.317.893A4.4,4.4,0,0,1,413.329,230.712Zm-11.015-12.5-2.443,5.047,2.443,5.848Zm8.552,4.887h0a3.183,3.183,0,0,1-.662,1.237,3.143,3.143,0,0,1-1.2.846l1.642,3.365v-2.343a3,3,0,0,0,2.243,1.442.96.96,0,0,0,1.041-.862.977.977,0,0,0-.281-.72,3.57,3.57,0,0,0-.581-.5,8.743,8.743,0,0,1-1.762-1.662,3.529,3.529,0,0,1-.44-.8Zm-4.918-2.746c-.035,0-.071,0-.11,0v3.224l.221.021a1.521,1.521,0,0,0,1.442-1.663,1.428,1.428,0,0,0-1.553-1.584ZM380.2,230.712a6.885,6.885,0,0,1-2.663-.421v-4.086a3,3,0,0,0,2.242,1.442.96.96,0,0,0,1.042-.861.982.982,0,0,0-.281-.721,2.293,2.293,0,0,0-.581-.5A8.749,8.749,0,0,1,378.2,223.9a3.847,3.847,0,0,1-.7-2.283,4.679,4.679,0,0,1,.856-2.654,3.587,3.587,0,0,1,1.229-1.075,4.04,4.04,0,0,1,1.9-.437,5.61,5.61,0,0,1,2.323.561v3.665a2.691,2.691,0,0,0-1.882-1.121.88.88,0,0,0-.922.8,1.133,1.133,0,0,0,.341.721,3.025,3.025,0,0,0,.41.353c.083.065.163.127.231.187a6.47,6.47,0,0,1,1.743,1.6,3.1,3.1,0,0,1,.541,1.222v-7.873h3.705l1.682,5.848v-5.848h3.4v13.038h-2.9l-2.464-6.389v6.389h-3.424v-3.2a4.062,4.062,0,0,1-1.379,2.382,4.148,4.148,0,0,1-2.685.923Zm7.463-18.51h0a2.984,2.984,0,0,1-2.736-1.337,3.022,3.022,0,0,1-.29-2.249,7.857,7.857,0,0,1,1.151-2.657,24.308,24.308,0,0,1,2.6-3.184,7.508,7.508,0,0,0-.946,2.323,2.53,2.53,0,0,0,.887,2.744,2.954,2.954,0,0,0,1.721.445,8.2,8.2,0,0,0,1.983-.286l19.527-5.147L391.8,211.165a11.172,11.172,0,0,1-4.134,1.035Z" transform="translate(-377.5 -202.775)" fill="#fff"/>
    </g>
  </g>
</svg>
