<svg xmlns="http://www.w3.org/2000/svg" xmlns:xlink="http://www.w3.org/1999/xlink" width="80" height="80" viewBox="0 0 80 80">
  <defs>
    <clipPath id="clip-path">
      <rect id="Прямоугольник_305" data-name="Прямоугольник 305" width="80" height="80" transform="translate(-0.156)" fill="#1c1c21"/>
    </clipPath>
  </defs>
  <g id="Группа_масок_117" data-name="Группа масок 117" transform="translate(0.156)" clip-path="url(#clip-path)">
    <g id="Сгруппировать_235" data-name="Сгруппировать 235" transform="translate(11.161 31.86)">
      <path id="Exclusión_14" data-name="Exclusión 14" d="M289.8,209.718a.634.634,0,0,0-.157.024l-.481.157a2.973,2.973,0,0,0-.229-.566,1.615,1.615,0,0,0-1.442-1,.321.321,0,0,0-.109.013h-.011c-.024-.024-.037-.048-.061-.061a1.2,1.2,0,0,0-.95-.409h-.048a2.88,2.88,0,0,0-2.176,1.576,6.309,6.309,0,0,0-.866,2.259l-.336.109-.241.072-.95.3c-.456.133-.469.157-.529.577-.024.216-.565,4.424-.926,7.2-.168,1.274-.288,2.189-.288,2.213l9.858,1.707V209.731A.1.1,0,0,0,289.8,209.718Zm-2.417.721-.745.241-.89.277a3.828,3.828,0,0,1,.83-1.624,1.527,1.527,0,0,1,.553-.4A3.56,3.56,0,0,1,287.382,210.439Zm-1.046-2.043h.011a.824.824,0,0,1,.446.12,2.436,2.436,0,0,0-.6.469,4.609,4.609,0,0,0-1.023,2.141l-.48.157-.866.264C284.088,210.283,285.145,208.431,286.336,208.4Zm-1.515,7.093c.048.842,2.237,1.01,2.357,2.958a2.3,2.3,0,0,1-2.115,2.67,3.25,3.25,0,0,1-2.441-.83l.337-1.419a2.951,2.951,0,0,0,1.562.614.608.608,0,0,0,.6-.625v-.037c-.059-1.081-1.839-1.022-1.959-2.8a2.965,2.965,0,0,1,3.065-3.15,2.679,2.679,0,0,1,1.263.157L287,214.887a3.035,3.035,0,0,0-1.214-.216C284.821,214.732,284.809,215.344,284.821,215.488Zm3.162-5.23-.085.024a4.408,4.408,0,0,0-.227-1.418c.589.12.877.793,1,1.178Zm4.256.566h-.181v.011h.181a.11.11,0,0,1,.085.037A.187.187,0,0,0,292.239,210.824Z" transform="translate(-280 -207.877)" fill="#fff"/>
      <g id="Path" transform="translate(10.159 2.081)">
        <path id="Контур_324" data-name="Контур 324" d="M292.857,222.562l-.289.073-3.679.926V209.7c.289.289.878.854.878.854h.192c.169,0,.422.013.638.013h.192v.011h.181a.11.11,0,0,1,.085.037.15.15,0,0,1,.048.085s.011.059.024.144a.9.9,0,0,0,.024.168c0,.037.011.072.011.109.013.083.024.181.048.3.193,1.334.638,4.3,1.01,6.84.024.181.048.361.085.529s.048.337.072.505.048.337.072.493c.048.325.085.614.133.89.024.157.048.3.059.445.024.12.037.24.061.361.024.168.048.336.072.469.024.216.048.373.061.481A1.243,1.243,0,0,0,292.857,222.562Z" transform="translate(-288.889 -209.698)" fill="#fff"/>
      </g>
      <path id="Exclusión_13" data-name="Exclusión 13" d="M322.957,210.854h-.024a1.111,1.111,0,0,0-1.082,1.13v.1a.887.887,0,0,0,.913.865h.1a1.1,1.1,0,0,0,1.07-1.118v-.109A.934.934,0,0,0,322.957,210.854Zm-1.4,2.934-1.31,6.865h1.935l1.323-6.865Zm-15.737.312a1.553,1.553,0,0,0-1.166-.469,2.622,2.622,0,0,0-2.056,1.034l-.024-.024.745-3.883h-1.936l-1.875,9.895h1.936l.637-3.378a3.7,3.7,0,0,1,.638-1.515,1.2,1.2,0,0,1,.9-.553c.385,0,.6.253.6.721a5.014,5.014,0,0,1-.085.854l-.733,3.872h1.935l.758-4a7.13,7.13,0,0,0,.144-1.262A1.869,1.869,0,0,0,305.824,214.1Zm22.482-1.9a2.217,2.217,0,0,1,.625.1l.373-1.514a2.843,2.843,0,0,0-1.046-.168,2.91,2.91,0,0,0-1.9.649,3.637,3.637,0,0,0-1.119,2.187l-.059.325h-.9L324,215.243h.889l-1.022,5.41h1.936l1.034-5.423h1.334l.265-1.455h-1.347l.073-.325C327.261,212.874,327.621,212.2,328.306,212.2Zm-30.585,4.328c-.445-.24-.745-.469-.745-.806,0-.384.36-.637.9-.637a3.234,3.234,0,0,1,1.214.264l.445-1.37a2.8,2.8,0,0,0-1.634-.325c-1.683,0-2.862.95-2.862,2.333a2.148,2.148,0,0,0,1.287,1.779c.589.336.793.577.793.926,0,.4-.337.661-.842.661a3.846,3.846,0,0,1-1.586-.421l-.469,1.37a3.747,3.747,0,0,0,1.9.481v-.011a3.5,3.5,0,0,0,2.152-.614,2.138,2.138,0,0,0,.841-1.779C299.116,217.671,298.658,217.07,297.721,216.529Zm14.9-2.056a2.525,2.525,0,0,0-2-.841,3.6,3.6,0,0,0-2.813,1.346,4.926,4.926,0,0,0-1.058,3.1,2.741,2.741,0,0,0,.686,1.923,2.653,2.653,0,0,0,1.983.794,3.593,3.593,0,0,0,2.777-1.335,4.922,4.922,0,0,0,1.058-3.114A2.928,2.928,0,0,0,312.617,214.473Zm-2.946,4.833c-.589,0-.937-.469-.937-1.262,0-1.046.541-2.922,1.623-2.922a.771.771,0,0,1,.71.374,1.431,1.431,0,0,1,.2.793C311.271,217.55,310.657,219.306,309.671,219.306Zm10.063-4.929a1.781,1.781,0,0,0-1.527-.745,2.664,2.664,0,0,0-2.055,1.154h-.025l.109-1.034h-1.707c-.083.686-.24,1.744-.4,2.561l-1.346,7.094h1.936l.529-2.862h.048a2.341,2.341,0,0,0,1.142.253,3.42,3.42,0,0,0,2.729-1.467,5.428,5.428,0,0,0,1.022-3.222A3.027,3.027,0,0,0,319.734,214.377Zm-3.39,4.953a1.2,1.2,0,0,1-.793-.277l.325-1.815c.216-1.178.841-2.008,1.527-2.008s.769.745.769,1.07C318.172,217.515,317.45,219.33,316.344,219.33Zm16.747-5.542c-.013.035-1.215,3.078-1.755,4.712h-.024c-.013-.216-.109-1.166-.457-4.544-.011-.1-.024-.168-.024-.168H328.8l1.167,6.3a.441.441,0,0,1-.048.325,3.368,3.368,0,0,1-1.047,1.167,3.86,3.86,0,0,1-1.094.541l.529,1.647a4.486,4.486,0,0,0,1.887-1.046,12.961,12.961,0,0,0,2.55-3.847l2.368-5.086Z" transform="translate(-277.968 -207.487)" fill="#fff"/>
    </g>
  </g>
</svg>
