<svg xmlns="http://www.w3.org/2000/svg" xmlns:xlink="http://www.w3.org/1999/xlink" width="80" height="80" viewBox="0 0 80 80">
  <defs>
    <clipPath id="clip-path">
      <rect id="Прямоугольник_298" data-name="Прямоугольник 298" width="80" height="80" transform="translate(0.078)" fill="#1c1c21"/>
    </clipPath>
  </defs>
  <g id="Группа_масок_111" data-name="Группа масок 111" transform="translate(-0.078)" clip-path="url(#clip-path)">
    <g id="Сгруппировать_230" data-name="Сгруппировать 230" transform="translate(5.848 35.789)">
      <path id="Контур_305" data-name="Контур 305" d="M322.236,121.315q1.191,1.555,2.382,3.109c.258.336.523.665.811,1.029l-3.255,4.134-3.241-4.117,3.2-4.154Zm-2.361,4.138,2.3,2.915,2.293-2.921-2.3-2.909Z" transform="translate(-268.724 -121.315)" fill="#fff"/>
      <path id="Контур_306" data-name="Контур 306" d="M275,121.5h4.347v.8h-1.765v7.325h-.849v-7.28H275Z" transform="translate(-275 -121.289)" fill="#fff"/>
      <path id="Контур_307" data-name="Контур 307" d="M284.208,129.623h-.786V125.74h-2.384V129.6h-.849V121.6h.8v3.213h2.4v-3.223h.825Z" transform="translate(-274.259 -121.275)" fill="#fff"/>
      <path id="Контур_308" data-name="Контур 308" d="M296.971,129.606v-3.866h-2.363V129.6h-.848v-8h.8v3.217h2.4v-3.225h.824v8.013Z" transform="translate(-272.32 -121.275)" fill="#fff"/>
      <path id="Контур_309" data-name="Контур 309" d="M326.239,121.527c.846,0,1.664-.039,2.477.014a1.591,1.591,0,0,1,1.233.839,2.5,2.5,0,0,1-.621,3.27c-.255.186-.227.331-.136.569.425,1.118.837,2.241,1.255,3.368-.847.147-.847.147-1.111-.566-.3-.809-.639-1.608-.89-2.432-.158-.514-.413-.731-.947-.635a3.218,3.218,0,0,1-.52,0v3.552h-.739Zm.749,3.7c.865-.127,1.838.336,2.351-.682a1.692,1.692,0,0,0-.1-1.856c-.6-.793-1.473-.3-2.247-.433Z" transform="translate(-267.68 -121.287)" fill="#fff"/>
      <path id="Контур_310" data-name="Контур 310" d="M285.7,121.5h3.623v.8h-2.776v2.661h2.112v.823h-2.11v3.1h2.968v.819H285.7Z" transform="translate(-273.471 -121.288)" fill="#fff"/>
      <path id="Контур_311" data-name="Контур 311" d="M331.643,129.705v-8.192h3.629v.811h-2.783v2.622h2.125v.848H332.5v3.1h2.982v.809Z" transform="translate(-266.908 -121.287)" fill="#fff"/>
      <path id="Контур_312" data-name="Контур 312" d="M313.85,123.685h-.791c-.043-.167-.081-.351-.142-.527a1.188,1.188,0,0,0-1.189-.889,1.027,1.027,0,0,0-1.079.616,1.174,1.174,0,0,0,.329,1.482c.6.5,1.223.97,1.842,1.446a2.266,2.266,0,0,1,.933,1.6,2.083,2.083,0,0,1-1.177,2.131,2.185,2.185,0,0,1-2.515-.63,9.239,9.239,0,0,1-.712-1.371h.834c.077.184.145.383.24.567a1.419,1.419,0,0,0,1.426.831,1.1,1.1,0,0,0,1.061-.816,1.364,1.364,0,0,0-.4-1.586c-.618-.53-1.285-1.007-1.922-1.515a1.905,1.905,0,0,1-.8-1.749,1.782,1.782,0,0,1,1.419-1.7,1.977,1.977,0,0,1,2.214.891A8.293,8.293,0,0,1,313.85,123.685Z" transform="translate(-270.093 -121.286)" fill="#fff"/>
      <path id="Контур_313" data-name="Контур 313" d="M302.556,125.954v3.566h-.712v-7.983c.859,0,1.706,0,2.554,0a.776.776,0,0,1,.255.075,2.265,2.265,0,0,1,1.183,2.677,1.963,1.963,0,0,1-1.973,1.661C303.455,125.955,303.047,125.954,302.556,125.954Zm.033-.728c.843-.128,1.787.334,2.322-.622a1.707,1.707,0,0,0-.064-1.905c-.586-.8-1.472-.31-2.258-.449Z" transform="translate(-271.165 -121.283)" fill="#fff"/>
      <path id="Контур_314" data-name="Контур 314" d="M317.037,129.632H316.2v-7.287H314.5v-.823H318.8v.791h-1.766Z" transform="translate(-269.358 -121.285)" fill="#fff"/>
      <path id="Контур_315" data-name="Контур 315" d="M299.968,129.612h-.794v-8.007h.794Z" transform="translate(-271.547 -121.274)" fill="#fff"/>
    </g>
  </g>
</svg>
