<svg xmlns="http://www.w3.org/2000/svg" xmlns:xlink="http://www.w3.org/1999/xlink" width="80" height="80" viewBox="0 0 80 80">
  <defs>
    <clipPath id="clip-path">
      <rect id="Прямоугольник_309" data-name="Прямоугольник 309" width="80" height="80" transform="translate(0.078)" fill="#1c1c21"/>
    </clipPath>
  </defs>
  <g id="Группа_масок_121" data-name="Группа масок 121" transform="translate(-0.078)" clip-path="url(#clip-path)">
    <g id="Grupo_199" data-name="Grupo 199" transform="translate(20.134 30.936)">
      <path id="Trazado_3" data-name="Trazado 3" d="M197.5,315.185v-18.1h.359s2.91-.011,4.365,0a1.441,1.441,0,0,1,1.6,1.553c.025.562.007,1.127.007,1.69,0,1.174.007,2.347,0,3.522a2.664,2.664,0,0,1-.481,1.763,3.761,3.761,0,0,1,.487,2.275c-.008,1.69,0,3.382-.007,5.072a5.563,5.563,0,0,1-.106,1.118,1.259,1.259,0,0,1-1.091,1.049,2.27,2.27,0,0,1-.35.05C200.711,315.188,199.142,315.185,197.5,315.185Zm2.038-2.037c.8,0,1.511.035,2.225-.022v-6.319h-2.225Zm-.01-8.491h2.243v-5.551a10.445,10.445,0,0,0-2.243.022Z" transform="translate(-197.5 -297.067)" fill="#fff"/>
      <path id="Trazado_4" data-name="Trazado 4" d="M228.725,315.163h-1.9V297.109h1.552q1.447,4.994,2.9,10.011l.138-.016V297.069h1.9v18.1c-.222.009-.449.021-.674.026s-.466,0-.77,0q-1.519-5.287-3.026-10.533l-.115.013Z" transform="translate(-193.311 -297.069)" fill="#fff"/>
      <path id="Trazado_5" data-name="Trazado 5" d="M207.31,311.215h2.042v1.89H211.5c.03-.184.051-.37.063-.557,0-.87-.016-1.739.009-2.607a1.819,1.819,0,0,0-.339-1.113c-1.069-1.6-2.1-3.226-3.185-4.818a4.034,4.034,0,0,1-.705-2.313c-.006-.871-.013-1.741,0-2.608a4.646,4.646,0,0,1,.1-.906,1.253,1.253,0,0,1,1.288-1.083c1.171-.027,2.347-.029,3.521,0a1.336,1.336,0,0,1,1.319,1.31c.053.864.013,1.731.013,2.643h-2.01v-1.878h-2.19a10.821,10.821,0,0,1-.029,1.171,4.869,4.869,0,0,0,1.1,3.711c.934,1.233,1.71,2.583,2.568,3.874a3.22,3.22,0,0,1,.574,1.917c-.023,1.2-.01,2.394,0,3.592a1.825,1.825,0,0,1-.32,1.128,1.124,1.124,0,0,1-.857.546c-.467.03-.935.064-1.4.072q-1.022.017-2.043,0a1.532,1.532,0,0,1-1.635-1.421,4.042,4.042,0,0,1-.023-.633C207.3,312.505,207.31,311.877,207.31,311.215Z" transform="translate(-196.099 -297.068)" fill="#fff"/>
      <path id="Trazado_6" data-name="Trazado 6" d="M219.386,299.14h-2.4V297.1h6.729v2.027H221.4V315.14H219.45c-.011-.27-.032-.544-.032-.814q0-7.149,0-14.3C219.416,299.754,219.4,299.479,219.386,299.14Z" transform="translate(-194.717 -297.064)" fill="#fff"/>
    </g>
  </g>
</svg>
