<svg xmlns="http://www.w3.org/2000/svg" xmlns:xlink="http://www.w3.org/1999/xlink" width="80" height="80" viewBox="0 0 80 80">
  <defs>
    <clipPath id="clip-path">
      <rect id="Прямоугольник_289" data-name="Прямоугольник 289" width="80" height="80" fill="#1c1c21"/>
    </clipPath>
  </defs>
  <g id="Группа_масок_102" data-name="Группа масок 102" clip-path="url(#clip-path)">
    <g id="Сгруппировать_227" data-name="Сгруппировать 227" transform="translate(11.436 22.72)">
      <g id="Сгруппировать_226" data-name="Сгруппировать 226" transform="translate(13.617)">
        <path id="Контур_297" data-name="Контур 297" d="M141.643,217.021a.473.473,0,0,0-.074-.168l-1.432-2.048a.523.523,0,0,0-.079-.088l-1.714-1.464-.473-.587a.462.462,0,0,0-.094-.089l-2.242-1.592-2.749-1.241a11.9,11.9,0,0,0-1.977-.709l-.149-.1a.543.543,0,0,0-.105-.055l-.414-.152a1.085,1.085,0,0,0,.694-.858,1.284,1.284,0,0,0-.185-.606l.235-.4a.478.478,0,0,0,.048-.365,2.534,2.534,0,0,1-.083-.446l.12-.066a.461.461,0,0,0,.2-.216l.114-.246a.471.471,0,0,0,.016-.359l-.086-.238a.465.465,0,0,0-.139-.2l-.4-.338a2.917,2.917,0,0,0-.174-.968l-.143-.489a2.064,2.064,0,0,1,.294-.781.473.473,0,0,0,.051-.408l-.3-.91a.475.475,0,0,0-.13-.2l-.237-.218a.576.576,0,0,0-.366-.125l-.671.024a2.637,2.637,0,0,0-1.075-.389,1.44,1.44,0,0,0-.535-.024l-1.128.239-.976.085a.478.478,0,0,0-.259.105l-.5.424-.759.407a.464.464,0,0,0-.2.213c-.263.545-.435.666-.514.69a.469.469,0,0,0-.31.295l-.381,1.062a.474.474,0,0,0-.01.285l.806,2.949a.465.465,0,0,0,.07.149l.721,1.024a.461.461,0,0,0,.066.075l.207.191v.062l-.794.629-2.571.367a.488.488,0,0,0-.15.048l-3.342,1.712-4.769,3.11a.486.486,0,0,0-.15.155l-.426.721a.486.486,0,0,0-.066.231l-.029,1.2a.483.483,0,0,0,.051.226l.843,1.659a.486.486,0,0,0,.086.118l1.441,1.461a.567.567,0,0,0,.087.07c1.691,1.053,3.477,2.142,5.611,3.415l.193.224-.226.69a.475.475,0,0,0,.456.606H132.05a.475.475,0,0,0,.473-.442l.006-.09.546-.149a.481.481,0,0,0,.185-.1,57.578,57.578,0,0,1,6.377-3.8.409.409,0,0,0,.107-.081l1.934-1.962a.474.474,0,0,0,.126-.437Zm-6.235.736c-.566.549-1.153,1.072-1.757,1.562l.465-2.381C134.568,217.207,135,217.48,135.408,217.757Zm-15.6,1.221c-.342-.335-.665-.682-.962-1.034A11.2,11.2,0,0,1,118,216.68c.4-.245.8-.472,1.192-.687l.029-.017.208-.1c.034.36.073.693.115,1.013Z" transform="translate(-111.921 -199.88)" fill="#fff"/>
        <g id="Grupo_25" data-name="Grupo 25" transform="translate(0.467 0.478)">
          <path id="Exclusión_9" data-name="Exclusión 9" d="M131,224.257h-.659l.366-6.366c-.174.279-.342.337-.454.337l-.278,1.848v4.181h-1.025l.161-6.117-.718-.309-.219,6.425h-1l.616-13.218-.367-.381-.351.455-.85,13.144h-1.185l.878-13.409-.658.264-1.055,13.145h-.8l-.059-1.8.221-1.526.4-9.755-.015-.587-.073-.2-.146.2a16.291,16.291,0,0,0-.439,2.23c-.1.857-.206,2.832-.309,5.869l-.351,5.575h-.791l.249-1.863.381-9.243.234-2.3-.615.807-.131.763.085,1.025c.05.7.018,2.234-.085,4.21l-.221,4.107-.366-.573v-8.611a5.143,5.143,0,0,1,.03-1.76l-.41.573-.131,4.65.41,2.7-.073,1.8a2.43,2.43,0,0,0-1.231.645l-.585-.058-.806-.865a21.115,21.115,0,0,1-3.077-2.583l-.673-1.262-.4-1.393.029-.337.161-.206a2.194,2.194,0,0,0,1.347-.646l-.307-.455-.2-.073-1.347.763-.806.777-.2.4-.03.734.161.646a9.292,9.292,0,0,0,2.446,2.64c.645.459,1.277.9,1.919,1.277a15.056,15.056,0,0,1,1.713,1.114l.806.382h1.288a1.673,1.673,0,0,1,.279.925,2.992,2.992,0,0,1-.219,1.232H120.4l.307-.865-.424-.485c-2.159-1.29-3.96-2.386-5.667-3.447l-1.434-1.467-.85-1.657.03-1.2.424-.719,4.774-3.111,3.295-1.687,2.695-.382.907-.719h.176v-.631l-.367-.337-.718-1.025-.8-2.949.381-1.056c.283-.086.531-.374.8-.939l.761-.411.571-.47,1.01-.088,1.186-.25a2.341,2.341,0,0,1,1.347.427l.849-.03.234.221.307.91a2.577,2.577,0,0,0-.381,1.07l.176.587a2.809,2.809,0,0,1,.146,1.056l.571.485.088.234-.118.249-.381.206a2.889,2.889,0,0,0,.118.85l-.294.5-.029.264a.819.819,0,0,1,.2.5c-.029.2-.248.366-.688.513-.458.122-.673.227-.673.33,0,.085.152.17.467.256l.923.337.219.147a12.405,12.405,0,0,1,1.977.7l2.752,1.247,2.167,1.541.471.586,1.771,1.526,1.434,2.054.161.719-1.933,1.966a63.538,63.538,0,0,0-6.457,3.846l-.879.235-.03.424h-.6l.349-4.6.427-5.653-.381-3.007-.542-.471a9.126,9.126,0,0,1,.454,3.141l-.264,4.056-.5-3.162H128.6v.221h2.327v-.221l.5,3.162L131,224.257Zm5.96-9.257h0l-.879,1.262,1.347,1.378-4.086,3.727-1.142.133-.015,1.056a39.015,39.015,0,0,0,3.851-2.465,25.1,25.1,0,0,0,2.9-2.362l.1-.454-1.728-2.245-.352-.03Zm-3.559.661h0l-.073.762-.63,3.2-.512,1.527a6.457,6.457,0,0,0,1.64-1,25.708,25.708,0,0,0,2.825-2.568,27.4,27.4,0,0,0-2.43-1.584,3.355,3.355,0,0,0-.821-.337Zm-13.354-1.013h0c-.381.139-.792.318-1.259.543h0c-.59.33-1.2.673-1.769,1.055l-.1.176a12.354,12.354,0,0,0,1.246,1.966A14.87,14.87,0,0,0,120,220.25l.439-.03.322-.088-.425-3.4c-.081-.584-.142-1.2-.19-1.951Zm12.648-.311c-.055,0-.083.061-.083.179l.015,1.1-.219,2.949.337-1.423.219-2.039a1.584,1.584,0,0,0-.131-.689.236.236,0,0,0-.141-.077Zm.034-.994h0l.821,1.32,1.552.792.309-.221-.176-.322Zm-4.129,1.73v.176h2.328v-.176Zm-8.157-1.893h0l-.513.042-1.977,1.555-.072.219.117.191.117-.191,2.241-1.32.118-.219-.03-.279Zm10.411-2h0l-.513.337-.073,2.7h.5l.088-3.038Zm1.581.749.117.47.382.309h.366l2.285,1.423.424.088.03-.219-2.518-1.6a5.46,5.46,0,0,0-1.085-.47Zm-3.485-.91-.118.03-.249,3.154h.776l.088-1.526-.029-.675-.471-.982Zm-8.523.543h0l-3.4,2.054v.264l.249.176.337-.117,2.826-2.083-.015-.294Zm5.9,1.687c-.122,0-.191.063-.191.176a.171.171,0,0,0,.149.191.131.131,0,0,0,.042,0c.12,0,.176-.061.176-.191a.157.157,0,0,0-.133-.176.153.153,0,0,0-.046,0Zm6.091-2.273a8.222,8.222,0,0,1,1.171.454l2.446,1.7.585.191.191-.117-3.661-2.479-.776-.1h0l.042.352Zm-11.8-.705h0l-4.1,2.2.073.234,1.083-.455,2.738-1.6.2-.381Zm5.814.91c-.115,0-.176.056-.176.162,0,.125.051.175.176.175s.161-.046.161-.175a.148.148,0,0,0-.13-.162.183.183,0,0,0-.035,0Zm-.645-6.734-.513.088-.249.279.059.762.5.646L125.2,207.9l-.175.03-.03.85,1.406.88a.746.746,0,0,0,.31.139.061.061,0,0,0,.054-.023.123.123,0,0,0,.017-.072l.058-1.013-.733-.6v-.234l.555-.337,1.435-.03,1.347.249a.425.425,0,0,0,.269-.137.1.1,0,0,0,.01-.082l-.176-.338h-.131c.078-.249.151-.337.191-.337l.307-.147-.073-.117-.176.014-.425.1-.029-.279.307-.322.47-.1v-.146l-.293-.322.293-.118.367-.264-.425-.367-.571.118-.922-.162-.234-.4,1.01-.455.118-.161-.161-.219h-.923l-1.346.85-.147.646h-.336l-.63-.543Zm-.015,1.129h0l-.175-.2-.118-.219-.2.03-.088-.206.131-.264.542.014.175.411-.088.427-.175.015Z" transform="translate(-112.33 -200.298)" fill="#161413"/>
        </g>
      </g>
      <path id="Exclusión_10" data-name="Exclusión 10" d="M149.748,231.124a2.833,2.833,0,0,1-2.064-.88,2.758,2.758,0,0,1-.879-2.069,2.916,2.916,0,0,1,.57-1.731,2.713,2.713,0,0,1,2.36-1.194c.071,0,.144,0,.218.006a2.634,2.634,0,0,1,2.123,1.13,2.791,2.791,0,0,1,.585,1.57l-3.661.806.424.323a1.047,1.047,0,0,0,.345.063.881.881,0,0,0,.577-.224l.206-.234,1.683,1.086-.7.749A2.787,2.787,0,0,1,149.748,231.124Zm.017-3.935a1.136,1.136,0,0,0-.31.047,1.109,1.109,0,0,0-.63.675l1.624-.367a.856.856,0,0,0-.685-.355Zm-11.2,3.935a2.838,2.838,0,0,1-2.065-.88,2.751,2.751,0,0,1-.863-2.069,2.835,2.835,0,0,1,.863-2.069,2.978,2.978,0,0,1,2.065-.865,2.785,2.785,0,0,1,2.446,1.349l-1.758,1.13a.863.863,0,0,0-1.562.251.8.8,0,0,0,0,.189c0,.573.288.85.879.85a.765.765,0,0,0,.688-.367l1.758,1.13a2.784,2.784,0,0,1-2.446,1.35Zm-6.487,0a2.836,2.836,0,0,1-2.065-.88,2.75,2.75,0,0,1-.849-2.069,2.918,2.918,0,0,1,4.978-2.069,2.877,2.877,0,0,1,.85,2.069,2.751,2.751,0,0,1-.85,2.069,2.785,2.785,0,0,1-2.064.88Zm-.015-3.77a.838.838,0,0,0-.586.234,1,1,0,0,0-.248.6c0,.581.264.85.834.85a.746.746,0,0,0,.849-.629.721.721,0,0,0,0-.222.741.741,0,0,0-.629-.839.751.751,0,0,0-.221,0Zm-18.977,3.77a2.836,2.836,0,0,1-2.065-.88,2.752,2.752,0,0,1-.864-2.069,2.836,2.836,0,0,1,.864-2.069,2.893,2.893,0,0,1,4.1,0,2.805,2.805,0,0,1,.865,2.069,2.839,2.839,0,0,1-.865,2.069,2.8,2.8,0,0,1-2.037.88Zm0-3.785a.769.769,0,0,0-.874.647.753.753,0,0,0,0,.19c0,.55.295.835.879.85a.746.746,0,0,0,.849-.629.721.721,0,0,0,0-.222.741.741,0,0,0-.629-.839.767.767,0,0,0-.223,0Zm-6.4,3.785a2.833,2.833,0,0,1-2.064-.88,2.753,2.753,0,0,1-.865-2.069,2.837,2.837,0,0,1,.865-2.069,2.736,2.736,0,0,1,2.064-.851,2.787,2.787,0,0,1,2.035.851,2.885,2.885,0,0,1,.864,2.069,2.833,2.833,0,0,1-.864,2.069,2.8,2.8,0,0,1-2.034.88Zm0-3.785a.77.77,0,0,0-.874.647.811.811,0,0,0,0,.19c0,.558.288.835.879.85a.754.754,0,0,0,.85-.642,1.016,1.016,0,0,0-.643-1.046.729.729,0,0,0-.206,0Zm49.906,3.7c-.354,0-.527-.177-.527-.543s.171-.543.527-.543a.478.478,0,0,1,.543.4.453.453,0,0,1,0,.142.476.476,0,0,1-.4.543.435.435,0,0,1-.144,0Zm0-.983a.385.385,0,0,0-.439.321.416.416,0,0,0,0,.119c0,.306.144.455.439.455a.4.4,0,0,0,.454-.343.368.368,0,0,0,0-.112.4.4,0,0,0-.352-.442.443.443,0,0,0-.1,0Zm-1.288.983h-2.065v-4.679a.9.9,0,0,1,.762-1.015.881.881,0,0,1,.263,0h2.592v1.863h-1.083a.41.41,0,0,0-.467.341.382.382,0,0,0,0,.114v3.374Zm-26.608,0h-3.075c-.69,0-1.011-.317-1.011-1V223.1h2.065v5.59a.444.444,0,0,0,.382.5.432.432,0,0,0,.1,0h1.538v1.848Zm-8.2,0H118.28a1.144,1.144,0,0,1-.746-.294,1,1,0,0,1-.307-.718V227.34h-.849v-1.864h.849V223.6h2.065l.029,1.88h.791v1.864h-.791v1.35c0,.33.153.5.454.5h.718v1.848Zm-18.392,0h-2.094v-6.879a1.078,1.078,0,0,1,.307-.749,1.1,1.1,0,0,1,.761-.307v-.015h3.046v1.863h-1.552c-.306,0-.47.171-.47.5v.895h1.111v1.863H102.1v2.831Zm41.485-.014h-2.094v-7.938h2.094v3.9l1.04-1.306h2.255l-1.947,2.393,2.459,2.949h-2.416l-1.391-1.673v1.673Zm12.886-.249h-.088v-.587h.278c.143,0,.206.055.206.176,0,.1-.042.15-.144.15a.323.323,0,0,1-.047,0l.19.263h-.117l-.176-.264h-.1v.266Zm0-.5v.146h.118c.141,0,.2-.032.2-.1l-.161-.042Z" transform="translate(-100.006 -196.565)" fill="#fff"/>
    </g>
  </g>
</svg>
