<svg xmlns="http://www.w3.org/2000/svg" xmlns:xlink="http://www.w3.org/1999/xlink" width="80" height="80" viewBox="0 0 80 80">
  <defs>
    <clipPath id="clip-path">
      <rect id="Прямоугольник_304" data-name="Прямоугольник 304" width="80" height="80" transform="translate(0.307)" fill="#1c1c21"/>
    </clipPath>
  </defs>
  <g id="Группа_масок_116" data-name="Группа масок 116" transform="translate(-0.307)" clip-path="url(#clip-path)">
    <g id="Сгруппировать_234" data-name="Сгруппировать 234" transform="translate(11.728 29.715)">
      <path id="Clip_2-2" data-name="Clip 2-2" d="M280,26h57.141V46.553H280Z" transform="translate(-280 -26.001)" fill="none"/>
      <rect id="Прямоугольник_303" data-name="Прямоугольник 303" width="57.14" height="20.552" fill="none"/>
      <path id="Контур_320" data-name="Контур 320" d="M323.786,42.077a.789.789,0,0,0-.451-.622c-1.655-1.1-7.731-1.825-16.246-1.825s-14.8.542-16.466,1.6c-.29.181-.441.381-.441.591v.121l-.28.13c.28.19.582.391.893.582a17.725,17.725,0,0,0,1.885,1.023,37.537,37.537,0,0,0,28.921,0,17.539,17.539,0,0,0,1.624-.863,10.633,10.633,0,0,0,.933-.6Zm-16.647,3.5c-6.328,0-12.073-1.5-15.694-3.781a13.039,13.039,0,0,1,2.657-.6,92.077,92.077,0,0,1,13.007-.672,81.175,81.175,0,0,1,12.474.743,14.826,14.826,0,0,1,2.968.7C318.922,44.144,313.306,45.578,307.139,45.578Zm15.393-16.216c-.3-.16-.611-.32-.933-.471-.291-.141-.592-.271-.9-.4a38.2,38.2,0,0,0-27.115,0c-.311.13-.611.261-.9.4-.321.151-.632.311-.933.471ZM307.139,27a36.171,36.171,0,0,1,10.51,1.494H296.629A36.171,36.171,0,0,1,307.139,27Z" transform="translate(-278.586 -26)" fill="#fff"/>
      <path id="Контур_321" data-name="Контур 321" d="M319.525,29.051H293.674a24.537,24.537,0,0,1,2.416-.872h21.019A24.538,24.538,0,0,1,319.525,29.051Z" transform="translate(-278.047 -25.689)" fill="#fff"/>
      <path id="Контур_322" data-name="Контур 322" d="M323.244,39.752q-.377.257-.783.512a14.826,14.826,0,0,0-2.968-.7,81.175,81.175,0,0,0-12.474-.743,92.077,92.077,0,0,0-13.007.672,13.039,13.039,0,0,0-2.657.6c-.29-.191-.561-.371-.823-.571,1.665-1.054,7.943-1.6,16.466-1.6S321.589,38.649,323.244,39.752Z" transform="translate(-278.495 -24.297)" fill="#fff"/>
      <path id="Контур_323" data-name="Контур 323" d="M335.237,28.179H281.889a1.9,1.9,0,0,0-1.344.561A1.938,1.938,0,0,0,280,30.134l1.184,11.7a2,2,0,0,0,1.885,1.935l6.027-.019,3.109-1.414.15-.071.151-.07-.01-.542a2.644,2.644,0,0,1,.361-.17,13.039,13.039,0,0,1,2.657-.6,92.077,92.077,0,0,1,13.007-.672A81.175,81.175,0,0,1,321,40.955a14.826,14.826,0,0,1,2.968.7,1.943,1.943,0,0,1,.382.181V42.4l.29.1,3.57,1.254,5.847.01a1.939,1.939,0,0,0,1.885-1.9l1.2-11.743v-.05A1.9,1.9,0,0,0,335.237,28.179Zm1,1.905-1.193,11.7a1.1,1.1,0,0,1-1.023,1.1l-5.715-.019L325.57,41.9l-.37-.131a.789.789,0,0,0-.451-.622c-1.655-1.1-7.731-1.825-16.246-1.825s-14.8.542-16.466,1.6c-.29.181-.441.381-.441.591v.121l-.28.13-2.457,1.122-5.806.01a1.1,1.1,0,0,1-1.014-1.1l-1.193-11.722a1.017,1.017,0,0,1,1.013-1.014h53.359a1.018,1.018,0,0,1,1.023,1.014Z" transform="translate(-280 -25.689)" fill="#fff"/>
      <path id="Fill_7" data-name="Fill 7" d="M297.352,36.55V31.229c0-.219.207-.347.71-.35v-.509h-3.575v.509c.435,0,.715.13.715.35l-.011,2.2h-2.728v-2.2c0-.219.273-.35.709-.35v-.509h-3.579v.509c.506,0,.71.13.71.382v6.608c0,.336-.51.607-.714.678l0,.53c1.5-.418,2.234-.576,3.582-.85v-.505s-.713-.014-.712-.36V34.467H295.2l0,2.414c-.061.382-.23.5-.718.6v.505c1.591-.253,2.424-.376,3.589-.5l0-.52s-.7-.054-.712-.415Z" transform="translate(-278.63 -25.376)" fill="#fffffd"/>
      <path id="Fill_8" data-name="Fill 8" d="M288.567,38.619c-1.815,1.994-3.994.311-3.994-3.341,0-1.394.872-3.965,2.271-3.953a3.619,3.619,0,0,1,2.829,1.959h.509V30.411h-.517a1.168,1.168,0,0,1-.97.374c-.483-.082-.841-.645-1.826-.695-2.258-.121-4.733,2.4-4.733,5.213,0,3.746,2.931,5.6,4.4,5.5,2.089-.137,1.559-.941,3.651-1.566v-2.33h-.519a6.888,6.888,0,0,1-1.1,1.711Z" transform="translate(-279.695 -25.417)" fill="#fffffd"/>
      <path id="Fill_9" data-name="Fill 9" d="M318.63,38.428h0c-1.593-.335-2.461-.47-3.465-.626l-.127-.021v-.51l.059-.006c.307-.029.656-.063.659-.458V31.282c-.022-.371-.329-.4-.642-.4h-.072v-.509h5.441a1.4,1.4,0,0,1,1.011.594,2.409,2.409,0,0,1,.515,1.505,1.953,1.953,0,0,1-.639,1.456,1.9,1.9,0,0,1-.935.505h-2.526V37.19a.766.766,0,0,0,.718.736v.5Zm-.711-7.275v2.275h1.425c.434,0,.739-.743.739-1.143s-.248-1.133-.742-1.133Z" transform="translate(-274.995 -25.376)" fill="#fffffd"/>
      <path id="Fill_10" data-name="Fill 10" d="M323.043,32.022c-.033-.9.833-1.057,1.536-.961A3.485,3.485,0,0,1,327.022,33h.512V30.412h-.512c-.072.779-1.554-.319-2.963-.346a2.24,2.24,0,0,0-2.459,1.891c-.518,4.035,5.287,4.035,5.287,5.766a1.873,1.873,0,0,1-2.146,1.7c-2.273-.161-2.842-3.253-2.867-3.541h-.509v3.6c1.542-.048,2.023.949,3.344,1.058a3.56,3.56,0,0,0,3.848-3.522c0-3.585-5.443-3-5.514-5Z" transform="translate(-274.091 -25.42)" fill="#fffffd"/>
      <path id="Fill_11" data-name="Fill 11" d="M310.995,33.385l-1.849-3.014h-3.2v.509c.45,0,.714.137.714.357l-.007,4.794c0,.407-.7.459-.7.459l0,.5c1.735.029,2.409.051,3.081.08v-.51c-.285-.031-.687-.158-.7-.483V33.19l2.317,3.9c.054.107.129.107.177,0l2.106-3.739v2.976c-.085.336-.387.413-.711.466v.5c1.095.1,1.693.169,3.566.41v-.51a.915.915,0,0,1-.7-.6V31.238c0-.214.261-.36.709-.36v-.507h-3.1l-1.71,3.014Z" transform="translate(-276.293 -25.376)" fill="#fffffd"/>
      <path id="Fill_12" data-name="Fill 12" d="M297.392,37.442h0v-.521c.386-.055.583-.128.73-.409.139-.264.593-1.081,1.072-1.947h0c.67-1.209,1.43-2.578,1.561-2.851s.167-.5.081-.645a.5.5,0,0,0-.439-.186v-.511h3.013l2.472,5.6a1.159,1.159,0,0,0,.793.505l0,.506c-.241,0-.479,0-.73,0-.975,0-2.007.022-3.069.065l.007-.5a.92.92,0,0,0,.586-.231.253.253,0,0,0,.046-.2l-.242-.582h-2.905l-.318.6a.316.316,0,0,0,.041.3.725.725,0,0,0,.56.223h.023l0,.517c-.7.019-1.819.126-3.282.279ZM302,32.549l-1.111,1.979h1.95Z" transform="translate(-277.515 -25.376)" fill="#fffffd"/>
      <path id="Fill_13" data-name="Fill 13" d="M298.919,42.3v-.872h.515v.4h.391c.237,0,.279-.006.277-.223v-.227c-.007-.2-.008-.216-.232-.219h-.333a.661.661,0,0,1-.346-.08.6.6,0,0,1-.269-.569v-.331a.611.611,0,0,1,.238-.542.63.63,0,0,1,.4-.1h1.023v.847h-.512V40h-.41c-.155,0-.2,0-.2.218v.207c0,.2.047.208.239.213h.29a.734.734,0,0,1,.414.09.6.6,0,0,1,.239.565v.341a.663.663,0,0,1-.087.4.628.628,0,0,1-.558.258h-1.074Z" transform="translate(-277.297 -24.067)" fill="#fffffd"/>
      <path id="Fill_14" data-name="Fill 14" d="M301.948,42.307h-.967v-.467h.217V40.016h-.217v-.467h1.214c.584,0,.664.288.664.6V40.5a.7.7,0,0,1-.152.518.654.654,0,0,1-.5.154h-.483v.666h.221v.466Zm-.219-2.272V40.7h.4c.166,0,.2-.01.2-.246v-.219c-.007-.169-.019-.191-.222-.2Z" transform="translate(-277.003 -24.065)" fill="#fffffd"/>
      <path id="Fill_15" data-name="Fill 15" d="M303.8,42.349h0a.585.585,0,0,1-.617-.291,1.271,1.271,0,0,1-.069-.531V40.42c.008-.376.009-.434.07-.56a.585.585,0,0,1,.579-.29h.485c.318,0,.65.054.65.694V41.67a.642.642,0,0,1-.192.545.66.66,0,0,1-.487.134h-.4l-.017-.058Zm.144-2.32c-.265,0-.287,0-.287.365v1.15c0,.315,0,.322.213.328h.286c.2,0,.209-.041.209-.328V40.391c.007-.344-.019-.355-.262-.363Z" transform="translate(-276.699 -24.063)" fill="#fffffd"/>
      <path id="Fill_16" data-name="Fill 16" d="M305.972,42.366h-.755V41.9h.221V40.075h-.221v-.466h1.222c.4.013.667.128.667.651v.266a.5.5,0,0,1-.176.435c.2.085.217.246.217.448V41.9h.224v.466h-.762v-.933c0-.175-.04-.208-.249-.208h-.387v1.142Zm0-2.29v.678h.366c.233,0,.233-.043.233-.208v-.266c0-.144-.031-.2-.223-.2Z" transform="translate(-276.398 -24.057)" fill="#fffffd"/>
      <path id="Fill_17" data-name="Fill 17" d="M308.019,42.395v-.467h.223V40.1h-.262v.39h-.5v-.856h2.065v.856h-.5V40.1h-.263v1.823h.217v.467Z" transform="translate(-276.075 -24.052)" fill="#fffffd"/>
      <path id="Fill_18" data-name="Fill 18" d="M309.813,42.395v-.871h.517v.4h.391c.237,0,.279,0,.275-.222v-.227c-.006-.2-.007-.216-.231-.219h-.334a.668.668,0,0,1-.346-.081.593.593,0,0,1-.269-.568v-.333a.612.612,0,0,1,.238-.542.642.642,0,0,1,.4-.1h1.022v.846h-.512V40.1h-.409c-.157,0-.2.006-.2.218v.207c0,.2.046.209.239.213h.29a.72.72,0,0,1,.413.091.6.6,0,0,1,.24.565v.342a.67.67,0,0,1-.088.4.626.626,0,0,1-.557.258Z" transform="translate(-275.741 -24.053)" fill="#fffffd"/>
      <path id="Fill_19" data-name="Fill 19" d="M311.866,39.864h-.1v-.4h.186a.307.307,0,0,1,.143.027.1.1,0,0,1,.05.094.107.107,0,0,1-.01.046.083.083,0,0,1-.027.032.135.135,0,0,1-.041.019.185.185,0,0,1-.05.008l.131.176h-.1l-.119-.171h-.064Zm0-.341v.106h.087a.188.188,0,0,0,.071-.01c.018-.006.027-.021.027-.046a.034.034,0,0,0-.01-.026.059.059,0,0,0-.025-.014.109.109,0,0,0-.032-.008h-.032Z" transform="translate(-275.462 -24.078)" fill="#fffffd"/>
      <path id="Fill_20" data-name="Fill 20" d="M311.911,39.955a.306.306,0,1,1,.306-.306h0A.307.307,0,0,1,311.911,39.955Zm0-.563a.258.258,0,1,0,.257.258h0a.259.259,0,0,0-.257-.258Z" transform="translate(-275.485 -24.095)" fill="#fffffd"/>
    </g>
  </g>
</svg>
