<svg xmlns="http://www.w3.org/2000/svg" xmlns:xlink="http://www.w3.org/1999/xlink" width="80" height="80" viewBox="0 0 80 80">
  <defs>
    <clipPath id="clip-path">
      <rect id="Прямоугольник_299" data-name="Прямоугольник 299" width="80" height="80" fill="#1c1c21"/>
    </clipPath>
  </defs>
  <g id="Группа_масок_112" data-name="Группа масок 112" clip-path="url(#clip-path)">
    <g id="Сгруппировать_231" data-name="Сгруппировать 231" transform="translate(14.286 28.233)">
      <path id="Path" d="M374.887,35.76l1.85-6.137a2.176,2.176,0,0,1,1.251-1.338,1.615,1.615,0,0,1,2.058.541c.1.223.435.078.435.078l2.134-.654a1.587,1.587,0,0,1,2.109.9l.883,1.887a2.542,2.542,0,0,1-.069,1.543,3.414,3.414,0,0,1-.9,1.166c1.878-.24,2.392,2.048,2.392,2.048.566.12,1.071,1.491,1.071,1.491.2.435.3.435.3.435-.832-3.968,1.183-5.768,1.183-5.768a2.646,2.646,0,0,1,2.07-1c1.981,0,2.169,2.177,2.169,2.177.025.522.694.2.694.2a1.237,1.237,0,0,0,.754-.934l1.114-4.089a1.16,1.16,0,0,1,1.081-.874h1.472c.584.042.969,1.055.969,1.055l.762,1.741,1.509-4.655a1.3,1.3,0,0,1,1.886-.686l.977.686a2.4,2.4,0,0,1,.574.935l.754,1.68a3.492,3.492,0,0,1-.145,1.783l-.214.857c.583.317,1.037,2.134,1.037,2.134,1.843-4,4.226-3.754,4.226-3.754a2.536,2.536,0,0,1,2.151,2.066c.429.059.918,1.165.918,1.165a20.092,20.092,0,0,1,1.749-3.848c.549-.891,1.861-.609,1.861-.609.4.095.96.823.96.823a12.435,12.435,0,0,1,.822,1.792c.352-.686,1.4-.48,1.4-.48l1.08.274c.514.171.806.906.806.906l.865,1.954a2.87,2.87,0,0,1-.085,1.363l-3.257,7.751c-.182.4-.6,1.432-.6,1.432a4.617,4.617,0,0,0-.231.8,2.024,2.024,0,0,1-2.083,1.543,2.265,2.265,0,0,1-2.28-1.105L414.5,43.3a1.275,1.275,0,0,1,.121-1.311,1.753,1.753,0,0,1,.977-.584c.248-.069.317-.4.317-.4l.163-.514a2.88,2.88,0,0,1-.771-.653c-1.552,2-3.215,1.225-3.215,1.225a2.426,2.426,0,0,1-3.506.257,6.13,6.13,0,0,1-1.5-2.321c-1.843,4.645-4.912,4.482-4.912,4.482-1.705-.051-2.2-.907-2.2-.907-1.517,2.255-4.715,1.466-4.715,1.466a1.628,1.628,0,0,1-1.166.394,1.416,1.416,0,0,1-1.586,1.029,4.835,4.835,0,0,1-3.48-1.44c-1.542,2.458-3.281,1.539-3.281,1.539a2.46,2.46,0,0,1-3.171.584,3.108,3.108,0,0,1-1.021-1.106,9,9,0,0,1-5.872,3.181,1.961,1.961,0,0,1-1.877-.882l-1.1-2.289a4.271,4.271,0,0,1,0-2.52l1.139-3.917a1.47,1.47,0,0,1,.712-2.451.522.522,0,0,0,.334-.4" transform="translate(-372.5 -24.704)" fill="#1a0b08"/>
      <path id="Path-2" d="M383.77,42.869c-2.466,2.555-3.909-.435-3.909-.435-1.277-2.442.754-5.888.754-5.888,1.714-2.966,3.335-2.495,3.335-2.495,1.475.178,1.629,1.943,1.629,1.943,1.243.182.746,1.809.746,1.809a11.7,11.7,0,0,0-.907,2.811,5.7,5.7,0,0,0,1.611-2.151c1.807,1.809,1.807,1.569,1.807,1.569.154-.182-.4-1.072-.4-1.072a6.1,6.1,0,0,1,.2-6.446c1.518-2.2,3.061-.935,3.061-.935,1.114.907.634,3.789.634,3.789-.378,1.363-1.337.721-1.337.721-.061-.506-.29-.489-.29-.489-.79.265-.335,2.151-.335,2.151a16.682,16.682,0,0,0,.831,1.946,3.738,3.738,0,0,1,.429,1c1.321-1.088,1.954-4.688,1.954-4.688a1.341,1.341,0,0,0-.454-1.131c-.686-.721-.154-1.047-.154-1.047a1.111,1.111,0,0,1,.547-.2,1.466,1.466,0,0,0,1.114-1.038c1-3.7,1.175-4.208,1.175-4.208a.924.924,0,0,1,.789-.659,4.817,4.817,0,0,1,1.243,0,.759.759,0,0,1,.473.963l0,0-.771,3.1c-.137.549-.086.617-.086.617.035.145.223.086.223.086a2.732,2.732,0,0,1,1.295-.017.625.625,0,0,1,.3.411l2.313-7.171a.952.952,0,0,1,1.131-.593,4.049,4.049,0,0,1,1.063.678,1.162,1.162,0,0,1,.266,1.251l-1.063,3.557c2.4-.686,2.52,2.563,2.52,2.563a10.411,10.411,0,0,1-2.2,5.958C400.254,42.7,398,39.8,398,39.8a4.172,4.172,0,0,1-4.766,1.613,1.935,1.935,0,0,1-1.466.48c-.182,1.294-1.534.977-1.534.977a6.024,6.024,0,0,1-3.215-1.629c-1.946,2.931-3.249,1.629-3.249,1.629" transform="translate(-371.509 -24.647)" fill="#fff"/>
      <path id="Path-3" d="M383.718,41.39c-1.234,1.894-2.461,1.174-2.461,1.174-1.895-1.029-1.378-3.625-1.378-3.625.786-4.3,3.213-5.238,3.213-5.238,2.057-.531,2.057,1.886,2.057,1.886.369,0,.746.095.771.643a3.3,3.3,0,0,1-.334,1.432,7.6,7.6,0,0,0-.7,2.314c0,.789.625.24.625.24a6.013,6.013,0,0,0,1.6-1.8c1.621,1.688,1.928,1.105,1.928,1.105.463-.531-.309-1.543-.309-1.543a5.586,5.586,0,0,1,.224-6.121c1.157-1.491,2.022-.994,2.022-.994,1.125.48.994,2.392.994,2.392.112,2.2-.737,1.766-.737,1.766-.514-1.346-1.174-.29-1.174-.29a3.23,3.23,0,0,0-.112,2.442,23.016,23.016,0,0,0,1.089,2.409c.677,1.56-.017,2.006-.017,2.006-1.929.609-4.081-1.766-4.081-1.766-2.254,3.514-3.223,1.569-3.223,1.569" transform="translate(-371.455 -23.836)" fill="#fff"/>
      <path id="Path-4" d="M391.608,40.931c-.96.771-1.621.4-1.621.4,1.929-1.474,2.5-5.315,2.5-5.315a1.6,1.6,0,0,0-.661-1.56c-.334-.274-.017-.385-.017-.385,1.4-.309,1.621-1.063,1.621-1.063.626-2.023,1.192-4.381,1.192-4.381a.772.772,0,0,1,.625-.566,3.312,3.312,0,0,1,.737,0c.609.017.411.643.411.643l-.825,3.145c-.24,1.046.309,1,.309,1l1.209-.112c.446.017.206.266.206.266a4.255,4.255,0,0,1-.435.265,6.278,6.278,0,0,0-1.329.8,6.11,6.11,0,0,0-1.491,2.8,17.339,17.339,0,0,0-.4,1.7c-.189,1.32.926.926.926.926a4.876,4.876,0,0,0,2.279-2.52L400.4,25.922a.637.637,0,0,1,.531-.455c.36.017.994.575.994.575a.982.982,0,0,1,.223.865l-1.328,4.466c1.2-.865,1.834-.29,1.834-.29,1.389.986.832,3.36.832,3.36a9.351,9.351,0,0,1-2.752,5.186,2.818,2.818,0,0,1-1.971.822c-1.971-.1-2.143-1.518-2.143-1.518-2.118,3.318-5.015,2-5.015,2" transform="translate(-370.002 -24.595)" fill="#fff"/>
      <path id="Path-5" d="M406.821,37.944c-2.219,2.375-3.754-.163-3.754-.163-1.552-2.922.84-6.549.84-6.549,1.886-2.7,3.437-2.065,3.437-2.065,1.218.368,1.312,1.92,1.312,1.92,1.243.223.815,1.671.815,1.671a7.9,7.9,0,0,1-.455,1.39c-.539,1.208-.454,1.543-.454,1.543.231.042.985-1.217.985-1.217a7.953,7.953,0,0,0,.84-2.04,23.77,23.77,0,0,1,1.723-3.987,1.226,1.226,0,0,1,1.27-.583,2.193,2.193,0,0,1,1.114,1.158,1.323,1.323,0,0,1-.154,1.27,22.449,22.449,0,0,0-1.749,4.055c-.223.746-.026.9-.026.9.369.154.935-.514.935-.514a2.991,2.991,0,0,0,.581-1.038l1.45-3.061a1,1,0,0,1,.935-.653,3.467,3.467,0,0,1,1.4.385c.7.523.257,1.586.257,1.586l-3.575,8.5a8.619,8.619,0,0,0-.48,1.312,1.716,1.716,0,0,1-1.954,1.423c-1.705-.206-1.56-1.08-1.56-1.08.025-.435.522-.634.522-.634a5.406,5.406,0,0,0,.634-.249c.223-.111.318-.514.318-.514.72-2.134,1.037-3.146,1.037-3.146a2.248,2.248,0,0,1-2.938-.926c-2.263,2.554-3.3,1.312-3.3,1.312" transform="translate(-368.208 -24.256)" fill="#fff"/>
      <path id="Path-6" d="M406.784,37.214c-1.183,1.766-2.358,1.226-2.358,1.226-2.288-1.021-1.4-4.243-1.4-4.243,1.08-4.535,3.762-4.73,3.762-4.73,1.4-.224,1.475,2.013,1.475,2.013,1.25-.206.581,1.578.581,1.578-1.243,3.24-.522,3.171-.522,3.171.994-.051,2.1-2.949,2.1-2.949a28.587,28.587,0,0,1,2.085-4.8.668.668,0,0,1,.933-.145.89.89,0,0,1,.071.059c.9.84.566,1.4.566,1.4a22.709,22.709,0,0,0-2,4.663c-.3,1.158.541,1.175.541,1.175.934-.069,1.526-1.27,1.526-1.27,1.389-2.83,1.689-3.626,1.689-3.626a.708.708,0,0,1,.907-.361c.421.112.8.223.8.223a.81.81,0,0,1,.181.994l-3.962,9.558c-.154.4-.248.686-.248.686a1.462,1.462,0,0,1-1.569.883c-1.158-.274-1.08-.609-1.08-.609.017-.274.454-.36.454-.36.866-.3.935-.77.935-.77.883-2.35,1.432-4.391,1.432-4.391-2.8,2-3.55-.926-3.55-.926-2.442,3.609-3.343,1.552-3.343,1.552" transform="translate(-368.164 -24.204)" fill="#fff"/>
      <path id="Path-7" d="M382.226,39.909s-.411.584-.832.438-.307-1.491-.307-1.491a7.414,7.414,0,0,1,2.109-3.986c.659-.368.806.592.806.592.051,1.654-1.775,4.449-1.775,4.449" transform="translate(-371.275 -23.264)" fill="#fff"/>
      <path id="Path-8" d="M381.988,37.216c1.1-2.263,1.474-2.057,1.474-2.057.4.435-.583,2.554-.583,2.554-1.088,2.314-1.354,2.186-1.354,2.186-.1-.069-.12-.282-.086-.557a6.66,6.66,0,0,1,.549-2.127" transform="translate(-371.225 -23.212)" fill="#1a0b08"/>
      <path id="Path-9" d="M397.128,32.248c-.9,2.9-1.158,3.609-1.158,3.609-1.08,2.321-2.349,2.321-2.349,2.321-.206-.094,0-.977,0-.977a11.089,11.089,0,0,1,.925-2.827A2.989,2.989,0,0,1,395.924,33Z" transform="translate(-369.496 -23.627)" fill="#1a0b08"/>
      <path id="Path-10" d="M374.277,37.949c-.969-.926-.111-1.611-.111-1.611a1.4,1.4,0,0,1,.633-.36.767.767,0,0,0,.472-.653c1.345-4.655,1.834-6.026,1.834-6.026a1.82,1.82,0,0,1,1.611-1.319,1.1,1.1,0,0,1,.968.686.4.4,0,0,0,.5.223l2.5-.754c1.346-.282,1.518.686,1.518.686a2.142,2.142,0,0,1-.541,1.742,1.635,1.635,0,0,1-.951.538,12.835,12.835,0,0,0-2.735.926c-.368.163-.4.4-.4.4l-.746,2.168c1.963-.745,2.2-.137,2.2-.137.745.9-.12,2.177-.12,2.177-.515.874-3.053,1.534-3.053,1.534l-.857,3.173,2.127-.634c1.774-.36,1.029,1.517,1.029,1.517a9.281,9.281,0,0,1-2.821,2.169c-2.135.994-2.606.865-2.606.865-2.349-.042-1.705-2.562-1.705-2.562Z" transform="translate(-372.438 -24.236)" fill="#fff"/>
      <path id="Path-11" d="M375.567,35.575l1.861-6.181c.471-1.217,1.286-1.046,1.286-1.046a.85.85,0,0,1,.609.505c.248.6.96.369.96.369l2.52-.754a.708.708,0,0,1,.935.359c.009.019.017.04.025.062a1.53,1.53,0,0,1-.215,1.054,1.831,1.831,0,0,1-.907.7l-1.974.531c-1.217.343-1.466.781-1.466.781l-.968,3.162,1.577-.5a.877.877,0,0,1,.926.086c.429.661-.206,1.543-.206,1.543a2.41,2.41,0,0,1-1.226.883l-1.858.677-.96,3.55c-.2.565.463.309.463.309l2.254-.634a.508.508,0,0,1,.661.265.992.992,0,0,1-.154.771A11.1,11.1,0,0,1,375.4,44.7c-1.509.369-1.971-.513-1.971-.513a3.444,3.444,0,0,1,.069-2.136l1.158-4.1c.051-.206-.026-.265-.026-.265-.653-.386-.411-.849-.411-.849a1.455,1.455,0,0,1,.8-.609.99.99,0,0,0,.558-.659" transform="translate(-372.391 -24.185)" fill="#fff"/>
      <path id="Path-12" d="M404.519,36.518c-1.08-.634.472-3.849.472-3.849,1.183-2.331,1.85-1.742,1.85-1.742.9.885-.677,3.7-.677,3.7-1.08,2.16-1.646,1.895-1.646,1.895" transform="translate(-367.981 -23.825)" fill="#fff"/>
      <path id="Path-13" d="M405.119,33.316c1.1-2.263,1.474-2.057,1.474-2.057.4.435-.583,2.554-.583,2.554C404.922,36.127,404.656,36,404.656,36c-.1-.069-.12-.282-.086-.557a6.911,6.911,0,0,1,.549-2.126" transform="translate(-367.921 -23.769)" fill="#1a0b08"/>
      <path id="Path-14" d="M400.157,31.3c1.311.686-.137,4.209-.137,4.209-1.269,2.811-2.1,2.478-2.1,2.478-.926-.446.8-4.623.8-4.623.771-2.253,1.44-2.064,1.44-2.064" transform="translate(-368.908 -23.763)" fill="#fff"/>
      <path id="Path-15" d="M398.722,34.364c.977-2.735,1.295-2.7,1.295-2.7.162.078.171.377.206.746a5.158,5.158,0,0,1-.429,2.339c-.789,2.443-1.723,2.777-1.723,2.777-.059.026-.042-.257-.042-.257a8.5,8.5,0,0,1,.694-2.906" transform="translate(-368.854 -23.71)" fill="#1a0b08"/>
      <path id="Shape-2" d="M407.388,40.29a.556.556,0,0,1,.563-.549h0a.549.549,0,1,1,0,1.1h0a.552.552,0,0,1-.566-.536Z" transform="translate(-367.516 -22.556)" fill="#1a0b08"/>
    </g>
  </g>
</svg>
