<svg xmlns="http://www.w3.org/2000/svg" xmlns:xlink="http://www.w3.org/1999/xlink" width="80" height="80" viewBox="0 0 80 80">
  <defs>
    <clipPath id="clip-path">
      <rect id="Прямоугольник_290" data-name="Прямоугольник 290" width="80" height="80" transform="translate(-0.307)" fill="#1c1c21"/>
    </clipPath>
  </defs>
  <g id="Группа_масок_103" data-name="Группа масок 103" transform="translate(0.307)" clip-path="url(#clip-path)">
    <g id="Grupo_31" data-name="Grupo 31" transform="translate(8.272 33.364)">
      <g id="Group">
        <g id="Group-2">
          <path id="Path" d="M277.5,477.9h2.169v4.023H283.8V477.9h2.169v10.414H283.8v-4.379h-4.127v4.378H277.5Z" transform="translate(-277.5 -477.902)" fill="#fff"/>
          <path id="Path-2" d="M287.226,477.9h2.168v10.414h-2.168Z" transform="translate(-276.111 -477.902)" fill="#fff"/>
          <path id="Shape" d="M295.408,488.318h-4V477.9h3.771a6.918,6.918,0,0,1,1.906.222,3.126,3.126,0,0,1,1.184.6,1.911,1.911,0,0,1,.6.89,3.413,3.413,0,0,1,.168,1.109,2.7,2.7,0,0,1-.262,1.153,2.2,2.2,0,0,1-1,.922,3.9,3.9,0,0,1,.765.512,2.212,2.212,0,0,1,.472.577,2.088,2.088,0,0,1,.23.629,3.324,3.324,0,0,1,.063.639,3.7,3.7,0,0,1-.2,1.237,2.378,2.378,0,0,1-.661,1.006,3.328,3.328,0,0,1-1.2.67A5.783,5.783,0,0,1,295.408,488.318Zm-1.887-4.526v2.827h1.834v-.01h.007a3.032,3.032,0,0,0,.883-.1,1.431,1.431,0,0,0,.576-.294.956.956,0,0,0,.3-.459,2.074,2.074,0,0,0,.094-.6,1.349,1.349,0,0,0-.367-1.017,1.87,1.87,0,0,0-1.288-.345Zm1.906-1.771v.01h0a1.653,1.653,0,0,0,1.182-.323,1.229,1.229,0,0,0,.325-.922.986.986,0,0,0-.419-.912,2.7,2.7,0,0,0-1.4-.272h-1.571v2.419Z" transform="translate(-275.513 -477.902)" fill="#fff"/>
          <path id="Shape-2" d="M304.116,488.318h-4l.021-10.414h3.751a6.913,6.913,0,0,1,1.906.222,3.126,3.126,0,0,1,1.184.6,1.922,1.922,0,0,1,.6.89,3.443,3.443,0,0,1,.168,1.109,2.686,2.686,0,0,1-.263,1.153,2.2,2.2,0,0,1-1,.922,3.91,3.91,0,0,1,.766.512,2.207,2.207,0,0,1,.471.577,1.953,1.953,0,0,1,.23.629,3.239,3.239,0,0,1,.063.639,3.641,3.641,0,0,1-.2,1.237,2.3,2.3,0,0,1-.659,1.006,3.332,3.332,0,0,1-1.206.67A5.778,5.778,0,0,1,304.116,488.318Zm-1.9-4.526v2.827h1.833v-.01h.007a3.02,3.02,0,0,0,.882-.1,1.428,1.428,0,0,0,.577-.294.967.967,0,0,0,.3-.461,2.07,2.07,0,0,0,.094-.6,1.346,1.346,0,0,0-.367-1.016,1.869,1.869,0,0,0-1.288-.346Zm1.906-1.771v.01h0a1.649,1.649,0,0,0,1.181-.323,1.22,1.22,0,0,0,.325-.922.984.984,0,0,0-.419-.912,2.693,2.693,0,0,0-1.4-.272h-1.57v2.419Z" transform="translate(-274.269 -477.902)" fill="#fff"/>
          <path id="Path-3" d="M319.564,479.787h-3.133v-1.874h8.454v1.874h-3.133v8.528h-2.178v-8.528Z" transform="translate(-271.938 -477.901)" fill="#fff"/>
          <path id="Path-4" d="M328.236,479.787H325.1v-1.874h8.454v1.874h-3.134v8.528h-2.178v-8.528Z" transform="translate(-270.7 -477.901)" fill="#fff"/>
        </g>
        <path id="Path-5" d="M308.832,477.9h7.123v1.854H311.01v2.285h4.65v1.874h-4.65v2.577h4.935v1.855h-7.113Z" transform="translate(-273.024 -477.902)" fill="#fff"/>
      </g>
      <g id="Group-3" transform="translate(14.102 14.583)">
        <path id="Path-6" d="M290.876,492.917a.453.453,0,0,0,.136.272.541.541,0,0,0,.346.094.446.446,0,0,0,.272-.063.231.231,0,0,0,.095-.177.19.19,0,0,0-.063-.146.741.741,0,0,0-.231-.095l-.44-.085a1.565,1.565,0,0,1-.817-.354.831.831,0,0,1-.251-.641,1.07,1.07,0,0,1,.094-.461,1.03,1.03,0,0,1,.273-.335,1.072,1.072,0,0,1,.43-.2,2.325,2.325,0,0,1,.576-.063,1.888,1.888,0,0,1,.586.083,1.445,1.445,0,0,1,.419.21,1.1,1.1,0,0,1,.251.323,1.2,1.2,0,0,1,.1.389l-1,.094a.41.41,0,0,0-.137-.241.48.48,0,0,0-.261-.061.519.519,0,0,0-.262.053.194.194,0,0,0-.083.157.145.145,0,0,0,.063.126.576.576,0,0,0,.23.085l.43.094a2.573,2.573,0,0,1,.5.155.96.96,0,0,1,.335.21.9.9,0,0,1,.189.272.933.933,0,0,1,.053.354.973.973,0,0,1-.367.807,1.7,1.7,0,0,1-1.069.282,2.134,2.134,0,0,1-.618-.083,1.224,1.224,0,0,1-.439-.222,1.04,1.04,0,0,1-.273-.363,1.327,1.327,0,0,1-.115-.482Z" transform="translate(-289.839 -490.663)" fill="#fff"/>
        <path id="Shape-3" d="M296.452,493.972h-.985v-3.226h1.257a1.892,1.892,0,0,1,.639.094.87.87,0,0,1,.409.241.731.731,0,0,1,.21.355,1.5,1.5,0,0,1,.063.439,1.439,1.439,0,0,1-.063.441.882.882,0,0,1-.21.354,1.08,1.08,0,0,1-.408.241,2.173,2.173,0,0,1-.64.1h-.272v.965Zm.01-2.429v.669h.272a.446.446,0,0,0,.314-.083.416.416,0,0,0,0-.5.472.472,0,0,0-.314-.082Z" transform="translate(-289.035 -490.651)" fill="#fff"/>
        <path id="Shape-4" d="M302.406,494.069a2.006,2.006,0,0,1-.691-.115,1.289,1.289,0,0,1-.5-.335,1.523,1.523,0,0,1-.314-.535,2.433,2.433,0,0,1-.1-.7,2.212,2.212,0,0,1,.1-.712,1.49,1.49,0,0,1,.314-.545,1.459,1.459,0,0,1,.512-.345,1.835,1.835,0,0,1,.714-.115,1.953,1.953,0,0,1,.691.115,1.387,1.387,0,0,1,.5.335,1.566,1.566,0,0,1,.315.525,2.432,2.432,0,0,1,.1.7,2.147,2.147,0,0,1-.1.712,1.532,1.532,0,0,1-.315.544,1.459,1.459,0,0,1-.513.345A1.827,1.827,0,0,1,302.406,494.069Zm.01-2.494c-.375,0-.566.271-.566.807s.2.807.566.807.566-.272.566-.807S302.8,491.575,302.416,491.575Z" transform="translate(-288.274 -490.663)" fill="#fff"/>
        <path id="Shape-5" d="M307.742,493.974h-.963v-3.227h1.383a2.023,2.023,0,0,1,.618.083,1.1,1.1,0,0,1,.408.222.771.771,0,0,1,.222.335,1.924,1.924,0,0,1,.053.419,1.184,1.184,0,0,1-.125.555,1.075,1.075,0,0,1-.346.377l.669,1.234h-1.048l-.513-1.037h-.355v1.037Zm-.01-2.474v.693h.345a.512.512,0,0,0,.326-.085.318.318,0,0,0,.094-.262.357.357,0,0,0-.094-.262.46.46,0,0,0-.326-.085Z" transform="translate(-287.419 -490.651)" fill="#fff"/>
        <path id="Path-7" d="M313.033,491.626h-.9v-.88h2.829v.88h-.9v2.346h-1.026Z" transform="translate(-286.654 -490.651)" fill="#fff"/>
        <path id="Path-8" d="M318.6,492.917a.454.454,0,0,0,.136.272.541.541,0,0,0,.346.094.445.445,0,0,0,.272-.063.231.231,0,0,0,.095-.177.19.19,0,0,0-.063-.146.729.729,0,0,0-.231-.095l-.44-.083a1.563,1.563,0,0,1-.817-.355.832.832,0,0,1-.251-.641.95.95,0,0,1,.367-.8,1.072,1.072,0,0,1,.43-.2,2.3,2.3,0,0,1,.566-.063,1.888,1.888,0,0,1,.586.083,1.46,1.46,0,0,1,.419.21,1.1,1.1,0,0,1,.251.323,1.2,1.2,0,0,1,.1.389l-1,.094a.41.41,0,0,0-.137-.241.485.485,0,0,0-.261-.061.519.519,0,0,0-.262.053.2.2,0,0,0-.085.157.148.148,0,0,0,.064.126.57.57,0,0,0,.23.085l.43.094a2.6,2.6,0,0,1,.5.155.959.959,0,0,1,.335.21.9.9,0,0,1,.189.272.934.934,0,0,1,.053.354.973.973,0,0,1-.367.807,1.7,1.7,0,0,1-1.069.282,2.134,2.134,0,0,1-.618-.083,1.229,1.229,0,0,1-.44-.222,1.054,1.054,0,0,1-.273-.363,1.6,1.6,0,0,1-.114-.482Z" transform="translate(-285.88 -490.663)" fill="#fff"/>
      </g>
      <path id="Shape-6" d="M320.544,491.438a.342.342,0,0,1-.345-.339v-.006a.346.346,0,1,1,.345.345Zm0-.661a.308.308,0,0,0-.314.3v.014a.306.306,0,0,0,.3.314h.007a.32.32,0,0,0,.314-.314.3.3,0,0,0-.3-.313Zm-.073.483h-.063V490.9h.157a.163.163,0,0,1,.105.042.1.1,0,0,1,.032.073.1.1,0,0,1-.085.1l.094.136h-.083l-.083-.126h-.073v.126Z" transform="translate(-271.4 -476.068)" fill="#fff"/>
      <g id="Grupo_30" data-name="Grupo 30" transform="translate(49.008 14.836)">
        <path id="Path-9" d="M320.382,490.884h.157a.154.154,0,0,1,.105.041.093.093,0,0,1,.032.073h0a.1.1,0,0,1-.083.107l.094.133H320.6l-.086-.125h-.073v.125h-.063Z" transform="translate(-320.382 -490.884)" fill="#fff"/>
        <path id="Path-10" d="M320.531,491.052c.042,0,.073-.021.073-.053h0c0-.031-.031-.051-.073-.051h-.094v.115h.094Z" transform="translate(-320.374 -490.875)" fill="#fff"/>
      </g>
    </g>
  </g>
</svg>
