<svg xmlns="http://www.w3.org/2000/svg" xmlns:xlink="http://www.w3.org/1999/xlink" width="80" height="80" viewBox="0 0 80 80">
  <defs>
    <clipPath id="clip-path">
      <rect id="Прямоугольник_293" data-name="Прямоугольник 293" width="80" height="80" transform="translate(0.078)" fill="#1c1c21"/>
    </clipPath>
  </defs>
  <g id="Группа_масок_106" data-name="Группа масок 106" transform="translate(-0.078)" clip-path="url(#clip-path)">
    <g id="Grupo_204" data-name="Grupo 204" transform="translate(20.134 22.206)">
      <path id="Trazado_58" data-name="Trazado 58" d="M397.616,312.111v-7.289h.893c1.906,0,3.813,0,5.718,0a1.657,1.657,0,0,0,.806-.1c.243-.149.534-.456.536-.7s-.289-.543-.53-.693a1.624,1.624,0,0,0-.8-.114c-4.337-.006-8.674-.024-13.01.017a5.6,5.6,0,0,0-2.151.469,2.581,2.581,0,0,0-1.618,2.65,2.506,2.506,0,0,0,1.926,2.426,24.926,24.926,0,0,0,3.33.458v-1.869h-2.837c.551-.885,1-1.627,1.479-2.344a.684.684,0,0,1,.5-.178c1.239-.015,2.479-.008,3.786-.008v7.423c-2.705-.159-5.462.414-8.074-.711a6.115,6.115,0,0,1-3.975-5.275c-.229-2.629,1.9-5.149,4.789-5.869a11.694,11.694,0,0,1,2.7-.349c4.474-.035,8.95-.026,13.424,0a11.3,11.3,0,0,1,2.294.266,3.022,3.022,0,0,1,2.589,2.369,2.77,2.77,0,0,1-1.427,3.265,2.919,2.919,0,0,1,1.733,3.314,3.143,3.143,0,0,1-3.281,2.815C403.52,312.2,400.621,312.111,397.616,312.111Zm2.4-3c1.214,0,2.391.009,3.567,0a5.062,5.062,0,0,0,1.466-.126.984.984,0,0,0,.56-.747c0-.253-.368-.705-.587-.713-1.663-.061-3.329-.033-5.007-.033Z" transform="translate(-376.632 -287.916)" fill="#fff"/>
      <path id="Trazado_59" data-name="Trazado 59" d="M386.039,293.193a17.6,17.6,0,0,0-5.587,7.383,15.864,15.864,0,0,0,5.73,18.957c5.989,4.326,12.527,4.969,19.432,2.544a2.116,2.116,0,0,1,.894-.187c-.514.249-1.024.513-1.547.744s-1.069.449-1.614.64a17.631,17.631,0,0,1-1.739.531c-6.969,1.671-13.337.429-18.7-4.4-7.407-6.666-7.143-17.737.416-24.4.815-.717,1.712-1.339,2.571-2.007Z" transform="translate(-377.5 -288.921)" fill="#fff"/>
      <path id="Trazado_60" data-name="Trazado 60" d="M388.057,291.75a18.373,18.373,0,0,1,9.421-2.313,19.669,19.669,0,0,1,13.551,5.542c6.881,6.679,6.562,17.24-.677,23.743-.967.869-2.034,1.625-3.062,2.384a46.887,46.887,0,0,0,3.647-4.01c6.2-8.577,3.235-19.695-6.489-24.493a20.319,20.319,0,0,0-15.773-1.039C388.47,291.63,388.263,291.687,388.057,291.75Z" transform="translate(-375.992 -289.43)" fill="#fff"/>
    </g>
  </g>
</svg>
