<svg xmlns="http://www.w3.org/2000/svg" xmlns:xlink="http://www.w3.org/1999/xlink" width="80" height="80" viewBox="0 0 80 80">
  <defs>
    <clipPath id="clip-path">
      <rect id="Прямоугольник_310" data-name="Прямоугольник 310" width="80" height="80" fill="#1c1c21"/>
    </clipPath>
  </defs>
  <g id="Группа_масок_122" data-name="Группа масок 122" clip-path="url(#clip-path)">
    <g id="Grupo_198" data-name="Grupo 198" transform="translate(14.289 27.407)">
      <path id="Trazado_50" data-name="Trazado 50" d="M119.2,303.988v6.074c0,.81-.346,1.158-1.149,1.158-.6,0-1.2,0-1.807,0a.957.957,0,0,1-1.025-.886.84.84,0,0,1,0-.131c-.008-.443,0-.888,0-1.333a1.417,1.417,0,0,0-.97-1.381q-1.041-.382-2.085-.757a1.354,1.354,0,0,0-1.646.506q-1.128,1.522-2.253,3.049a2.136,2.136,0,0,1-1.845.937c-1.106-.01-2.213,0-3.319,0-.218,0-.462.019-.568-.221s.058-.411.2-.579l9.736-11.553,1.07-1.267a2.249,2.249,0,0,1,1.765-.825c.938-.01,1.877-.008,2.815-.006a.966.966,0,0,1,1.074.843.946.946,0,0,1,0,.241q0,3.067,0,6.133Zm-3.505-3.437c-.048-.008-.064-.015-.066-.011-.7.907-1.406,1.807-2.085,2.728a.606.606,0,0,0,.11.85.592.592,0,0,0,.162.089,6.227,6.227,0,0,0,.608.232c.656.234,1.042-.026,1.079-.715.025-.482.065-.966.095-1.448.034-.577.065-1.153.1-1.725Z" transform="translate(-102.503 -293.584)" fill="#fff"/>
      <path id="Trazado_51" data-name="Trazado 51" d="M129.64,303.995v-6.1a.983.983,0,0,1,1.1-1.118q.9-.005,1.807,0a.981.981,0,0,1,1.095.853.957.957,0,0,1,0,.249c0,1.579,0,3.16.006,4.739,0,.226-.083.552.2.615.143.032.377-.2.519-.352.391-.431.752-.889,1.13-1.333a2.229,2.229,0,0,1,1.763-.823q1.2,0,2.4,0a1.457,1.457,0,0,1,.323.022.3.3,0,0,1,.282.315.307.307,0,0,1-.067.175,1.674,1.674,0,0,1-.241.3q-1.106,1.178-2.215,2.35a1.258,1.258,0,0,0-.152,1.719q1.543,2.333,3.09,4.665c.141.215.328.431.186.7s-.443.248-.71.248c-.869,0-1.737.006-2.607,0a1.73,1.73,0,0,1-1.578-.922c-.377-.659-.744-1.323-1.125-1.983a1.886,1.886,0,0,0-.342-.441c-.262-.242-.511-.2-.617.131a6.116,6.116,0,0,0-.233,1.181c-.035.321,0,.65-.009.977a.969.969,0,0,1-.867,1.061,1.03,1.03,0,0,1-.206,0q-.946,0-1.895,0a.955.955,0,0,1-1.037-.866.88.88,0,0,1,0-.165Q129.637,307.09,129.64,303.995Z" transform="translate(-98.627 -293.583)" fill="#fff"/>
      <path id="Trazado_52" data-name="Trazado 52" d="M144.634,300.212c1.1,0,2.192,0,3.288,0a.961.961,0,0,1,1.081.822,1,1,0,0,1,0,.248c0,.247.006.494,0,.741a.925.925,0,0,1-.9.946h-.061c-1.125.006-2.251-.009-3.376.009a1.81,1.81,0,0,0-.766.173.506.506,0,0,0-.009.95,1.562,1.562,0,0,0,.677.165c.888.017,1.778.035,2.665,0,.8-.034,1.368.328,1.286,1.306,0,.058,0,.118,0,.178a.954.954,0,0,1-1.014,1.025c-.947.007-1.895-.01-2.843.01a1.815,1.815,0,0,0-.766.173.506.506,0,0,0,0,.95,1.73,1.73,0,0,0,.737.163c1.075.017,2.152.006,3.229.008a.992.992,0,0,1,1.129,1.126c0,.187,0,.375,0,.562a.947.947,0,0,1-.935.96h-.025c-2.054.007-4.109.014-6.162,0a1.749,1.749,0,0,1-1.475-.811q-1.634-2.431-3.239-4.885a1.231,1.231,0,0,1,.115-1.535c.8-.875,1.6-1.75,2.424-2.6a2.244,2.244,0,0,1,1.656-.678C142.442,300.21,143.538,300.212,144.634,300.212Z" transform="translate(-97.584 -293.092)" fill="#fff"/>
      <path id="Trazado_53" data-name="Trazado 53" d="M117.613,303.976v-6.1a.979.979,0,0,1,.841-1.1.966.966,0,0,1,.25,0q.917-.007,1.837,0a.98.98,0,0,1,1.081.866,1.006,1.006,0,0,1,0,.219q0,6.132,0,12.262a.976.976,0,0,1-1.1,1.1c-.632,0-1.263,0-1.895,0a.955.955,0,0,1-1.017-.888.869.869,0,0,1,0-.134Q117.61,307.086,117.613,303.976Z" transform="translate(-100.346 -293.583)" fill="#fff"/>
      <path id="Trazado_54" data-name="Trazado 54" d="M121.645,303.985v-6.071c0-.787.352-1.138,1.137-1.141.592,0,1.185,0,1.777,0a.964.964,0,0,1,1.081,1.078q0,6.144,0,12.289a.962.962,0,0,1-.832,1.077.991.991,0,0,1-.247,0H122.7a.953.953,0,0,1-1.05-.843.976.976,0,0,1,0-.2Q121.642,307.08,121.645,303.985Z" transform="translate(-99.769 -293.584)" fill="#fff"/>
      <path id="Trazado_55" data-name="Trazado 55" d="M129.678,305.476v4.145a.976.976,0,0,1-1.089,1.1c-.631,0-1.263,0-1.895,0a.955.955,0,0,1-1.026-.877.934.934,0,0,1,0-.138q-.009-4.234,0-8.469a.95.95,0,0,1,.885-1.011,1.008,1.008,0,0,1,.144,0q.977-.007,1.954,0a.955.955,0,0,1,1.027.877.991.991,0,0,1,0,.165Q129.68,303.373,129.678,305.476Z" transform="translate(-99.194 -293.089)" fill="#fff"/>
      <path id="Trazado_56" data-name="Trazado 56" d="M136.791,299.1l1.456-.823-.219-.19c.139-.059.259-.122.385-.161a11.555,11.555,0,0,0,1.967-.867c1.024-.543,2.111-.97,3.173-1.442.315-.141.632-.277.955-.4a3.12,3.12,0,0,0,1.2-.774,1.215,1.215,0,0,1,1.613-.269c.33.161.63.386,1.016.629a1.988,1.988,0,0,0-1.32,1.309c-.08.19-.167.378-.241.571a3.567,3.567,0,0,1-3.207,2.249,2.927,2.927,0,0,1-1.749-.282,5.579,5.579,0,0,0-1.009-.333,2.765,2.765,0,0,0-1.661.054c-.728.246-1.461.475-2.192.711A1.412,1.412,0,0,1,136.791,299.1Z" transform="translate(-97.605 -293.981)" fill="#fff"/>
      <path id="Trazado_57" data-name="Trazado 57" d="M127.667,299.6c-.336,0-.671.007-1.007,0a.96.96,0,0,1-.991-.929c0-.011,0-.023,0-.034-.013-.3-.013-.593,0-.888a.936.936,0,0,1,.911-.961h.019c.71-.025,1.423-.024,2.133,0a.944.944,0,0,1,.949.939c0,.022,0,.043,0,.064,0,.287.008.573,0,.859a.953.953,0,0,1-.942.95c-.355.014-.711,0-1.066,0Z" transform="translate(-99.195 -293.584)" fill="#fff"/>
    </g>
  </g>
</svg>
