<svg xmlns="http://www.w3.org/2000/svg" xmlns:xlink="http://www.w3.org/1999/xlink" width="80" height="80" viewBox="0 0 80 80">
  <defs>
    <clipPath id="clip-path">
      <rect id="Прямоугольник_291" data-name="Прямоугольник 291" width="80" height="80" transform="translate(0.307)" fill="#1c1c21"/>
    </clipPath>
  </defs>
  <g id="Группа_масок_104" data-name="Группа масок 104" transform="translate(-0.307)" clip-path="url(#clip-path)">
    <g id="Grupo_24" data-name="Grupo 24" transform="translate(23.157 22.857)">
      <path id="Exclusión_8" data-name="Exclusión 8" d="M37.142,234.286a17.089,17.089,0,1,1,6.673-1.347A17.028,17.028,0,0,1,37.142,234.286ZM24.93,225.665a3.557,3.557,0,0,0,.6.041,7.939,7.939,0,0,0,5.6-2.6c2.837-2.839,4.786-7.721,5.8-14.511h-3.97v0a32.856,32.856,0,0,1-1.338,6.543,14.065,14.065,0,0,1-2.262,4.5,4.886,4.886,0,0,1-3.847,2.047h-.057l-.521,3.976Zm12.765-17.106L34.947,225.2h5.662c5.493,0,8.705-4.3,9.367-8.295a7.648,7.648,0,0,0-1.419-6.217,6.569,6.569,0,0,0-5.2-2.134Zm2.583,12.877h0a6.307,6.307,0,0,1-.869-.054l1.5-9.11h0a6.966,6.966,0,0,1,.773-.04,4.87,4.87,0,0,1,3.667,1.331,3.878,3.878,0,0,1,.627,3.274,5.11,5.11,0,0,1-2.5,3.833,6.609,6.609,0,0,1-3.2.765Z" transform="translate(-20 -200)" fill="#fff"/>
    </g>
  </g>
</svg>
