<svg xmlns="http://www.w3.org/2000/svg" xmlns:xlink="http://www.w3.org/1999/xlink" width="80" height="80" viewBox="0 0 80 80">
  <defs>
    <clipPath id="clip-path">
      <rect id="Прямоугольник_797" data-name="Прямоугольник 797" width="80" height="80" transform="translate(1365 3779)" fill="#1c1c21"/>
    </clipPath>
  </defs>
  <g id="Группа_масок_196" data-name="Группа масок 196" transform="translate(-1365 -3779)" clip-path="url(#clip-path)">
    <g id="Сгруппировать_583" data-name="Сгруппировать 583" transform="translate(1376.429 3812.414)">
      <path id="Контур_1785" data-name="Контур 1785" d="M303.053,395.89a6.325,6.325,0,0,1-1.213,3.894,5.978,5.978,0,0,1-2.814,2.154,6.953,6.953,0,0,1-2.146.463,8.064,8.064,0,0,1-1.727-.139,6.024,6.024,0,0,1-3.5-1.846,6.181,6.181,0,0,1-1.663-3.4,7.314,7.314,0,0,1,.154-3.127,6.215,6.215,0,0,1,1.712-2.878,6.4,6.4,0,0,1,2.768-1.539,7.443,7.443,0,0,1,2.736-.184,6.327,6.327,0,0,1,3.2,1.263,6.433,6.433,0,0,1,2.488,5.342m-11.648-.077a8.849,8.849,0,0,0,0,.921,6.429,6.429,0,0,0,.528,1.926,5.981,5.981,0,0,0,2.334,2.833,4.269,4.269,0,0,0,2.955.553,4.55,4.55,0,0,0,3-1.954,7.234,7.234,0,0,0,1.305-3.173,6.8,6.8,0,0,0-.107-2.693,6.642,6.642,0,0,0-.747-1.925,5.433,5.433,0,0,0-2.642-2.448,4.026,4.026,0,0,0-1.853-.309,4.68,4.68,0,0,0-3.375,1.971,6.578,6.578,0,0,0-1.4,4.3m18.181,11.821v2.218h1.323v.369h-1.742v-2.587Zm6.938,0,.793,1.2.467.737-.016-.877v-1.063h.406v2.587h-.422l-.793-1.262-.467-.71.016.739v1.232H316.1v-2.587Zm-3.345,2.587h.406v-2.587h-.406Zm-7.184-2.587a.787.787,0,0,1,.777.771.767.767,0,0,1-.513.723l.622,1.093h-.466l-.561-1.047h-.622v1.047h-.4v-2.587Zm-.763,1.17h.747a.4.4,0,0,0,.374-.4c0-.293-.25-.386-.5-.386h-.622Zm-2.8-1.17v.385h-1.415v.755h1.214v.37h-1.214v.707h1.447v.369H300.6v-2.587Zm-5.115,0a.724.724,0,0,1,.777.694.541.541,0,0,1-.374.554.632.632,0,0,1,.512.6.706.706,0,0,1-.761.723h-1.182V407.62h1.027Zm-.623,1.11h.653a.324.324,0,0,0,.342-.338.37.37,0,0,0-.371-.386h-.638v.725Zm.777,1.109a.385.385,0,0,0,.358-.37.379.379,0,0,0-.389-.369h-.746v.755h.777Zm38.247-14.01a5.938,5.938,0,0,1-.591,2.91,6.059,6.059,0,0,1-2.614,2.818,6.972,6.972,0,0,1-3.187.831,7.172,7.172,0,0,1-2.614-.415,5.911,5.911,0,0,1-1.835-1.063,6.036,6.036,0,0,1-1.9-2.71,6.779,6.779,0,0,1-.312-1.385,7.844,7.844,0,0,1-.078-1.339,6.481,6.481,0,0,1,1.866-4.357,6.165,6.165,0,0,1,3.267-1.739,6.935,6.935,0,0,1,3.453.137,6.255,6.255,0,0,1,4.542,6.312Zm-11.681.2a6.84,6.84,0,0,0,2.831,5.4,4.094,4.094,0,0,0,3.126.568,4.609,4.609,0,0,0,2.939-2,8.269,8.269,0,0,0,1.183-2.648,6.321,6.321,0,0,0,.094-2.695,7.273,7.273,0,0,0-.965-2.569,5.083,5.083,0,0,0-2.6-2.262,3.927,3.927,0,0,0-1.789-.295,4.692,4.692,0,0,0-3.281,1.849A7.132,7.132,0,0,0,324.035,396.043Z" transform="translate(-278.587 -389.237)" fill="#fff"/>
      <path id="Контур_1786" data-name="Контур 1786" d="M309.911,396.95c-.39-.353-.763-.723-1.153-1.078.374-.369.747-.755,1.121-1.125l1.151,1.047ZM280,400.554c.078-.094.126-.155.2-.233a5.421,5.421,0,0,0,1,.833,5.057,5.057,0,0,0,1.4.675,4.686,4.686,0,0,0,1.913.155,3.315,3.315,0,0,0,1.446-.493,2.594,2.594,0,0,0,.856-.785,2.643,2.643,0,0,0-.2-2.926,2.864,2.864,0,0,0-.358-.386,2.817,2.817,0,0,0-.761-.477,25.663,25.663,0,0,1-3.439-1.4,3.715,3.715,0,0,1-1.743-3.28,3.27,3.27,0,0,1,1.059-1.985,4.256,4.256,0,0,1,1.245-.71,4.566,4.566,0,0,1,1.2-.275,5.285,5.285,0,0,1,2.131.23,4.879,4.879,0,0,1,1.959,1.279,1.091,1.091,0,0,0-.186.184,5.006,5.006,0,0,0-2.768-1.323,4.689,4.689,0,0,0-1.65.107,2.963,2.963,0,0,0-1.821.97,2.169,2.169,0,0,0,.545,3.217,7.677,7.677,0,0,0,2.4,1.155,8.018,8.018,0,0,1,2.021.784,3.679,3.679,0,0,1,1.057.863,3.532,3.532,0,0,1,.094,3.926,3.571,3.571,0,0,1-.838.893,3.8,3.8,0,0,1-1.634.691,4.909,4.909,0,0,1-4.621-1.231A5.825,5.825,0,0,1,280,400.554Zm36.909-10.577h-4.2v-.309h9.643v.309H318.31v12.008h-1.4C316.879,397.919,316.941,394.041,316.909,389.977Z" transform="translate(-280 -389.236)" fill="#fff" fill-rule="evenodd"/>
    </g>
  </g>
</svg>
