<svg xmlns="http://www.w3.org/2000/svg" xmlns:xlink="http://www.w3.org/1999/xlink" width="80" height="80" viewBox="0 0 80 80">
  <defs>
    <clipPath id="clip-path">
      <rect id="Прямоугольник_292" data-name="Прямоугольник 292" width="80" height="80" fill="#1c1c21"/>
    </clipPath>
  </defs>
  <g id="Группа_масок_105" data-name="Группа масок 105" clip-path="url(#clip-path)">
    <g id="Grupo_29" data-name="Grupo 29" transform="translate(17.143 32.114)">
      <path id="Exclusión_12" data-name="Exclusión 12" d="M240.714,223.871H195V208.1h45.714v15.771Zm-31.568-10.75-1.441,9.122h1.7l.583-3.731h.023a1.659,1.659,0,0,0,1.466.752,3.583,3.583,0,0,0,3.259-3.2,3,3,0,0,0-.566-2.4,2.1,2.1,0,0,0-1.651-.734,2.576,2.576,0,0,0-1.757.738l.083-.544Zm-11.53,3.285-1.333,1.127a2.666,2.666,0,0,0,2.533,1.782,3.474,3.474,0,0,0,3.5-3.126c.283-1.794-.894-2.326-1.84-2.753-.679-.306-1.265-.57-1.165-1.209a1.338,1.338,0,0,1,1.285-1.03,1.358,1.358,0,0,1,1.249.75l1.029-1.234a3.2,3.2,0,0,0-2.326-1.018,3.258,3.258,0,0,0-3.1,2.737c-.222,1.369.494,1.987,1.635,2.495l.127.051c.641.258,1.368.553,1.231,1.44a1.67,1.67,0,0,1-.465.923,1.316,1.316,0,0,1-.928.4,1.535,1.535,0,0,1-1.43-1.333Zm39.512-3.478a3.442,3.442,0,0,0-3.392,3.223,2.849,2.849,0,0,0,.515,2.325,2.474,2.474,0,0,0,1.957.789,3.323,3.323,0,0,0,3.006-1.854l-1.527-.255a1.507,1.507,0,0,1-1.272.813.86.86,0,0,1-.686-.28,1.754,1.754,0,0,1-.235-1.321h3.913l.037-.206a3.064,3.064,0,0,0-.487-2.515,2.283,2.283,0,0,0-1.827-.719Zm-14.937,0a3.443,3.443,0,0,0-3.392,3.223,2.849,2.849,0,0,0,.515,2.325,2.481,2.481,0,0,0,1.958.79,3.324,3.324,0,0,0,3-1.855l-1.527-.254a1.508,1.508,0,0,1-1.272.811.86.86,0,0,1-.686-.28,1.75,1.75,0,0,1-.235-1.319h3.913l.037-.206a3.061,3.061,0,0,0-.488-2.517,2.279,2.279,0,0,0-1.826-.72Zm-18.993.193-.557,3.5a1.994,1.994,0,0,0,2.241,2.641,2.826,2.826,0,0,0,3.089-2.64l.558-3.5h-1.7l-.509,3.224a2.754,2.754,0,0,1-.325,1,.992.992,0,0,1-.887.49.734.734,0,0,1-.589-.227,1.654,1.654,0,0,1-.138-1.263l.509-3.222Zm27.934,1.163a.564.564,0,0,1,.451.179c.262.3.168.919.1,1.367l-.016.112-.5,3.127h1.7l.582-3.707a2.424,2.424,0,0,0-.282-1.978,1.523,1.523,0,0,0-1.221-.457,2.459,2.459,0,0,0-1.878.934,1.574,1.574,0,0,0-1.562-.934,2.113,2.113,0,0,0-1.563.727h-.024l.085-.533h-1.7l-.945,5.949h1.7l.461-2.92.009-.062a4.338,4.338,0,0,1,.29-1.144.972.972,0,0,1,.9-.661.574.574,0,0,1,.464.189c.275.329.157,1.013.078,1.466l-.021.114-.472,3.017h1.7l.461-2.92v0a4.657,4.657,0,0,1,.3-1.163,1,1,0,0,1,.912-.7Zm-15.53-1.163-.945,5.949h1.7l.424-2.678a3.618,3.618,0,0,1,.418-1.327,1.313,1.313,0,0,1,1.192-.637h.026a1.064,1.064,0,0,1,.64.218l.448-1.574a1.726,1.726,0,0,0-.677-.146,2.035,2.035,0,0,0-1.6.811H217.2l.1-.617Zm-4.262,4.639a1.049,1.049,0,0,1-.822-.368,1.662,1.662,0,0,1-.317-1.3,1.886,1.886,0,0,1,1.672-1.659,1.056,1.056,0,0,1,.824.368,1.621,1.621,0,0,1,.314,1.291,1.9,1.9,0,0,1-1.671,1.671Zm26.637-2.447h-2.265a1.508,1.508,0,0,1,1.333-1.2.825.825,0,0,1,.614.247,1.313,1.313,0,0,1,.319.952Zm-14.937,0h-2.265a1.511,1.511,0,0,1,1.333-1.2.822.822,0,0,1,.613.247,1.323,1.323,0,0,1,.319.952Z" transform="translate(-195 -208.1)" fill="#fff"/>
    </g>
  </g>
</svg>
