<svg xmlns="http://www.w3.org/2000/svg" xmlns:xlink="http://www.w3.org/1999/xlink" width="80" height="80" viewBox="0 0 80 80">
  <defs>
    <clipPath id="clip-path">
      <rect id="Прямоугольник_300" data-name="Прямоугольник 300" width="80" height="80" transform="translate(-0.078)" fill="#1c1c21"/>
    </clipPath>
  </defs>
  <g id="Группа_масок_113" data-name="Группа масок 113" transform="translate(0.078)" clip-path="url(#clip-path)">
    <g id="Сгруппировать_232" data-name="Сгруппировать 232" transform="translate(19.866 31.188)">
      <path id="Контур_316" data-name="Контур 316" d="M197.5,490.808a.66.66,0,0,1,.714-.431q3.219.012,6.44,0a2.537,2.537,0,0,0,2.143-1.088,2.582,2.582,0,0,0-.927-3.79,2.722,2.722,0,0,0-1.238-.289c-.549,0-1.1.006-1.646,0a3.672,3.672,0,0,1-.651-7.266,3.89,3.89,0,0,1,.823-.075q3.394-.009,6.787,0a4.234,4.234,0,0,1,3.726,2.006c.013.018.025.037.05.071l.083-.139a4.182,4.182,0,0,1,3.826-2.131,4.254,4.254,0,0,1,4.094,3.624,5.471,5.471,0,0,1,.049.761q.007,2.535,0,5.073a3.141,3.141,0,0,0,1.11,2.48,2.9,2.9,0,0,0,1.923.763q3.609.021,7.216,0a2.58,2.58,0,0,0,.3-5.128,2.643,2.643,0,0,0-.426-.032c-.571,0-1.142,0-1.713,0a3.671,3.671,0,0,1-.629-7.263,3.619,3.619,0,0,1,.769-.079q2.738-.01,5.475,0a.542.542,0,0,1,.6.6.53.53,0,0,1-.463.479,1.91,1.91,0,0,1-.214.009h-5.355a2.648,2.648,0,0,0-1.643.546,2.582,2.582,0,0,0,1.607,4.621c.619,0,1.241-.013,1.859.021a3.457,3.457,0,0,1,2.338,1.077,3.6,3.6,0,0,1,1.064,2.7,3.69,3.69,0,0,1-3.05,3.5,4.079,4.079,0,0,1-.625.054q-3.48.005-6.961,0a4.25,4.25,0,0,1-4.146-3.235,4.939,4.939,0,0,1-.127-1.138c-.014-1.71,0-3.418-.007-5.128a3.178,3.178,0,0,0-6.345-.3c-.01.138-.015.277-.015.415q0,5.328,0,10.656a.555.555,0,0,1-.407.613.539.539,0,0,1-.674-.455,1.728,1.728,0,0,1-.008-.187q0-5.241,0-10.482a3.167,3.167,0,0,0-1.122-2.515,3.083,3.083,0,0,0-2.075-.765c-2.312,0-4.623-.007-6.935,0a2.58,2.58,0,0,0-.591,5.1,3.091,3.091,0,0,0,.65.064c.6.013,1.2-.009,1.793.023a3.471,3.471,0,0,1,2.351,1.079,3.6,3.6,0,0,1,1.063,2.685,3.68,3.68,0,0,1-3.078,3.518,4.719,4.719,0,0,1-.706.051c-2.129,0-4.257,0-6.386.007a.646.646,0,0,1-.7-.433Z" transform="translate(-197.5 -475.76)" fill="#fff"/>
      <path id="Контур_317" data-name="Контур 317" d="M217.9,476c.237.034.475.061.711.1a6.194,6.194,0,0,1,5.067,6.155q0,2.571,0,5.141a1.257,1.257,0,0,0,.957,1.274,1.394,1.394,0,0,0,.344.042q3.454,0,6.907,0a.679.679,0,1,0,.015-1.357c-.57-.007-1.142.006-1.713-.006a5.577,5.577,0,0,1-1.136-11.011,6,6,0,0,1,1.339-.145h5.369a.567.567,0,0,1,.616.369.541.541,0,0,1-.48.72c-.057,0-.115,0-.174,0q-2.671,0-5.342,0a4.5,4.5,0,0,0-4.531,4.923,4.447,4.447,0,0,0,3.8,4.006,6.032,6.032,0,0,0,.8.049c.531.009,1.063-.007,1.593.013a1.765,1.765,0,0,1,.131,3.51,2.509,2.509,0,0,1-.306.022c-2.285,0-4.57.008-6.855,0a2.322,2.322,0,0,1-2.218-1.4,2.351,2.351,0,0,1-.209-1.04q0-2.565,0-5.128a4.688,4.688,0,0,0-.159-1.311,5.094,5.094,0,0,0-8.665-2.2c-.024.025-.045.055-.053.064-.315-.241-.607-.494-.926-.7a4.95,4.95,0,0,0-2.759-.806c-2.307,0-4.614-.007-6.921,0a4.485,4.485,0,0,0-1.071,8.848,6.562,6.562,0,0,0,1.141.126c.53.022,1.062-.008,1.592.014a1.758,1.758,0,0,1,1.7,1.758,1.781,1.781,0,0,1-1.69,1.773c-.072,0-.143,0-.215,0-2.115,0-4.231,0-6.345,0a.659.659,0,0,1-.715-.43v-.241a.644.644,0,0,1,.7-.432c2.119.008,4.237,0,6.355,0,.058,0,.117,0,.174,0a.679.679,0,0,0-.065-1.357q-.756-.005-1.512,0a5.279,5.279,0,0,1-2.165-.411,5.509,5.509,0,0,1-3.381-4.121c-.047-.221-.07-.446-.1-.67v-.75a.662.662,0,0,0,.023-.1,5.223,5.223,0,0,1,.337-1.493,5.582,5.582,0,0,1,5.287-3.614c2.279,0,4.559,0,6.838,0a6.153,6.153,0,0,1,3.539,1.072.169.169,0,0,0,.239-.006,5.972,5.972,0,0,1,2.613-1.158c.24-.043.482-.072.725-.106Z" transform="translate(-197.5 -475.999)" fill="#fff"/>
      <path id="Контур_318" data-name="Контур 318" d="M197.5,492.446a.666.666,0,0,1,.718-.426c2.134.008,4.266,0,6.4.006a4.337,4.337,0,0,0,2.874-.987,4.487,4.487,0,0,0-1.832-7.877,4.8,4.8,0,0,0-.993-.109c-.513-.017-1.026,0-1.539,0a1.768,1.768,0,0,1-.153-3.531c1.2-.016,2.392-.008,3.587-.008s2.4-.009,3.6.007a2.345,2.345,0,0,1,2.226,2,3.115,3.115,0,0,1,.029.413q0,5.282,0,10.562a.554.554,0,0,1-.4.6.537.537,0,0,1-.674-.421,1.4,1.4,0,0,1-.016-.24q0-5.235,0-10.469a1.322,1.322,0,0,0-.407-1.024,1.221,1.221,0,0,0-.861-.342q-3.489,0-6.975,0a.645.645,0,0,0-.627.419.631.631,0,0,0,.115.7.659.659,0,0,0,.533.234c.553,0,1.107-.021,1.659,0a5.447,5.447,0,0,1,5.023,3.322,5.535,5.535,0,0,1-1.822,6.774,5.444,5.444,0,0,1-3.224,1.059c-2.217.007-4.435,0-6.654,0a.587.587,0,0,1-.587-.431Z" transform="translate(-197.5 -475.498)" fill="#fff"/>
      <path id="Контур_319" data-name="Контур 319" d="M212.934,487.06q0-2.643,0-5.288a2.364,2.364,0,0,1,4.695-.458,3.743,3.743,0,0,1,.034.506q0,2.523,0,5.047a5,5,0,0,0,1.08,3.219,4.876,4.876,0,0,0,3.905,1.954q3.614.038,7.229,0a4.482,4.482,0,0,0,.745-8.871,5,5,0,0,0-.915-.09c-.518-.015-1.035,0-1.553,0a1.768,1.768,0,0,1-.152-3.531c1.12-.017,2.24-.007,3.36-.008.763,0,1.527,0,2.289,0a.537.537,0,0,1,.523.726.51.51,0,0,1-.432.352,1.671,1.671,0,0,1-.214.011q-2.678,0-5.354,0a.689.689,0,0,0-.65.344.67.67,0,0,0,.561,1.008c.535.009,1.071,0,1.606,0a5.487,5.487,0,0,1,3.915,1.582,5.369,5.369,0,0,1,1.67,3.506,5.565,5.565,0,0,1-4.145,5.894,5.223,5.223,0,0,1-1.362.181c-2.378,0-4.757.01-7.135,0a6.17,6.17,0,0,1-5.619-3.877,6.409,6.409,0,0,1-.441-2.391q.007-2.544,0-5.087a1.283,1.283,0,0,0-.846-1.281,1.268,1.268,0,0,0-1.695,1.1c-.007.085-.008.169-.008.254q0,5.307,0,10.616a1.143,1.143,0,0,1-.021.265.542.542,0,0,1-1.064-.1c0-.054,0-.107,0-.16Z" transform="translate(-195.295 -475.523)" fill="#fff"/>
    </g>
  </g>
</svg>
