<svg xmlns="http://www.w3.org/2000/svg" xmlns:xlink="http://www.w3.org/1999/xlink" width="80" height="80" viewBox="0 0 80 80">
  <defs>
    <clipPath id="clip-path">
      <rect id="Прямоугольник_284" data-name="Прямоугольник 284" width="80" height="80" transform="translate(-0.078)" fill="#1c1c21"/>
    </clipPath>
  </defs>
  <g id="Группа_масок_97" data-name="Группа масок 97" transform="translate(0.078)" clip-path="url(#clip-path)">
    <g id="Сгруппировать_222" data-name="Сгруппировать 222" transform="translate(17.009 33.646)">
      <path id="Контур_274" data-name="Контур 274" d="M385.873,121.456v3.333h.322q2.006,0,4.009,0c.358,0,.427.067.429.419,0,.407-.006.813,0,1.219.006.273-.12.375-.386.374-1.336-.006-2.672,0-4.008,0h-.362v3.336h.341q2.179,0,4.358,0c.392,0,.449.059.449.456q0,.552,0,1.1c0,.374-.078.449-.465.45q-1.67,0-3.339,0-1.483,0-2.963,0c-.381,0-.448-.065-.448-.432q0-5.925,0-11.85c0-.335.078-.415.406-.415q3.2,0,6.391,0c.325,0,.418.091.419.4,0,.407,0,.814,0,1.219,0,.3-.1.387-.406.387l-4.393,0Z" transform="translate(-373.742 -119.44)" fill="#fff"/>
      <path id="Контур_275" data-name="Контур 275" d="M393.893,126.8v3.336h4.678c.421,0,.481.062.481.489,0,.358,0,.715,0,1.072s-.089.448-.44.449q-2.019,0-4.039,0c-.775,0-1.55,0-2.325,0-.33,0-.413-.082-.413-.411q0-5.942,0-11.883c0-.328.079-.4.418-.4q3.182,0,6.362,0c.354,0,.437.086.438.447,0,.377,0,.754,0,1.13,0,.355-.082.435-.448.434h-4.539c-.047,0-.094.006-.16.009v3.32h4.314c.369,0,.44.071.44.441q0,.581,0,1.162c0,.335-.075.407-.408.407h-4.355Z" transform="translate(-372.596 -119.44)" fill="#fff"/>
      <path id="Контур_276" data-name="Контур 276" d="M405.015,124.788c.314,0,.583,0,.853,0s.37.118.368.371c0,.426,0,.851,0,1.278,0,.251-.105.37-.367.367-.552-.009-1.1-.013-1.655,0a.43.43,0,0,0-.32.168c-.539,1-1.063,2.019-1.59,3.032a.461.461,0,0,0-.008.1h4.464c.392,0,.467.077.469.475s0,.793,0,1.19a.324.324,0,0,1-.368.375q-3.339,0-6.68,0c-.286,0-.384-.106-.387-.384a.254.254,0,0,0,0-.03,3.615,3.615,0,0,1,.614-2.433c.439-.715.8-1.479,1.194-2.222.04-.074.071-.152.128-.277-.283,0-.531-.006-.779,0-.264.008-.393-.1-.389-.378.008-.416,0-.832,0-1.249,0-.259.112-.39.384-.386.543.007,1.085.008,1.626,0a.37.37,0,0,0,.279-.131c.551-1.021,1.088-2.049,1.627-3.075.008-.015,0-.037,0-.093h-.335q-1.829,0-3.659,0c-.376,0-.454-.08-.455-.462s0-.791,0-1.187c0-.267.123-.386.386-.386q3.094,0,6.187,0a.32.32,0,0,1,.367.371c0,.358.009.717-.006,1.074a.941.941,0,0,1-.11.382c-.573,1.1-1.153,2.19-1.73,3.285C405.094,124.618,405.068,124.679,405.015,124.788Z" transform="translate(-371.462 -119.44)" fill="#fff"/>
      <path id="Контур_277" data-name="Контур 277" d="M379.208,124.11c.687-1.494,1.349-2.925,2-4.36a.44.44,0,0,1,.463-.305c.474.013.95,0,1.424,0,.3,0,.406.171.28.448q-1.524,3.357-3.045,6.713a1.025,1.025,0,0,0-.083.418c-.006,1.559,0,3.119,0,4.678,0,.369-.07.438-.443.44-.4,0-.794,0-1.191,0-.339,0-.413-.073-.413-.41,0-1.559,0-3.119-.006-4.678a1.4,1.4,0,0,0-.125-.554q-1.5-3.319-3.017-6.63c-.119-.261-.013-.423.281-.425.455,0,.911.017,1.366-.007a.538.538,0,0,1,.589.387c.59,1.347,1.2,2.685,1.8,4.025C379.115,123.922,379.15,123.988,379.208,124.11Z" transform="translate(-375 -119.441)" fill="#fff"/>
      <path id="Контур_278" data-name="Контур 278" d="M411.835,124.1c.459-1,.907-1.976,1.354-2.95.222-.483.445-.967.661-1.453a.39.39,0,0,1,.407-.257c.483.009.968,0,1.453,0,.315,0,.418.159.29.442q-1.5,3.315-3,6.633a1.483,1.483,0,0,0-.131.581c-.011,1.529-.006,3.059-.007,4.59,0,.394-.057.45-.455.451s-.793,0-1.191,0c-.305,0-.394-.091-.394-.4,0-1.539.006-3.079-.007-4.618a1.765,1.765,0,0,0-.152-.693c-.977-2.169-1.968-4.33-2.954-6.495-.163-.359-.073-.494.325-.494.446,0,.891.01,1.337,0a.469.469,0,0,1,.51.322c.613,1.39,1.24,2.773,1.863,4.157C411.762,123.974,411.792,124.024,411.835,124.1Z" transform="translate(-370.339 -119.44)" fill="#fff"/>
    </g>
  </g>
</svg>
