<svg xmlns="http://www.w3.org/2000/svg" xmlns:xlink="http://www.w3.org/1999/xlink" width="80" height="80" viewBox="0 0 80 80">
  <defs>
    <clipPath id="clip-path">
      <rect id="Прямоугольник_286" data-name="Прямоугольник 286" width="80" height="80" transform="translate(-0.156)" fill="#1c1c21"/>
    </clipPath>
  </defs>
  <g id="Группа_масок_99" data-name="Группа масок 99" transform="translate(0.156)" clip-path="url(#clip-path)">
    <g id="Сгруппировать_223" data-name="Сгруппировать 223" transform="translate(11.161 33.89)">
      <path id="Контур_279" data-name="Контур 279" d="M235.138,401.735a12.941,12.941,0,0,1-3.752-.073c-.169-.03-.339-.066-.506-.109a1.973,1.973,0,0,1-1.649-2.648,69.63,69.63,0,0,1,2.525-7.055,3.572,3.572,0,0,1,1.931-1.6,10.518,10.518,0,0,1,6.026-.3,2.289,2.289,0,0,1,1.73,2.965c-.666,2.151-1.423,4.277-2.2,6.393a3.666,3.666,0,0,1-3.075,2.274C235.832,401.649,235.489,401.7,235.138,401.735Zm2.07-9.71c-.856-.234-1.149.115-1.343.68-.7,2.039-1.415,4.071-2.114,6.11-.213.585-.163.8.158.8.673,0,.8-.24,1-.811.635-1.832,1.277-3.663,1.91-5.5C236.951,392.917,237.06,392.511,237.208,392.025Z" transform="translate(-184.412 -389.653)" fill="#fff"/>
      <path id="Контур_280" data-name="Контур 280" d="M219.147,401.656a11.9,11.9,0,0,1-4.31-.054q-.281-.058-.555-.137a1.875,1.875,0,0,1-1.453-2.509,71.438,71.438,0,0,1,2.515-7.058,3.707,3.707,0,0,1,1.992-1.658,10.461,10.461,0,0,1,5.906-.307c1.641.339,2.3,1.354,1.826,2.937-.669,2.214-1.467,4.391-2.266,6.563a3.192,3.192,0,0,1-2.426,1.991C219.971,401.518,219.561,401.591,219.147,401.656Zm1.711-9.582c-.874-.326-1.181.051-1.385.649-.713,2.072-1.439,4.138-2.149,6.211-.063.185-.381.8.134.8a.8.8,0,0,0,.9-.611C219.223,396.818,220.015,394.485,220.858,392.075Z" transform="translate(-186.755 -389.653)" fill="#fff"/>
      <path id="Контур_281" data-name="Контур 281" d="M214.741,394.594c-.669,1.819-1.223,3.485-1.895,5.1a3.115,3.115,0,0,1-2.233,1.7,13.477,13.477,0,0,1-6.128.2c-1.759-.344-2.306-1.282-1.744-2.97q1.375-4.133,2.865-8.226a1.058,1.058,0,0,1,.763-.571c1.307-.059,2.621-.026,4.03-.026l-.266,1.189h5.818c-.3.879-.521,1.643-.84,2.363a.947.947,0,0,1-.726.363c-1.467.034-2.938.047-4.406,0a.969.969,0,0,0-1.145.779c-.435,1.416-.959,2.806-1.437,4.209-.087.254-.131.52-.2.785.787.349,1.122-.024,1.331-.623.418-1.2.859-2.385,1.231-3.594a.853.853,0,0,1,1.006-.695C212.015,394.622,213.264,394.594,214.741,394.594Z" transform="translate(-188.21 -389.634)" fill="#fff"/>
      <path id="Контур_282" data-name="Контур 282" d="M190,401.511l3.064-8.843h-2.343c.33-.959.589-1.768.9-2.558a.65.65,0,0,1,.5-.295c2.957-.017,5.914-.013,9.018-.013a24.073,24.073,0,0,1-.883,2.438c-.106.222-.585.367-.9.377-1.619.054-1.614.037-2.145,1.579-.753,2.189-1.531,4.369-2.263,6.566a.914.914,0,0,1-1.048.765C192.661,401.475,191.415,401.511,190,401.511Z" transform="translate(-190 -389.632)" fill="#fff"/>
      <path id="Контур_283" data-name="Контур 283" d="M221.853,401.506c.513-1.494.976-2.861,1.45-4.224.791-2.275,1.6-4.543,2.374-6.824a.811.811,0,0,1,.927-.669c1.277.039,2.554.013,3.993.013l-3.05,8.819h2.5c-.315.934-.569,1.743-.873,2.533a.655.655,0,0,1-.48.337C226.458,401.513,224.219,401.506,221.853,401.506Z" transform="translate(-185.45 -389.634)" fill="#fff"/>
      <path id="Контур_284" data-name="Контур 284" d="M196.9,401.081c.944-2.717,1.825-5.28,2.741-7.831a.8.8,0,0,1,.594-.421c1.37-.038,2.743-.019,4.251-.019-.207.624-.381,1.166-.567,1.7-.678,1.953-1.375,3.9-2.03,5.863a.86.86,0,0,1-.983.721C199.628,401.048,198.35,401.081,196.9,401.081Z" transform="translate(-189.015 -389.203)" fill="#fff"/>
      <path id="Контур_285" data-name="Контур 285" d="M199.863,392.272c-.055-.162-.078-.194-.071-.218.6-2.254.6-2.254,2.936-2.254h2.533c-.25.754-.421,1.407-.694,2.014a.925.925,0,0,1-.679.439C202.548,392.294,201.2,392.272,199.863,392.272Z" transform="translate(-188.601 -389.633)" fill="#fff"/>
    </g>
  </g>
</svg>
