<svg xmlns="http://www.w3.org/2000/svg" xmlns:xlink="http://www.w3.org/1999/xlink" width="80" height="80" viewBox="0 0 80 80">
  <defs>
    <clipPath id="clip-path">
      <rect id="Прямоугольник_295" data-name="Прямоугольник 295" width="80" height="80" fill="#1c1c21"/>
    </clipPath>
  </defs>
  <g id="Группа_масок_108" data-name="Группа масок 108" clip-path="url(#clip-path)">
    <g id="Grupo_202" data-name="Grupo 202" transform="translate(11.429 31.342)">
      <path id="Trazado_30" data-name="Trazado 30" d="M35.76,399.751c-.842,0-1.577.023-2.309-.017a.69.69,0,0,1-.47-.371c-.315-.741-.606-1.495-.858-2.259-.131-.4-.325-.574-.806-.423v3.034H28.934v-8.4c.8,0,1.585,0,2.367,0,.68.006,1.362,0,2.041.045a2.32,2.32,0,0,1,2.237,1.768,2.588,2.588,0,0,1-.992,2.9c-.057.04-.107.09-.187.16Zm-4.431-5.041c.434,0,.842.026,1.247-.008a.7.7,0,0,0,.665-.719.631.631,0,0,0-.514-.73l-.043-.006a11.133,11.133,0,0,0-1.353-.013Z" transform="translate(-7.295 -386.869)" fill="#fff"/>
      <path id="Trazado_31" data-name="Trazado 31" d="M13.89,399.92a3.75,3.75,0,0,1-3.827-3.522,5.707,5.707,0,0,1,.342-2.958,3.709,3.709,0,0,1,4.183-2.269,3.675,3.675,0,0,1,3.167,3.192,8.014,8.014,0,0,1-.01,2.451A3.667,3.667,0,0,1,13.89,399.92Zm-1.178-5.563a3.587,3.587,0,0,0,0,2.313,2.546,2.546,0,0,0,.159.378,1.218,1.218,0,0,0,2.2-.035,3.251,3.251,0,0,0-.017-3.007,1.2,1.2,0,0,0-2.2,0,2.646,2.646,0,0,0-.146.349Z" transform="translate(-10 -386.894)" fill="#fff"/>
      <path id="Trazado_32" data-name="Trazado 32" d="M41.823,391.313c-.579,1.017-1.094,1.953-1.645,2.866a.9.9,0,0,0-.055.895c.607,1.527,1.191,3.062,1.815,4.675-.853,0-1.631.015-2.407-.016-.113,0-.261-.208-.32-.35-.313-.739-.6-1.489-.969-2.407a7.049,7.049,0,0,0-.617,1.333,6.8,6.8,0,0,0-.022,1.414H35.386v-8.382h2.2v2.288l.118.039c.4-.642.813-1.274,1.183-1.933a.742.742,0,0,1,.768-.431C40.344,391.333,41.037,391.313,41.823,391.313Z" transform="translate(-6.373 -386.871)" fill="#fff"/>
      <path id="Trazado_33" data-name="Trazado 33" d="M23.41,391.344h5.754v1.915h-3.41v1.311h2.721v1.866H25.753V397.7h3.4v2H23.41Z" transform="translate(-8.084 -386.864)" fill="#fff"/>
      <path id="Trazado_34" data-name="Trazado 34" d="M23.833,391.313c-.478,1.674-.928,3.255-1.377,4.835-.294,1.033-.6,2.065-.87,3.1-.1.361-.237.545-.65.509-.635-.056-1.438.171-1.867-.139-.407-.294-.432-1.126-.611-1.725-.647-2.16-1.288-4.321-1.96-6.579.811,0,1.57-.018,2.328.018.109.006.255.257.3.418.343,1.279.666,2.563,1.093,3.869.058-.173.125-.342.173-.517.313-1.121.632-2.241.925-3.368.081-.311.2-.448.542-.434C22.48,391.332,23.1,391.313,23.833,391.313Z" transform="translate(-9.072 -386.87)" fill="#fff"/>
      <path id="Trazado_35" data-name="Trazado 35" d="M46.625,397.726h3v1.986H44.272v-8.37h2.353Z" transform="translate(-5.104 -386.864)" fill="#fff"/>
      <path id="Trazado_36" data-name="Trazado 36" d="M54.79,397.713v2H49.483v-8.369H51.8v6.367Z" transform="translate(-4.359 -386.864)" fill="#fff"/>
      <path id="Trazado_37" data-name="Trazado 37" d="M43.828,399.723H41.545v-8.375h2.283Z" transform="translate(-5.493 -386.864)" fill="#fff"/>
      <path id="Trazado_38" data-name="Trazado 38" d="M56.656,395.515c.265-1.577.507-3.025.752-4.473.131-.777.267-1.553.4-2.33a1.857,1.857,0,0,1,2.381-1.143.782.782,0,0,1,.29.656q-.782,3.54-1.639,7.063a1.437,1.437,0,0,1-1.84.722C56.822,395.9,56.739,395.641,56.656,395.515Z" transform="translate(-3.335 -387.424)" fill="#fff"/>
      <path id="Trazado_39" data-name="Trazado 39" d="M54.47,392.8c0-.787-.016-1.575,0-2.362a1.848,1.848,0,0,1,2.155-1.391.79.79,0,0,1,.361.623q-.18,2.594-.446,5.184a1.261,1.261,0,0,1-1.446,1.048,1.136,1.136,0,0,1-.184-.043.944.944,0,0,1-.427-.7C54.436,394.382,54.47,393.592,54.47,392.8Z" transform="translate(-3.648 -387.203)" fill="#fff"/>
    </g>
  </g>
</svg>
