<svg xmlns="http://www.w3.org/2000/svg" xmlns:xlink="http://www.w3.org/1999/xlink" width="80" height="80" viewBox="0 0 80 80">
  <defs>
    <clipPath id="clip-path">
      <rect id="Прямоугольник_288" data-name="Прямоугольник 288" width="80" height="80" fill="#1c1c21"/>
    </clipPath>
  </defs>
  <g id="Группа_масок_101" data-name="Группа масок 101" clip-path="url(#clip-path)">
    <g id="Grupo_21" data-name="Grupo 21" transform="translate(5.714 33.383)">
      <path id="Shape" d="M504.486,33.165l.006-.531h-.037l-.267.531h-.178l-.269-.531H503.7l0,.531H503.5v-.71h.393l.21.461.21-.461h.39v.71Zm-1.583,0v-.529h-.315v-.181h.856v.181h-.311v.531Z" transform="translate(-448.202 -28.746)" fill="#fff"/>
      <g id="Grupo_20" data-name="Grupo 20">
        <path id="Exclusión_7" data-name="Exclusión 7" d="M512.323,42.443h0l1.525-5-4.171-3.165L515,34.3l1.611-5.093,1.667,5.093,5.294-.029-4.2,3.165,1.526,5-4.286-2.99-4.287,2.992Zm.144-7.307,2.5,1.9-.919,3.021,2.589-1.813h0l2.563,1.813-.919-3.021,2.5-1.9-3.166.029-.977-3.049-.977,3.049ZM503.819,40.6h-.863l-.719-.145a.561.561,0,0,1-.23-.518v-.173h.747a.289.289,0,0,0,.067.213.338.338,0,0,0,.249.074h.891c.183,0,.29-.074.29-.2a.192.192,0,0,0-.145-.2l-.863-.03-1.035-.145a.725.725,0,0,1-.2-.575.789.789,0,0,1,.145-.546,1.161,1.161,0,0,1,.834-.231H504a1.226,1.226,0,0,1,.776.2.752.752,0,0,1,.145.518V38.9H504.2a.233.233,0,0,0-.062-.171.438.438,0,0,0-.312-.088h-.806c-.159,0-.259.077-.259.2,0,.107.024.171.145.2h.719l1.122.145c.175.086.259.293.259.632,0,.369-.067.552-.23.634l-.95.145Zm-3.223,0h-1.035c-.649,0-.978-.3-.978-.893V38.157h.72v1.381c0,.282.139.432.4.432h.749c.264,0,.4-.15.4-.432V38.157h.718v1.553c0,.592-.329.893-.979.893Zm5.438-.029h-.8l1.294-2.418h.919l1.322,2.418h-.8l-.23-.432h-1.466l-.231.432Zm.95-1.871-.461.919h.919Zm-8.889.547H476.578V38.157h21.517V39.25Zm2.531-1.871H498.44A2.6,2.6,0,0,1,497,37.064a1.535,1.535,0,0,1-.518-1.322V34.387A1.536,1.536,0,0,1,497,33.065a2.333,2.333,0,0,1,1.439-.317h2.186a2.334,2.334,0,0,1,1.439.317,1.537,1.537,0,0,1,.518,1.322v1.354a1.543,1.543,0,0,1-.518,1.322,2.6,2.6,0,0,1-1.439.317Zm-1.9-3.481a.783.783,0,0,0-.691.259.965.965,0,0,0-.173.661v.489a1.172,1.172,0,0,0,.173.72c.081.134.294.2.634.2H500.4c.338,0,.552-.069.633-.2a1.188,1.188,0,0,0,.145-.72v-.49a1.194,1.194,0,0,0-.145-.662.853.853,0,0,0-.69-.258ZM487.335,37.38h-2.214a2.6,2.6,0,0,1-1.439-.317,1.536,1.536,0,0,1-.518-1.322V34.387a1.539,1.539,0,0,1,.518-1.323,2.338,2.338,0,0,1,1.439-.315h1.609a2.909,2.909,0,0,1,1.813.374c.249.193.375.638.375,1.323h-1.382V34.33c0-.29-.207-.432-.633-.432h-1.5a.858.858,0,0,0-.69.259,1.2,1.2,0,0,0-.145.662v.489a1.185,1.185,0,0,0,.145.719c.081.134.294.2.634.2h1.438c.368,0,.552-.034.633-.115.121-.091.174-.246.174-.518h1.381v.432a1.3,1.3,0,0,1-.317.95,1.675,1.675,0,0,1-1.325.4Zm-16.656,0h-2.186a2.664,2.664,0,0,1-1.439-.317,1.535,1.535,0,0,1-.518-1.322V34.387a1.536,1.536,0,0,1,.518-1.322,2.41,2.41,0,0,1,1.439-.317h2.186a2.329,2.329,0,0,1,1.438.317,1.529,1.529,0,0,1,.518,1.322v1.354a1.531,1.531,0,0,1-.518,1.322,2.6,2.6,0,0,1-1.438.317Zm-1.9-3.481a.854.854,0,0,0-.69.259,1.177,1.177,0,0,0-.145.661v.489a1.189,1.189,0,0,0,.145.72c.081.134.294.2.633.2h1.755a.787.787,0,0,0,.632-.2,1.427,1.427,0,0,0,.145-.72v-.49a.961.961,0,0,0-.173-.662.81.81,0,0,0-.69-.258ZM464.12,37.38h-2.187a2.6,2.6,0,0,1-1.438-.317,1.531,1.531,0,0,1-.518-1.322V34.387a1.533,1.533,0,0,1,.518-1.322,2.331,2.331,0,0,1,1.438-.317h2.187a2.4,2.4,0,0,1,1.438.317,1.536,1.536,0,0,1,.518,1.322v1.354a1.536,1.536,0,0,1-.518,1.322,2.657,2.657,0,0,1-1.438.317Zm-1.9-3.481a.854.854,0,0,0-.69.259,1.2,1.2,0,0,0-.145.661v.489a1.2,1.2,0,0,0,.145.72c.08.133.293.2.633.2h1.726c.338,0,.553-.069.633-.2a1.19,1.19,0,0,0,.145-.72v-.49a1.184,1.184,0,0,0-.145-.662.851.851,0,0,0-.69-.258Zm42.145,3.424h-1.354V32.805h2.1l2.563,3.281V32.805h1.265v4.517h-1.985l-2.56-3.279h-.03v3.279Zm-26.265,0h-1.526l2.418-4.518h1.784l2.445,4.517H481.7l-.431-.806H478.5l-.4.806Zm1.784-3.481-.864,1.7h1.755Zm16.167,3.481h-1.295V32.805h1.295v4.517Zm-3.6,0H491.1v-3.4h-1.87V32.805h5.034v1.122h-1.813v3.4Zm-16.485,0h-1.354v-3.4h-1.783V32.805H477.9v1.122h-1.928v3.4Zm-19.591,0H455V32.805h4.661v1.064h-3.28v.863h3.136V35.8h-3.136v1.527Z" transform="translate(-455 -29.21)" fill="#fff"/>
      </g>
    </g>
  </g>
</svg>
