<svg xmlns="http://www.w3.org/2000/svg" xmlns:xlink="http://www.w3.org/1999/xlink" width="80" height="80" viewBox="0 0 80 80">
  <defs>
    <clipPath id="clip-path">
      <rect id="Прямоугольник_273" data-name="Прямоугольник 273" width="80" height="80" fill="#1c1c21"/>
    </clipPath>
  </defs>
  <g id="Группа_масок_86" data-name="Группа масок 86" clip-path="url(#clip-path)">
    <g id="Сгруппировать_214" data-name="Сгруппировать 214" transform="translate(17.143 24.792)">
      <g id="Сгруппировать_213" data-name="Сгруппировать 213">
        <g id="Сгруппировать_212" data-name="Сгруппировать 212">
          <path id="Контур_251" data-name="Контур 251" d="M55.661,43.638H53.666a1.332,1.332,0,0,0-.289-.695,1.5,1.5,0,0,0-1.08-.323,1.607,1.607,0,0,0-1.031.248.637.637,0,0,0-.221.509c0,.3.419.543,1.251.729a19.836,19.836,0,0,1,2.05.529c.11.041.206.075.274.11a1.928,1.928,0,0,1,1.266,1.817,2.3,2.3,0,0,1-1.231,2.166c-.1.056-.2.1-.31.152a4.656,4.656,0,0,1-1.843.344,5.059,5.059,0,0,1-2.518-.551,2.378,2.378,0,0,1-.9-.882,2.472,2.472,0,0,1-.3-1.242h2.09a.99.99,0,0,0,.385.832,2.147,2.147,0,0,0,1.3.3,1.57,1.57,0,0,0,1.032-.289.647.647,0,0,0,.261-.51c0-.322-.411-.577-1.231-.755A13.358,13.358,0,0,1,50.31,45.5a1.916,1.916,0,0,1-1.251-1.837,2.4,2.4,0,0,1,.653-1.712,3.24,3.24,0,0,1,2.47-.873,5.157,5.157,0,0,1,2.167.385.7.7,0,0,1,.13.069,2.179,2.179,0,0,1,.886.847A2.521,2.521,0,0,1,55.661,43.638Z" transform="translate(-10.174 -18.923)" fill="#fff"/>
          <path id="Контур_252" data-name="Контур 252" d="M53.964,39.1a.16.16,0,0,0-.027-.1.151.151,0,0,0-.089-.069,1.046,1.046,0,0,0-.13-.021H53.4V39.3h.317a.3.3,0,0,0,.185-.055A.172.172,0,0,0,53.964,39.1Zm.166-.207a.3.3,0,0,1,.062.185.339.339,0,0,1-.1.248.4.4,0,0,1-.269.117.355.355,0,0,1,.11.069l.193.255.151.255h-.248l-.117-.207a1.173,1.173,0,0,0-.192-.274.084.084,0,0,0-.029-.021l-.163-.048H53.4v.55h-.207V38.732h.447c.029,0,.056.006.077.006a.76.76,0,0,1,.247.034A.3.3,0,0,1,54.13,38.9Z" transform="translate(-9.544 -19.259)" fill="#fff"/>
          <path id="Контур_253" data-name="Контур 253" d="M54.8,39.435a1,1,0,0,0-.131-.5.959.959,0,0,0-.371-.371,1.064,1.064,0,0,0-.489-.131H53.8a1.059,1.059,0,0,0-.488.131.962.962,0,0,0-.373.371.976.976,0,0,0,0,1,.929.929,0,0,0,.365.363.984.984,0,0,0,.5.131h.006a.984.984,0,0,0,.5-.131.914.914,0,0,0,.365-.363A1,1,0,0,0,54.8,39.435Zm.2,0a1.167,1.167,0,0,1-.159.592,1.038,1.038,0,0,1-.439.44,1.156,1.156,0,0,1-.593.159H53.8a1.152,1.152,0,0,1-.592-.159,1.041,1.041,0,0,1-.44-.44,1.177,1.177,0,0,1-.158-.592,1.193,1.193,0,0,1,.158-.606,1.111,1.111,0,0,1,.447-.44,1.313,1.313,0,0,1,.585-.158h.006a1.226,1.226,0,0,1,.585.158,1.057,1.057,0,0,1,.447.44A1.183,1.183,0,0,1,55,39.435Z" transform="translate(-9.627 -19.33)" fill="#fff"/>
          <path id="Контур_254" data-name="Контур 254" d="M46.074,32.079l5.648,9.41H42.649L37.256,32.5l-4.086-6.8,4.086-2.456,2.572-1.547Z" transform="translate(-12.404 -21.693)" fill="#fff"/>
          <path id="Контур_255" data-name="Контур 255" d="M49.07,45.243V49.1H47.191v-.426a4.021,4.021,0,0,1-2.2.654h-.021a4.086,4.086,0,0,1,0-8.171h.021a4.029,4.029,0,0,1,2.2.653v-.447H49.07Zm-1.879.426v-.853A2.249,2.249,0,0,0,44.99,43h-.021a2.246,2.246,0,0,0,0,4.491h.021A2.255,2.255,0,0,0,47.191,45.669Z" transform="translate(-11.299 -18.912)" fill="#fff"/>
          <path id="Контур_256" data-name="Контур 256" d="M41.353,45.549v3.858H39.476v-.426a4.042,4.042,0,0,1-2.2.654h-.021a4.086,4.086,0,0,1,0-8.171h.021a4.05,4.05,0,0,1,2.2.653v-3.1h1.877Zm-1.877.426v-.853a2.251,2.251,0,0,0-2.2-1.816h-.021a2.246,2.246,0,0,0,0,4.491h.021A2.257,2.257,0,0,0,39.476,45.975Z" transform="translate(-12.402 -19.218)" fill="#fff"/>
          <path id="Контур_257" data-name="Контур 257" d="M38.259,36.907l2.215,3.7H31.407l-5.034-8.378-.22-.365.22-.13,6.445-3.88Z" transform="translate(-13.407 -20.812)" fill="#fff"/>
          <rect id="Прямоугольник_271" data-name="Прямоугольник 271" width="2.043" height="7.945" transform="translate(18.008 22.245)" fill="#fff"/>
          <rect id="Прямоугольник_272" data-name="Прямоугольник 272" width="2.043" height="1.795" transform="translate(18.008 19.837)" fill="#fff"/>
          <path id="Контур_258" data-name="Контур 258" d="M30.959,45.549v3.858H29.082v-.426a4.055,4.055,0,0,1-2.208.654h-.021a4.086,4.086,0,0,1,0-8.171h.021a4.064,4.064,0,0,1,2.208.653v-3.1h1.878Zm-1.878.426v-.853a2.251,2.251,0,0,0-2.208-1.816h-.021a2.246,2.246,0,0,0,0,4.491h.021A2.257,2.257,0,0,0,29.082,45.975Z" transform="translate(-13.887 -19.218)" fill="#fff"/>
          <path id="Контур_259" data-name="Контур 259" d="M27.374,36.631l1.857,3.1H20.159l-1.018-1.7,6.665-4Z" transform="translate(-14.408 -19.931)" fill="#fff"/>
          <path id="Контур_260" data-name="Контур 260" d="M23.165,45.243V49.1H21.287v-.426a4.061,4.061,0,0,1-2.208.654h-.021a4.086,4.086,0,0,1,0-8.171h.021a4.07,4.07,0,0,1,2.208.653v-.447h1.878Zm-1.878.426v-.853A2.251,2.251,0,0,0,19.079,43h-.021a2.246,2.246,0,0,0,0,4.491h.021A2.257,2.257,0,0,0,21.287,45.669Z" transform="translate(-15 -18.912)" fill="#fff"/>
        </g>
      </g>
    </g>
  </g>
</svg>
