<svg xmlns="http://www.w3.org/2000/svg" xmlns:xlink="http://www.w3.org/1999/xlink" width="80" height="80" viewBox="0 0 80 80">
  <defs>
    <clipPath id="clip-path">
      <rect id="Прямоугольник_306" data-name="Прямоугольник 306" width="80" height="80" transform="translate(0.078)" fill="#1c1c21"/>
    </clipPath>
  </defs>
  <g id="Группа_масок_118" data-name="Группа масок 118" transform="translate(-0.078)" clip-path="url(#clip-path)">
    <g id="Сгруппировать_236" data-name="Сгруппировать 236" transform="translate(14.42 31.998)">
      <path id="Контур_325" data-name="Контур 325" d="M462.5,223.16h2.742a4.87,4.87,0,0,0,4.021-2.127c.6-.843,1.855-3.761,2.377-4.661a19.654,19.654,0,0,1,2.1-3.217A13.277,13.277,0,0,1,483.515,208h19.673c3.875,0,10.741,1.184,10.741,4.688,0,3.541-4.575,4.49-18.92,4.49V224h-4.992V209.059c-5.819-.665-10.856,1.515-12.611,6.39a21.9,21.9,0,0,1-1.745,3.542c-1.615,2.885-3.759,5.013-7.69,5.013H462.5Zm32.509-6.958c3.619-.125,7.2.374,10.71-.565a6.94,6.94,0,0,0,2.215-1.008,2.455,2.455,0,0,0-.126-4.267,6.531,6.531,0,0,0-2.794-1.03c-3.263-.226-6.539-.271-9.81-.377-.056,0-.113.081-.194.143Z" transform="translate(-462.5 -207.998)" fill="#fff"/>
    </g>
  </g>
</svg>
