<svg xmlns="http://www.w3.org/2000/svg" xmlns:xlink="http://www.w3.org/1999/xlink" width="80" height="80" viewBox="0 0 80 80">
  <defs>
    <clipPath id="clip-path">
      <rect id="Прямоугольник_287" data-name="Прямоугольник 287" width="80" height="80" fill="#1c1c21"/>
    </clipPath>
  </defs>
  <g id="Группа_масок_100" data-name="Группа масок 100" clip-path="url(#clip-path)">
    <g id="Сгруппировать_225" data-name="Сгруппировать 225" transform="translate(17.143 27.603)">
      <path id="Контур_286" data-name="Контур 286" d="M390.343,479.086c-.248,1.384-.493,2.752-.736,4.12-.064.354-.125.707-.177,1.063-.017.111-.065.15-.173.149-.925,0-1.848,0-2.773,0-.147,0-.146-.074-.127-.182.1-.547.191-1.1.288-1.643q.177-1,.357-2c.128-.721.258-1.441.385-2.162q.173-.981.344-1.963.139-.8.277-1.6c.1-.574.21-1.146.3-1.722.031-.206.1-.294.319-.279.305.021.611,0,.918.006a1.582,1.582,0,0,1,1.51.947c.679,1.37,1.352,2.743,2.031,4.112.03.062.048.174.13.162.1-.014.078-.128.091-.2q.228-1.291.456-2.584c.12-.681.242-1.362.354-2.045.064-.387.055-.39.441-.39.835,0,1.671,0,2.506,0,.173,0,.2.048.17.213-.133.686-.25,1.375-.374,2.062q-.231,1.3-.462,2.6-.213,1.212-.425,2.425-.228,1.291-.459,2.584c-.087.494-.183.986-.256,1.482-.023.154-.08.187-.219.184-.319-.009-.639,0-.958,0a1.58,1.58,0,0,1-1.493-.944q-1.054-2.105-2.095-4.216C390.46,479.192,390.442,479.118,390.343,479.086Z" transform="translate(-373.379 -472.862)" fill="#fff"/>
      <path id="Контур_287" data-name="Контур 287" d="M407.174,484.418c-.448,0-.9-.006-1.344,0-.154,0-.206-.038-.176-.2q.274-1.479.537-2.961c.149-.841.286-1.683.434-2.525s.3-1.667.451-2.5.287-1.657.432-2.486c.042-.247.1-.491.133-.739.017-.112.059-.146.169-.145q1.377.005,2.751,0c.136,0,.183.035.157.175-.119.647-.232,1.295-.347,1.942q-.211,1.183-.424,2.362c-.018.1.018.137.117.137q1.14,0,2.281,0a.141.141,0,0,0,.16-.139q.327-1.9.662-3.807c.013-.073.038-.145.05-.218.08-.449.08-.45.544-.45.794,0,1.59,0,2.384,0,.168,0,.216.027.182.217-.185.992-.347,1.989-.522,2.984-.146.827-.3,1.653-.448,2.48-.121.681-.233,1.363-.353,2.045-.149.841-.3,1.681-.449,2.522-.066.374-.138.747-.192,1.122-.021.138-.073.183-.208.182q-1.354-.005-2.71,0c-.147,0-.186-.041-.159-.19.161-.88.313-1.762.469-2.643.059-.334.115-.669.179-1,.027-.149.007-.219-.175-.217q-1.07.014-2.139,0c-.154,0-.218.051-.243.2q-.252,1.483-.511,2.966c-.043.247-.105.491-.138.739-.017.129-.075.149-.186.147-.455,0-.91,0-1.366,0Z" transform="translate(-370.622 -472.861)" fill="#fff"/>
      <path id="Контур_288" data-name="Контур 288" d="M401.461,484.417c-.9,0-1.793,0-2.69,0-.153,0-.2-.031-.174-.2.158-.832.311-1.666.45-2.5.027-.162.095-.192.239-.192,1.094,0,2.187,0,3.281,0,.322,0,.353-.045.209-.337-.818-1.669-1.634-3.339-2.463-5a2.3,2.3,0,0,1,1.334-3.223,2.071,2.071,0,0,1,.64-.1q2.578.005,5.157,0c.15,0,.221.015.186.2-.153.827-.291,1.656-.432,2.486-.026.151-.094.21-.259.209-1.073-.008-2.146,0-3.219,0-.331,0-.36.041-.218.329q1.226,2.493,2.456,4.984a2.28,2.28,0,0,1-1.29,3.235,2.031,2.031,0,0,1-.7.114C403.132,484.413,402.3,484.417,401.461,484.417Z" transform="translate(-371.63 -472.861)" fill="#fff"/>
      <path id="Контур_289" data-name="Контур 289" d="M381.982,475.756c-.727,0-1.454,0-2.181,0-.149,0-.224.035-.245.192-.034.256-.081.51-.135.761-.037.171.029.208.189.207,1.1,0,2.2,0,3.3,0,.245,0,.248.009.2.254-.131.72-.263,1.44-.381,2.162-.077.475-.066.477-.553.477-1.026,0-2.051,0-3.078,0-.162,0-.234.032-.264.211-.2,1.209-.421,2.417-.635,3.625-.038.214-.087.425-.121.639-.017.109-.062.146-.173.145q-1.375-.005-2.751,0c-.142,0-.176-.048-.152-.182q.348-1.911.689-3.824c.175-.987.328-1.979.518-2.966a18.576,18.576,0,0,1,.471-2.391,3.1,3.1,0,0,1,2.057-2.034,3.392,3.392,0,0,1,1.1-.157q2.405.007,4.809,0c.179,0,.233.03.2.223-.139.726-.261,1.454-.389,2.182l-.009.04c-.086.447-.086.447-.534.447Z" transform="translate(-375 -472.861)" fill="#fff"/>
      <path id="Контур_290" data-name="Контур 290" d="M386.338,472.868c.441,0,.883,0,1.325,0,.153,0,.2.038.175.2q-.235,1.248-.456,2.5c-.147.841-.286,1.683-.434,2.525-.174.987-.357,1.974-.531,2.961-.121.681-.234,1.363-.353,2.043-.067.387-.144.774-.209,1.161-.019.121-.063.17-.2.17q-1.365-.01-2.73,0c-.162,0-.174-.065-.15-.2q.31-1.7.614-3.4.324-1.821.643-3.643c.2-1.149.4-2.3.6-3.446.04-.233.1-.464.129-.7.016-.135.069-.166.193-.165C385.415,472.872,385.876,472.868,386.338,472.868Z" transform="translate(-373.89 -472.861)" fill="#fff"/>
      <path id="Контур_291" data-name="Контур 291" d="M396.545,484.417c-.448,0-.9,0-1.345,0-.146,0-.2-.024-.168-.2.251-1.381.493-2.762.735-4.143.227-1.3.45-2.6.678-3.906.183-1.049.373-2.1.554-3.145.021-.115.063-.163.182-.163q1.377.005,2.751,0c.139,0,.168.049.143.184q-.286,1.581-.56,3.163c-.174,1-.342,1.991-.518,2.986-.147.833-.305,1.666-.453,2.5s-.288,1.669-.426,2.5c-.025.153-.081.221-.249.216C397.428,484.409,396.986,484.417,396.545,484.417Z" transform="translate(-372.139 -472.861)" fill="#fff"/>
      <g id="Сгруппировать_224" data-name="Сгруппировать 224" transform="translate(6.891 13.218)">
        <path id="Контур_292" data-name="Контур 292" d="M398.124,489.745c.091-.5.178-.962.261-1.426.094-.526.182-1.053.275-1.578.122-.693.257-1.384.365-2.079.029-.191.1-.229.273-.226.87.007,1.739.009,2.608,0,.193,0,.238.064.206.238-.093.491-.179.985-.266,1.478-.1.586-.2,1.174-.307,1.76-.121.679-.249,1.358-.369,2.037-.095.533-.183,1.066-.277,1.6s-.2,1.091-.293,1.638-.181,1.066-.274,1.6c-.063.353-.145.7-.179,1.059-.007.08-.046.152-.137.149a7.225,7.225,0,0,1-1.5-.055,1.657,1.657,0,0,1-1.095-.975q-1.015-2.062-2.039-4.12c-.026-.054-.032-.153-.125-.131-.07.016-.056.1-.066.158l-.555,3.123c-.107.607-.218,1.214-.319,1.822-.023.145-.085.186-.227.185q-1.344-.007-2.689,0c-.167,0-.189-.064-.16-.214.134-.725.254-1.451.384-2.177.1-.538.215-1.074.3-1.616.078-.5.171-1,.261-1.5q.153-.85.3-1.7c.09-.52.177-1.041.27-1.561.126-.714.256-1.426.384-2.139.032-.181.07-.36.095-.541.011-.086.048-.115.13-.114a12.147,12.147,0,0,1,1.323.017,1.5,1.5,0,0,1,1.2.839c.386.755.758,1.518,1.133,2.279.333.674.661,1.352.993,2.026A.959.959,0,0,0,398.124,489.745Z" transform="translate(-379.573 -484.427)" fill="#fff"/>
        <path id="Контур_293" data-name="Контур 293" d="M403.789,495.994c-1.223,0-2.446-.006-3.669,0-.211,0-.247-.062-.211-.251.119-.639.224-1.281.338-1.921.118-.661.242-1.32.361-1.981q.252-1.4.5-2.8c.174-.987.343-1.977.515-2.966.086-.488.178-.974.258-1.462.022-.135.079-.178.214-.178q3.739,0,7.479,0c.176,0,.208.074.181.224q-.185,1-.365,2c-.029.16-.055.321-.081.481a.214.214,0,0,1-.249.2c-1.447-.006-2.894,0-4.341-.009-.194,0-.267.071-.29.247-.029.215-.066.429-.1.643-.043.265-.043.269.215.269h3.2c.054,0,.109,0,.162,0,.125,0,.143.057.121.17-.1.557-.2,1.115-.3,1.674-.055.306-.112.613-.161.919-.019.115-.105.115-.183.118-.183.007-.367,0-.55.006-.945,0-1.889,0-2.833,0-.17,0-.251.038-.278.227-.056.416-.142.829-.216,1.242-.043.234-.023.262.215.262q2.121,0,4.239,0c.278,0,.3.013.249.288-.093.527-.21,1.048-.293,1.576-.042.274-.1.546-.136.822-.021.165-.1.2-.259.2C406.274,495.992,405.031,495.994,403.789,495.994Z" transform="translate(-378.334 -484.426)" fill="#fff"/>
        <path id="Контур_294" data-name="Контур 294" d="M384.916,495.993c-.734,0-1.467-.013-2.2,0a1.617,1.617,0,0,1-1.646-1.238,1.8,1.8,0,0,1,0-.749q.435-2.5.875-4.991c.2-1.121.4-2.241.6-3.362.063-.354.125-.707.178-1.063.017-.109.063-.153.171-.153q1.4,0,2.791,0c.117,0,.136.062.12.158-.065.381-.128.761-.2,1.141-.1.539-.2,1.079-.291,1.618s-.185,1.066-.278,1.6c-.1.56-.194,1.12-.295,1.679-.122.687-.238,1.374-.375,2.058-.081.408-.089.418.317.417,1.059,0,2.119-.007,3.177-.011.142,0,.21.037.179.2q-.237,1.269-.451,2.541c-.026.155-.119.154-.233.154h-2.445Z" transform="translate(-381.029 -484.426)" fill="#fff"/>
        <path id="Контур_295" data-name="Контур 295" d="M389.167,496c-.442,0-.883,0-1.325,0-.153,0-.215-.024-.183-.207.338-1.889.665-3.781,1-5.671.31-1.757.633-3.51.929-5.269.078-.467.071-.413.509-.414.8,0,1.59,0,2.384,0,.171,0,.261.013.217.231-.12.6-.216,1.2-.32,1.8-.114.661-.226,1.321-.342,1.982q-.225,1.27-.451,2.539c-.121.688-.239,1.376-.36,2.064-.163.934-.33,1.867-.49,2.8-.025.143-.115.144-.223.144C390.063,495.994,389.615,496,389.167,496Z" transform="translate(-380.083 -484.426)" fill="#fff"/>
        <path id="Контур_296" data-name="Контур 296" d="M408.534,494.239a.665.665,0,0,0-.031.277c-.007.055.025.137-.069.138s-.091-.078-.09-.147c0-.15,0-.3,0-.448,0-.07.016-.168-.109-.139-.091.021-.238-.043-.231.143,0,.15,0,.3,0,.449,0,.07,0,.151-.093.147s-.089-.086-.09-.154c0-.1,0-.2,0-.306.007-.151.013-.295-.207-.275-.045,0-.081-.018-.073-.073a.092.092,0,0,1,.1-.08,4.634,4.634,0,0,1,.489,0,.949.949,0,0,0,.336,0c.1-.026.163.047.177.15a.44.44,0,0,0,.067.21c.032.043,0,.144.091.128.067-.011.067-.093.087-.15.031-.089.062-.178.091-.269s.086-.078.149-.077c.086,0,.093.064.094.129,0,.21,0,.421,0,.631,0,.051.009.121-.067.127a.091.091,0,0,1-.11-.091c0-.04-.013-.085-.065-.087s-.066.039-.075.08c-.015.069-.053.111-.127.1s-.095-.063-.114-.126A.651.651,0,0,0,408.534,494.239Z" transform="translate(-377.242 -483.093)" fill="#fff"/>
      </g>
    </g>
  </g>
</svg>
