<svg xmlns="http://www.w3.org/2000/svg" xmlns:xlink="http://www.w3.org/1999/xlink" width="80" height="80" viewBox="0 0 80 80">
  <defs>
    <clipPath id="clip-path">
      <rect id="Прямоугольник_313" data-name="Прямоугольник 313" width="80" height="80" fill="#1c1c21"/>
    </clipPath>
  </defs>
  <g id="Группа_масок_125" data-name="Группа масок 125" clip-path="url(#clip-path)">
    <g id="Grupo_23" data-name="Grupo 23" transform="translate(14.286 28.096)">
      <g id="Group_6" data-name="Group 6">
        <path id="Fill_3" data-name="Fill 3" d="M504.205,127.485h-4.041a4.274,4.274,0,0,1,1.457-4.472c.568-.44,1.182-.822,1.739-1.273a2.051,2.051,0,0,0,.809-2.422,1.724,1.724,0,0,0-1.954-.973,2.038,2.038,0,0,0-1.869,1.733c-.059.287-.065.582-.11,1.013h-4.43a5.958,5.958,0,0,1,5.441-6.432l.136-.009a9.584,9.584,0,0,1,4.8.669c3.569,1.565,4.094,6.739.76,8.683-.311.182-.594.406-.9.59-1.088.647-1.967,1.432-1.835,2.894" transform="translate(-457.745 -114.584)" fill="#fff"/>
        <path id="Fill_4" data-name="Fill 4" d="M491.863,132.617a6.151,6.151,0,0,1-4.3-1.581,6.336,6.336,0,0,1-1.9-4.264,9.655,9.655,0,0,1,.183-2.911,6.579,6.579,0,0,1,2.165-3.617,5.817,5.817,0,0,1,3.753-1.335c.222,0,.442.013.663.035a6.28,6.28,0,0,1,5.585,6.089c.018.3.014.607.009.931,0,.163,0,.33,0,.51h-9.453a3.346,3.346,0,0,0,1.741,3.558,3.673,3.673,0,0,0,1.6.35,3.429,3.429,0,0,0,2.567-1.023,4.472,4.472,0,0,1,.962-.912,1.769,1.769,0,0,1,1-.272,5.993,5.993,0,0,1,1.25.175,5.42,5.42,0,0,1-5.2,4.243C492.275,132.609,492.066,132.617,491.863,132.617Zm-.032-11.439a3.226,3.226,0,0,0-3.319,3h6.507a3.19,3.19,0,0,0-3.187-3h0Z" transform="translate(-459.197 -113.966)" fill="#fff"/>
        <path id="Fill_5" data-name="Fill 5" d="M473.571,123c-.871,0-1.682.026-2.49-.018a.869.869,0,0,1-.553-.4,3.344,3.344,0,0,0-4.415-.858,1.075,1.075,0,0,0,.033,1.875,8.077,8.077,0,0,0,1.99.767c1.189.347,2.416.568,3.585.967a3.127,3.127,0,0,1,2.3,2.878,3.447,3.447,0,0,1-1.759,3.472,7.885,7.885,0,0,1-7.607.226,3.85,3.85,0,0,1-2.151-3.575h2.711c.709,2.241,2.568,2.573,4.951,1.822a1.635,1.635,0,0,0,.952-1.176,1.779,1.779,0,0,0-.774-1.4,16.572,16.572,0,0,0-2.786-.863,27.2,27.2,0,0,1-2.8-.843,3.107,3.107,0,0,1-1.983-3.1,3.072,3.072,0,0,1,1.891-2.959,7.738,7.738,0,0,1,6.547-.149A3.857,3.857,0,0,1,473.57,123" transform="translate(-462.5 -113.95)" fill="#fff"/>
      </g>
      <path id="Fill_7" data-name="Fill 7" d="M476.267,119.369H487.14a3.152,3.152,0,0,1-.757,2.99c-2.209,2.44-4.3,4.987-6.589,7.675H487.2v2.208H476.282a3.291,3.291,0,0,1,.675-2.91c2.161-2.48,4.208-5.058,6.435-7.762h-7.126v-2.2" transform="translate(-460.541 -113.9)" fill="#fff"/>
      <path id="Fill_8" data-name="Fill 8" d="M473.182,132.229V119.4h2.738v12.834h-2.738" transform="translate(-460.974 -113.896)" fill="#fff"/>
      <path id="Fill_9" data-name="Fill 9" d="M503.574,131.151h-3.95v-3.96h3.95v3.96" transform="translate(-457.197 -112.782)" fill="#fff"/>
      <path id="Fill_10" data-name="Fill 10" d="M475.916,118.622h-2.728v-2.553h2.728v2.553" transform="translate(-460.973 -114.371)" fill="#fff"/>
    </g>
  </g>
</svg>
