<svg xmlns="http://www.w3.org/2000/svg" xmlns:xlink="http://www.w3.org/1999/xlink" width="80" height="80" viewBox="0 0 80 80">
  <defs>
    <clipPath id="clip-path">
      <rect id="Прямоугольник_307" data-name="Прямоугольник 307" width="80" height="80" transform="translate(-0.307)" fill="#1c1c21"/>
    </clipPath>
  </defs>
  <g id="Группа_масок_119" data-name="Группа масок 119" transform="translate(0.307)" clip-path="url(#clip-path)">
    <g id="Сгруппировать_237" data-name="Сгруппировать 237" transform="translate(13.987 31.577)">
      <path id="Контур_326" data-name="Контур 326" d="M41.877,493.185H20.666a8.336,8.336,0,0,1-8.074-7.021,8.565,8.565,0,0,1,7.507-9.721,7.7,7.7,0,0,1,3.527.211,17.676,17.676,0,0,1,1.845.869.413.413,0,0,1,.231.415c-.006,1.2,0,2.393-.011,3.59a.522.522,0,0,1-.19.367c-.143.1-.273-.011-.384-.134a4.6,4.6,0,0,0-2.658-1.346,4.9,4.9,0,0,0-4.9,1.52,4.177,4.177,0,0,0-.715,4.8,4.11,4.11,0,0,0,3.992,2.521q21.211.017,42.423.006c.075,0,.151,0,.227,0a.3.3,0,0,1,.333.329q0,1.63,0,3.262a.3.3,0,0,1-.327.33c-.127,0-.254,0-.379,0Z" transform="translate(-12.5 -476.339)" fill="#fff"/>
      <path id="Контур_327" data-name="Контур 327" d="M34.751,482.953c-.374.047-.743.069-1.1.142a.751.751,0,0,0-.705.818c-.029.7-.025,1.4-.03,2.1,0,.64-.006,1.28,0,1.92,0,.214-.075.307-.294.306q-1.125-.009-2.249,0c-.211,0-.3-.08-.3-.3q.005-3.641,0-7.28c0-.222.09-.295.3-.293.623.009,1.247,0,1.87,0,.326,0,.35.025.352.341,0,.091,0,.183,0,.273.03,0,.054.015.061.009a2.4,2.4,0,0,1,1.833-.626c.217,0,.3.075.3.3-.009.64,0,1.28,0,1.92a.5.5,0,0,0,.029.178,4.275,4.275,0,0,1,2.368-2.45,3.8,3.8,0,0,1,3.386.193,4.112,4.112,0,0,1-2.8,7.643A4.216,4.216,0,0,1,34.751,482.953Zm2.613,1.175a1.342,1.342,0,0,0,1.319,1.4,1.405,1.405,0,1,0-1.319-1.4Z" transform="translate(-9.99 -475.816)" fill="#fff"/>
      <path id="Контур_328" data-name="Контур 328" d="M25.131,485.732q0,1.063,0,2.125c0,.317-.037.354-.344.354q-1.087,0-2.174,0c-.31,0-.341-.033-.341-.353,0-1.2.015-2.393,0-3.59a1.367,1.367,0,0,0-.859-1.369,1.669,1.669,0,0,0-1.759.269,1.454,1.454,0,0,0-.4,1.507,1.257,1.257,0,0,0,1.021,1.031,2.254,2.254,0,0,0,1.391-.071c.3-.112.381-.055.382.267,0,.555-.006,1.112,0,1.669a.529.529,0,0,1-.333.539,3.445,3.445,0,0,1-2.729.083,4.034,4.034,0,0,1-2.611-4.231,4.141,4.141,0,0,1,4.609-3.789,5.607,5.607,0,0,1,2.3.632,3.25,3.25,0,0,1,1.835,3.106v1.819Z" transform="translate(-11.95 -475.792)" fill="#fff"/>
      <path id="Контур_329" data-name="Контур 329" d="M45.334,480.01a4.12,4.12,0,1,1-4.072,4.119A4.143,4.143,0,0,1,45.334,480.01Zm0,5.517a1.4,1.4,0,1,0-1.312-1.387A1.358,1.358,0,0,0,45.332,485.527Z" transform="translate(-8.391 -475.814)" fill="#fff"/>
      <path id="Контур_330" data-name="Контур 330" d="M55.319,482.905c.2.1.4.2.6.3.384.192.786.354,1.15.577a2.147,2.147,0,0,1,1.085,2.495,2.206,2.206,0,0,1-1.938,1.831,8.866,8.866,0,0,1-1.233.074c-.715.011-1.432,0-2.147,0-.3,0-.331-.033-.331-.335,0-.607.01-1.214-.006-1.821-.006-.253.091-.32.327-.315.657.01,1.314,0,1.971,0a.7.7,0,0,0,.176,0c.107-.029.211-.071.317-.107-.08-.086-.144-.2-.242-.25-.386-.185-.792-.331-1.176-.521a2.42,2.42,0,0,1-.755-3.686,2.569,2.569,0,0,1,1.8-.816c.866-.033,1.735-.01,2.6-.016.186,0,.256.088.255.264,0,.615,0,1.23,0,1.845,0,.2-.091.266-.28.264-.582,0-1.163-.007-1.744,0a2.23,2.23,0,0,0-.415.085Z" transform="translate(-6.787 -475.77)" fill="#fff"/>
      <path id="Контур_331" data-name="Контур 331" d="M51.208,480.482H52.6c.323,0,.359.038.359.366,0,.649-.006,1.3,0,1.947,0,.243-.1.331-.333.327-.463-.008-.926,0-1.408,0-.008.077-.021.141-.021.2,0,.582,0,1.162,0,1.744a.715.715,0,0,0,.718.833,7.908,7.908,0,0,0,.807.05.231.231,0,0,1,.258.265q0,.974,0,1.947c0,.166-.075.255-.242.253a17.536,17.536,0,0,1-1.869-.043,2.676,2.676,0,0,1-2.433-2.838c-.021-2.175,0-4.349-.008-6.523,0-.222.077-.322.31-.319q1.087.012,2.175,0c.219,0,.3.088.293.3C51.2,479.478,51.208,479.957,51.208,480.482Z" transform="translate(-7.367 -476.002)" fill="#fff"/>
      <path id="Контур_332" data-name="Контур 332" d="M27.218,483.007v5.209c0,.378-.01.389-.376.39-.717,0-1.433-.008-2.149,0-.242,0-.326-.082-.325-.323q.007-5.283,0-10.568c0-.235.095-.31.318-.307.733.007,1.465,0,2.2,0,.3,0,.333.034.333.336Z" transform="translate(-10.805 -476.186)" fill="#fff"/>
      <path id="Контур_333" data-name="Контур 333" d="M27.185,484.229q0-1.795,0-3.589c0-.3.027-.329.335-.329q1.073,0,2.147,0c.311,0,.342.033.342.352v7.176c0,.311-.026.337-.327.338q-1.087,0-2.173,0c-.306,0-.325-.021-.325-.336Q27.184,486.036,27.185,484.229Z" transform="translate(-10.402 -475.771)" fill="#fff"/>
      <path id="Контур_334" data-name="Контур 334" d="M27.047,478.848a1.576,1.576,0,0,1,3.152.006,1.576,1.576,0,1,1-3.152-.006Z" transform="translate(-10.422 -476.204)" fill="#fff"/>
    </g>
  </g>
</svg>
