<svg xmlns="http://www.w3.org/2000/svg" xmlns:xlink="http://www.w3.org/1999/xlink" width="80" height="80" viewBox="0 0 80 80">
  <defs>
    <clipPath id="clip-path">
      <rect id="Прямоугольник_301" data-name="Прямоугольник 301" width="80" height="80" transform="translate(0.307)" fill="#1c1c21"/>
    </clipPath>
  </defs>
  <g id="Группа_масок_114" data-name="Группа масок 114" transform="translate(-0.307)" clip-path="url(#clip-path)">
    <g id="Сгруппировать_233" data-name="Сгруппировать 233" transform="translate(15.157 31.44)">
      <g id="Group_6-2" data-name="Group 6-2">
        <path id="Fill_1" data-name="Fill 1" d="M63.739,121.612c.007-.962-.013-1.926.018-2.888a1.2,1.2,0,0,0-1.144-1.207c-1.163-.009-2.326,0-3.49-.006a2.113,2.113,0,0,0-.495.04,1.19,1.19,0,0,0-.91,1.113c-.013,1.163,0,2.326-.006,3.487a1.592,1.592,0,0,0,.128.746,1.2,1.2,0,0,0,1.038.663c1.143,0,2.285,0,3.427,0a2.147,2.147,0,0,0,.586-.043,1.184,1.184,0,0,0,.811-.8,4.587,4.587,0,0,0,.034-1.105" transform="translate(-6.614 -117.51)" fill="#fff"/>
        <path id="Fill_3" data-name="Fill 3" d="M32.4,118.895a4.413,4.413,0,0,0-.04-.894.54.54,0,0,0-.569-.39c-.59.019-1.185-.034-1.77.024a.5.5,0,0,0-.375.478c-.011.461,0,.923-.006,1.386a.857.857,0,0,0,.085.5.548.548,0,0,0,.5.241c.541,0,1.083.006,1.624,0a.534.534,0,0,0,.531-.449,6.543,6.543,0,0,0,.024-.9" transform="translate(-10.625 -117.496)" fill="#fff"/>
        <path id="Fill_4" data-name="Fill 4" d="M33.225,137.727h0c0-2.917,0-5.882,0-8.746V121.6a3.938,3.938,0,0,1,.871-2.4,4.046,4.046,0,0,1,3.254-1.638,3.921,3.921,0,0,1,2.221.675,4.481,4.481,0,0,1,1.52,1.722,5.186,5.186,0,0,1,.354,1.765v8.231a4.754,4.754,0,0,1-.731,2.715,3.53,3.53,0,0,1-1.425,1.27,4.09,4.09,0,0,1-1.747.362c-.065,0-.133,0-.2,0a1.923,1.923,0,0,1-1.409-.737c0,.712,0,1.434,0,2.134,0,.666,0,1.354,0,2.031H34.387c-.319,0-.739,0-1.162,0Zm4.085-17.245a1.245,1.245,0,0,0-.243.023,1.356,1.356,0,0,0-1.137,1.277c0,1.783,0,3.6,0,5.352V130.2a1.3,1.3,0,0,0,.765,1.183,1.566,1.566,0,0,0,.633.134,1.448,1.448,0,0,0,.907-.306,1.4,1.4,0,0,0,.506-1.131v-7.869a2.208,2.208,0,0,0-.1-.833A1.437,1.437,0,0,0,37.309,120.482Z" transform="translate(-10.112 -117.503)" fill="#fff"/>
        <path id="Fill_5" data-name="Fill 5" d="M20.406,125.019a4.493,4.493,0,0,0-3.186-1.609,1.62,1.62,0,0,1-1.171-.519,1.575,1.575,0,0,1,.168-2.182,1.593,1.593,0,0,1,1.61-.137,1.383,1.383,0,0,1,.7.994c.894,0,1.789,0,2.682,0a3.7,3.7,0,0,0-.68-2.191,4.3,4.3,0,0,0-3.07-1.73,3.682,3.682,0,0,0-1.069.04,3.96,3.96,0,0,0-2.442,1.475,4.457,4.457,0,0,0,.33,5.866,3.887,3.887,0,0,0,2.771,1.167,1.744,1.744,0,0,1,1.066.288,1.157,1.157,0,0,1,.411.941c0,.782,0,1.563,0,2.345a1.5,1.5,0,0,1-.786,1.531,1.7,1.7,0,0,1-1.495-.129,1.433,1.433,0,0,1-.538-1.159V127.8c-.9,0-1.8,0-2.7,0,0,.8,0,1.592,0,2.389a4.506,4.506,0,0,0,2.334,3.558,3.923,3.923,0,0,0,2.495.379,3.805,3.805,0,0,0,2.517-1.413,4.022,4.022,0,0,0,.872-2.585v-2.709a3.778,3.778,0,0,0-.814-2.4" transform="translate(-13.001 -117.494)" fill="#fff"/>
      </g>
      <path id="Fill_7" data-name="Fill 7" d="M45.57,134.181h0a4.056,4.056,0,0,1-2.227-.621,3.963,3.963,0,0,1-1.757-2.575,4.529,4.529,0,0,1-.075-1.039V121.6a4.008,4.008,0,0,1,.472-1.928,3.859,3.859,0,0,1,2.255-1.873,4.572,4.572,0,0,1,1.307-.192,4.121,4.121,0,0,1,3.366,1.69,3.77,3.77,0,0,1,.819,2.243c.009.387.008.782.006,1.163v.7c0,.314,0,.634,0,.944,0,.526.007,1.07-.015,1.6h-5.55v4.006a1.433,1.433,0,0,0,.669,1.218,1.391,1.391,0,0,0,.757.21,1.818,1.818,0,0,0,.6-.106,1.326,1.326,0,0,0,.8-1.263v-.594c0-.52,0-1.057,0-1.586h1.6c.445,0,.789,0,1.113-.01-.006.567-.006,1.142,0,1.7v.671a4.1,4.1,0,0,1-1.089,2.73,3.947,3.947,0,0,1-2.21,1.189A4.919,4.919,0,0,1,45.57,134.181Zm.011-13.769a1.3,1.3,0,0,0-.551.105,1.428,1.428,0,0,0-.858,1.259v.731c0,.289,0,.587,0,.881.515,0,1.041,0,1.551,0h1.339v-.837h0v-.713a1.465,1.465,0,0,0-1.13-1.4,2.74,2.74,0,0,0-.35-.026Z" transform="translate(-8.928 -117.497)" fill="#fff"/>
      <path id="Fill_8" data-name="Fill 8" d="M57.157,125.127a4.448,4.448,0,0,0-2.694-1.642,5.793,5.793,0,0,1-1.264-.23,1.447,1.447,0,0,1-.818-1.011,1.763,1.763,0,0,1,.123-1.033,1.274,1.274,0,0,1,.87-.743,1.54,1.54,0,0,1,1.441.343,1.878,1.878,0,0,1,.381.758c.889-.007,1.778,0,2.669,0a3.707,3.707,0,0,0-.434-1.815,4.281,4.281,0,0,0-1.951-1.755,4.027,4.027,0,0,0-5.229,1.68,4.588,4.588,0,0,0-.518,3.016,4.072,4.072,0,0,0,1.008,2.135,3.957,3.957,0,0,0,2.931,1.368,1.667,1.667,0,0,1,1.174.353,1.3,1.3,0,0,1,.353,1c-.006.821,0,1.643,0,2.465a1.461,1.461,0,0,1-.736,1.263,1.7,1.7,0,0,1-1.537-.1,1.383,1.383,0,0,1-.544-1.167c0-.736,0-1.473,0-2.209-.9,0-1.8,0-2.7,0v1.485a6.325,6.325,0,0,0,.091,1.561,4.535,4.535,0,0,0,1.84,2.658,3.645,3.645,0,0,0,2.177.674,4.023,4.023,0,0,0,2.925-1.127,3.98,3.98,0,0,0,1.178-2.806c0-.92,0-1.841,0-2.76a3.9,3.9,0,0,0-.736-2.355" transform="translate(-7.763 -117.494)" fill="#fff"/>
      <path id="Fill_9" data-name="Fill 9" d="M28.972,119.775a4.55,4.55,0,0,0-2.155-1.858,4.07,4.07,0,0,0-2.608-.1,4.429,4.429,0,0,0-2.229,1.657,3.951,3.951,0,0,0-.729,2.416q0,6.053,0,12.1c.9.009,1.792,0,2.689,0q0-6.055,0-12.11a1.462,1.462,0,0,1,1.079-1.4,1.423,1.423,0,0,1,1.118.2,1.577,1.577,0,0,1,.672,1.383c.007,3.977,0,7.954,0,11.931.889,0,1.779,0,2.67,0V121.711a3.726,3.726,0,0,0-.511-1.936" transform="translate(-11.822 -117.49)" fill="#fff"/>
      <path id="Fill_10" data-name="Fill 10" d="M29.636,121.432q0,6.014,0,12.027c.894,0,1.786,0,2.68,0q.007-6.015,0-12.03H29.636" transform="translate(-10.624 -116.95)" fill="#fff"/>
    </g>
  </g>
</svg>
