<svg xmlns="http://www.w3.org/2000/svg" xmlns:xlink="http://www.w3.org/1999/xlink" width="80" height="80" viewBox="0 0 80 80">
  <defs>
    <clipPath id="clip-path">
      <rect id="Прямоугольник_283" data-name="Прямоугольник 283" width="80" height="80" transform="translate(0.307)" fill="#1c1c21"/>
    </clipPath>
  </defs>
  <g id="Группа_масок_96" data-name="Группа масок 96" transform="translate(-0.307)" clip-path="url(#clip-path)">
    <g id="Сгруппировать_221" data-name="Сгруппировать 221" transform="translate(23.157 25.032)">
      <path id="Контур_273" data-name="Контур 273" d="M486.571,411.839h-5.583v-7.533c-.407.2-.785.391-1.17.568a.24.24,0,0,0-.158.257q.007,2.388,0,4.776v.2h-5.586v-2.389l-.979.475c-.03-.056-.049-.093-.067-.13q-1.032-2.085-2.063-4.169c-.32-.646-.646-1.29-.968-1.935v-.035a1.046,1.046,0,0,0,.1-.038c1.258-.619,2.517-1.243,3.777-1.858a.317.317,0,0,0,.211-.334q-.01-8.784-.006-17.569V381.9h5.593v15.251l.182-.086c.318-.158.631-.321.953-.469a.27.27,0,0,0,.184-.29q-.007-6.235,0-12.47v-.227h5.582v10.136c.208-.1.385-.209.576-.28s.211-.17.211-.346q-.009-5.314,0-10.627v-.235h5.591V390.6c.311-.153.593-.3.882-.432a.282.282,0,0,0,.2-.3q-.01-3.694-.006-7.39v-.215h5.591v5.049l1.584-.779,3.093,6.257-.095.05c-1.47.727-2.939,1.457-4.413,2.178a.276.276,0,0,0-.182.293q.007,7.469,0,14.939v.223h-5.584v-12.6c-.315.157-.6.306-.895.44a.269.269,0,0,0-.185.288q.009,5.823,0,11.648v.225h-5.59v-9.3c-.221.106-.416.211-.619.3a.244.244,0,0,0-.163.27Q486.575,406.784,486.571,411.839Z" transform="translate(-470 -381.903)" fill="#fff"/>
    </g>
  </g>
</svg>
