<svg xmlns="http://www.w3.org/2000/svg" width="10" height="10" viewBox="0 0 10 10">
  <g id="clear_circle" transform="translate(-2.247 -2.247)">
    <path id="Icon_color" data-name="Icon color" d="M5,10a5,5,0,1,1,5-5A5.006,5.006,0,0,1,5,10ZM5,5.62H5l.93.924a.239.239,0,0,0,.35,0l.265-.265a.239.239,0,0,0,0-.35L5.62,5l.925-.93a.239.239,0,0,0,0-.35L6.28,3.455a.239.239,0,0,0-.35,0L5,4.38l-.93-.925a.239.239,0,0,0-.35,0l-.265.265a.239.239,0,0,0,0,.35L4.38,5l-.925.93a.239.239,0,0,0,0,.35l.265.265a.239.239,0,0,0,.35,0L5,5.62Z" transform="translate(2.247 2.247)" fill="#212226"/>
  </g>
</svg>
