<svg xmlns="http://www.w3.org/2000/svg" xmlns:xlink="http://www.w3.org/1999/xlink" width="21" height="20" viewBox="0 0 21 20">
  <defs>
    <clipPath id="clip-path">
      <rect id="Прямоугольник_799" data-name="Прямоугольник 799" width="21" height="20" transform="translate(-0.311)" fill="none" stroke="#707070" stroke-width="1"/>
    </clipPath>
  </defs>
  <g id="Группа_масок_197" data-name="Группа масок 197" transform="translate(0.311)" clip-path="url(#clip-path)">
    <g id="Сгруппировать_604" data-name="Сгруппировать 604" transform="translate(2.107 4.34)">
      <path id="Контур_1787" data-name="Контур 1787" d="M57.489,69.608a6.777,6.777,0,0,0-3.852-1.44l-.192.219a9.121,9.121,0,0,1,3.413,1.741,11.172,11.172,0,0,0-4.127-1.317,11.6,11.6,0,0,0-2.77.028,1.3,1.3,0,0,0-.232.027,10.29,10.29,0,0,0-3.113.864c-.507.232-.809.4-.809.4a9.248,9.248,0,0,1,3.606-1.8l-.137-.164a6.78,6.78,0,0,0-3.853,1.44A18.363,18.363,0,0,0,43.45,77.6a4.968,4.968,0,0,0,4.181,2.084s.508-.617.919-1.138a4.264,4.264,0,0,1-2.4-1.618s.137.1.383.232a.173.173,0,0,0,.055.041c.041.027.082.041.123.068a8.109,8.109,0,0,0,1,.467,11.528,11.528,0,0,0,2.016.59,9.6,9.6,0,0,0,3.55.013,9.04,9.04,0,0,0,1.989-.59,7.839,7.839,0,0,0,1.576-.809,4.327,4.327,0,0,1-2.482,1.632c.411.521.905,1.111.905,1.111a5.011,5.011,0,0,0,4.2-2.084A18.356,18.356,0,0,0,57.489,69.608Zm-8.6,6.718a1.528,1.528,0,0,1,0-3.044,1.528,1.528,0,0,1,0,3.044Zm5,0A1.528,1.528,0,1,1,55.3,74.8,1.47,1.47,0,0,1,53.9,76.327Z" transform="translate(-43.45 -68.169)" fill="#fff"/>
    </g>
  </g>
</svg>
