<svg id="instagram" xmlns="http://www.w3.org/2000/svg" width="20" height="20" viewBox="0 0 20 20">
  <path id="Icon_color" data-name="Icon color" d="M10.833,15H4.167A4.172,4.172,0,0,1,0,10.833V4.167A4.172,4.172,0,0,1,4.167,0h6.666A4.172,4.172,0,0,1,15,4.167v6.666A4.172,4.172,0,0,1,10.833,15ZM4.167,1.458A2.726,2.726,0,0,0,1.458,4.167v6.666a2.726,2.726,0,0,0,2.709,2.709h6.666a2.726,2.726,0,0,0,2.709-2.709V4.167a2.726,2.726,0,0,0-2.709-2.709ZM7.5,11.25a3.75,3.75,0,0,1,0-7.5h.008a3.75,3.75,0,0,1-.008,7.5Zm0-6.042A2.292,2.292,0,1,0,9.792,7.5,2.295,2.295,0,0,0,7.5,5.208Zm3.958-.833a.833.833,0,1,1,.833-.833A.834.834,0,0,1,11.458,4.375Z" transform="translate(3 3)" fill="#fff"/>
</svg>
