<svg id="linkedin_square" xmlns="http://www.w3.org/2000/svg" width="20" height="20" viewBox="0 0 20 20">
  <path id="Icon_color" data-name="Icon color" d="M13.333,15H1.666A1.668,1.668,0,0,1,0,13.333V1.666A1.668,1.668,0,0,1,1.666,0H13.333A1.668,1.668,0,0,1,15,1.666V13.333A1.668,1.668,0,0,1,13.333,15ZM9.166,7.708a1.251,1.251,0,0,1,1.25,1.25v3.125a.417.417,0,0,0,.416.417h1.25a.417.417,0,0,0,.417-.417V8.25a2.577,2.577,0,0,0-2.267-2.617c-.075-.007-.152-.01-.228-.01A2.491,2.491,0,0,0,7.917,6.75v-.5A.417.417,0,0,0,7.5,5.833H6.25a.417.417,0,0,0-.416.416v5.833a.417.417,0,0,0,.416.417H7.5a.417.417,0,0,0,.417-.417V8.958A1.251,1.251,0,0,1,9.166,7.708ZM2.917,5.833A.417.417,0,0,0,2.5,6.25v5.833a.417.417,0,0,0,.417.417h1.25a.417.417,0,0,0,.416-.417V6.25a.417.417,0,0,0-.416-.416ZM3.542,2.5a1.25,1.25,0,1,0,1.25,1.25A1.251,1.251,0,0,0,3.542,2.5Z" transform="translate(3 3)" fill="#fff"/>
</svg>
