<svg xmlns="http://www.w3.org/2000/svg" width="170" height="26.751" viewBox="0 0 170 26.751">
  <g id="Сгруппировать_9" data-name="Сгруппировать 9" transform="translate(-253.384 -461.103)">
    <path id="Контур_1" data-name="Контур 1" d="M533.241,461.1c-10.974,0-18.31,5.346-18.31,13.38s7.336,13.371,18.31,13.371c10.994,0,18.329-5.346,18.329-13.371S544.234,461.1,533.241,461.1Zm0,19.357c-4.919,0-8.219-2.406-8.219-5.977s3.3-5.987,8.219-5.987,8.248,2.406,8.248,5.987S538.17,480.46,533.241,480.46Z" transform="translate(-171.343 0)" fill="#f6f6f6"/>
    <path id="Контур_2" data-name="Контур 2" d="M402.754,488.647H390.6l-6.666-7.384-6.656,7.384H365.281l.611-.66,11.45-12.371-11.974-11.974h12.061l6.4,6.482,6.579-6.482h12.274l-.417.408-.3.291-11.537,11.168,11.7,12.478.136.145Z" transform="translate(-73.305 -1.666)" fill="#f6f6f6"/>
    <path id="Контур_3" data-name="Контур 3" d="M489.606,463.642v25H478.622v-25Z" transform="translate(-147.594 -1.666)" fill="#f6f6f6"/>
    <path id="Контур_4" data-name="Контур 4" d="M291.862,488.628H279.971L273.9,476.674l-.706-1.368-6.768,13.322h-13.04l12.735-25.014h13.03l-.211.408L273.2,475.3h11.881Z" transform="translate(0 -1.648)" fill="#f6f6f6"/>
    <path id="Контур_5" data-name="Контур 5" d="M667.375,463.642v25h-9.082V475.2L651.5,488.647H642l-7.076-13.475v13.475h-9.082v-25h12.323l8.422,16.5,8.325-16.5Z" transform="translate(-243.991 -1.666)" fill="#f6f6f6"/>
  </g>
</svg>
