<svg xmlns="http://www.w3.org/2000/svg" width="127.125" height="20.004" viewBox="0 0 127.125 20.004">
  <g id="Сгруппировать_9" data-name="Сгруппировать 9" transform="translate(-253.384 -461.103)">
    <path id="Контур_1" data-name="Контур 1" d="M528.623,461.1c-8.206,0-13.692,4-13.692,10.006s5.486,10,13.692,10,13.706-4,13.706-10S536.844,461.1,528.623,461.1Zm0,14.475c-3.679,0-6.146-1.8-6.146-4.47s2.467-4.477,6.146-4.477,6.168,1.8,6.168,4.477S532.309,475.578,528.623,475.578Z" transform="translate(-194.093 0)" fill="#1c1c21"/>
    <path id="Контур_2" data-name="Контур 2" d="M393.3,482.341h-9.092l-4.985-5.522-4.978,5.522h-8.968l.457-.493L374.3,472.6l-8.954-8.954h9.019l4.789,4.847,4.919-4.847h9.179l-.312.3-.225.218-8.627,8.352,8.751,9.331.1.109Z" transform="translate(-83.038 -1.886)" fill="#1c1c21"/>
    <path id="Контур_3" data-name="Контур 3" d="M486.836,463.642v18.7h-8.214v-18.7Z" transform="translate(-167.176 -1.886)" fill="#1c1c21"/>
    <path id="Контур_4" data-name="Контур 4" d="M282.158,482.32h-8.892l-4.541-8.939-.528-1.023-5.061,9.962h-9.751l9.523-18.706h9.744l-.158.3L268.2,472.35h8.884Z" transform="translate(0 -1.865)" fill="#1c1c21"/>
    <path id="Контур_5" data-name="Контур 5" d="M656.9,463.642v18.7H650.11V472.286l-5.081,10.055h-7.1l-5.291-10.077v10.077h-6.791v-18.7h9.215l6.3,12.342,6.226-12.342Z" transform="translate(-276.392 -1.886)" fill="#1c1c21"/>
  </g>
</svg>
