<svg id="award" xmlns="http://www.w3.org/2000/svg" width="50" height="50" viewBox="0 0 50 50">
  <path id="Icon_color" data-name="Icon color" d="M26.042,41.666H11.458a1.042,1.042,0,0,1-1.041-1.041V38.542A1.043,1.043,0,0,1,11.458,37.5h5.209V29.167a8.34,8.34,0,0,1-8.042-6.251H8.332A8.342,8.342,0,0,1,0,14.584V6.249A2.085,2.085,0,0,1,2.083,4.166H8.332V2.083A2.086,2.086,0,0,1,10.417,0H27.083a2.086,2.086,0,0,1,2.085,2.083V4.166h6.249A2.085,2.085,0,0,1,37.5,6.249v8.334a8.342,8.342,0,0,1-8.333,8.332h-.292a8.339,8.339,0,0,1-8.042,6.251V37.5h5.209a1.043,1.043,0,0,1,1.041,1.042v2.083A1.042,1.042,0,0,1,26.042,41.666ZM29.167,8.332V18.75a4.172,4.172,0,0,0,4.166-4.166V8.332Zm-25,0v6.251A4.171,4.171,0,0,0,8.332,18.75V8.332Z" transform="translate(6.25 4.167)" fill="#00e5b9"/>
</svg>
