<svg id="ico_24_technology_data_cloud_on" data-name="ico / 24 / technology &amp; data / cloud_on" xmlns="http://www.w3.org/2000/svg" width="50" height="50" viewBox="0 0 50 50">
  <path id="Icon_color" data-name="Icon color" d="M34.483,33.332h0c-.143,0-.288,0-.431-.008H10.318a10.437,10.437,0,0,1,0-20.872A12.576,12.576,0,0,1,13.61,4.021,12.3,12.3,0,0,1,21.666.045c.348-.03.7-.045,1.049-.045A12.393,12.393,0,0,1,34.9,10.365a11.52,11.52,0,0,1,7.45,19.76A11.231,11.231,0,0,1,34.483,33.332ZM17.242,17.35a1.044,1.044,0,0,0-.733.3L15.4,18.776a1.057,1.057,0,0,0,0,1.461l4.4,4.384a.983.983,0,0,0,1.446,0l8.771-8.85v.041a1.067,1.067,0,0,0,.021-1.481l-1.095-1.106a1.041,1.041,0,0,0-1.464,0l-6.934,7.013-2.559-2.588A1.044,1.044,0,0,0,17.242,17.35Z" transform="translate(2.083 8.334)" fill="#00e5b9"/>
</svg>
