<svg id="dashboard" xmlns="http://www.w3.org/2000/svg" width="50" height="50" viewBox="0 0 50 50">
  <path id="Icon_color" data-name="Icon color" d="M35.417,37.5h-12.5a2.085,2.085,0,0,1-2.083-2.083V27.083A2.085,2.085,0,0,1,22.916,25h12.5A2.085,2.085,0,0,1,37.5,27.083v8.334A2.085,2.085,0,0,1,35.417,37.5Zm-20.833,0H2.083A2.085,2.085,0,0,1,0,35.417V18.75a2.085,2.085,0,0,1,2.083-2.083h12.5a2.085,2.085,0,0,1,2.083,2.083V35.417A2.085,2.085,0,0,1,14.584,37.5ZM35.417,20.833h-12.5a2.085,2.085,0,0,1-2.083-2.083V2.083A2.085,2.085,0,0,1,22.916,0h12.5A2.085,2.085,0,0,1,37.5,2.083V18.75A2.085,2.085,0,0,1,35.417,20.833ZM14.584,12.5H2.083A2.085,2.085,0,0,1,0,10.417V2.083A2.085,2.085,0,0,1,2.083,0h12.5a2.085,2.085,0,0,1,2.083,2.083v8.334A2.085,2.085,0,0,1,14.584,12.5Z" transform="translate(6.25 6.25)" fill="#00e5b9"/>
</svg>
