<svg id="star" xmlns="http://www.w3.org/2000/svg" width="50" height="50" viewBox="0 0 50 50">
  <path id="Icon_color" data-name="Icon color" d="M.42,16.363a1.02,1.02,0,0,1-.375-1.124l.167-.52a1.02,1.02,0,0,1,.916-.729l13.3-1.062,5.1-12.26A1.061,1.061,0,0,1,20.588,0h.541a1.02,1.02,0,0,1,.978.666l5.12,12.26,13.3,1.062a1.02,1.02,0,0,1,.916.729l.167.52a1.02,1.02,0,0,1-.312,1.124L31.265,24.98l3.08,12.926a1.062,1.062,0,0,1-.4,1.1l-.6.333a1.041,1.041,0,0,1-1.166,0L20.858,32.474,9.473,39.4a1.041,1.041,0,0,1-1.166,0l-.458-.312a1.062,1.062,0,0,1-.4-1.1l3-13.009Z" transform="translate(4.167 4.167)" fill="#00e5b9"/>
</svg>
