<svg id="crown" xmlns="http://www.w3.org/2000/svg" width="50" height="50" viewBox="0 0 50 50">
  <path id="Icon_color" data-name="Icon color" d="M40.626,33.334H1.043A1.044,1.044,0,0,1,0,32.291V30.208a1.043,1.043,0,0,1,1.043-1.041H40.626a1.042,1.042,0,0,1,1.041,1.041v2.083A1.043,1.043,0,0,1,40.626,33.334Zm0-8.334H1.043A1.043,1.043,0,0,1,0,23.959V3.126A1.044,1.044,0,0,1,1.043,2.083h.791A3.113,3.113,0,0,1,4.043,3l6.375,6.375L19.333.458A1.573,1.573,0,0,1,20.437,0h.791a1.573,1.573,0,0,1,1.1.458l8.917,8.917L37.626,3a3.147,3.147,0,0,1,2.207-.917h.793a1.043,1.043,0,0,1,1.041,1.042V23.959A1.042,1.042,0,0,1,40.626,25ZM20.833,10.417A4.166,4.166,0,1,0,25,14.584,4.171,4.171,0,0,0,20.833,10.417Z" transform="translate(4.167 8.333)" fill="#00e5b9"/>
</svg>
