<svg xmlns="http://www.w3.org/2000/svg" xmlns:xlink="http://www.w3.org/1999/xlink" width="16" height="16" viewBox="0 0 16 16">
  <defs>
    <clipPath id="clip-path">
      <rect id="Прямоугольник_53" data-name="Прямоугольник 53" width="16" height="16" transform="translate(479 586)" fill="none" stroke="#707070" stroke-width="1"/>
    </clipPath>
  </defs>
  <g id="Группа_масок_19" data-name="Группа масок 19" transform="translate(-479 -586)" clip-path="url(#clip-path)">
    <g id="add" transform="translate(484 591)">
      <path id="Icon_color" data-name="Icon color" d="M6,2.787v.429a.214.214,0,0,1-.214.214H3.43V5.789A.214.214,0,0,1,3.216,6H2.787a.214.214,0,0,1-.214-.214V3.43H.214A.214.214,0,0,1,0,3.216V2.787a.214.214,0,0,1,.214-.214H2.573V.214A.214.214,0,0,1,2.787,0h.429A.214.214,0,0,1,3.43.214V2.573H5.789A.214.214,0,0,1,6,2.787Z" fill="#f6f6f6"/>
    </g>
  </g>
</svg>
