<svg xmlns="http://www.w3.org/2000/svg" xmlns:xlink="http://www.w3.org/1999/xlink" width="16" height="16" viewBox="0 0 16 16">
  <defs>
    <clipPath id="clip-path">
      <rect id="Прямоугольник_19" data-name="Прямоугольник 19" width="16" height="16" transform="translate(1401 103)" fill="none" stroke="#707070" stroke-width="1"/>
    </clipPath>
  </defs>
  <g id="Группа_масок_7" data-name="Группа масок 7" transform="translate(-1401 -103)" clip-path="url(#clip-path)">
    <g id="settings" transform="translate(1399.309 101.333)">
      <path id="Icon_color" data-name="Icon color" d="M8.454,16H6.593a.8.8,0,0,1-.79-.673l-.136-.8a1.613,1.613,0,0,0-.849-1.163,4.461,4.461,0,0,1-.592-.344A1.6,1.6,0,0,0,2.8,12.866l-.8.289a.8.8,0,0,1-.968-.345L.1,11.206A.8.8,0,0,1,.3,10.188l.64-.528a1.612,1.612,0,0,0,.576-1.315v-.69A1.609,1.609,0,0,0,.937,6.341L.3,5.812A.8.8,0,0,1,.1,4.794l.928-1.6a.8.8,0,0,1,.952-.345l.8.289a1.6,1.6,0,0,0,1.425-.152A4.391,4.391,0,0,1,4.8,2.637a1.613,1.613,0,0,0,.816-1.162l.136-.8A.8.8,0,0,1,6.545,0H8.407A.8.8,0,0,1,9.2.673l.136.8a1.609,1.609,0,0,0,.849,1.162,4.391,4.391,0,0,1,.592.345,1.6,1.6,0,0,0,1.425.152l.8-.289a.8.8,0,0,1,.968.345l.928,1.6A.8.8,0,0,1,14.7,5.812l-.64.529a1.612,1.612,0,0,0-.576,1.314v.69a1.614,1.614,0,0,0,.576,1.315l.64.528a.8.8,0,0,1,.192,1.018l-.928,1.6a.8.8,0,0,1-.921.345l-.8-.289a1.6,1.6,0,0,0-1.425.153,4.461,4.461,0,0,1-.592.344,1.613,1.613,0,0,0-.849,1.163l-.135.8A.8.8,0,0,1,8.454,16ZM7.5,5.6A2.405,2.405,0,1,0,9.9,8,2.406,2.406,0,0,0,7.5,5.6Z" transform="translate(2.191 1.667)" fill="#f6f6f6"/>
    </g>
  </g>
</svg>
