<svg xmlns="http://www.w3.org/2000/svg" width="16.856" height="14.328" viewBox="0 0 16.856 14.328">
  <path id="Icon_color" data-name="Icon color" d="M16.832,2.077a6.734,6.734,0,0,1-1.557,1.5v.463A10.269,10.269,0,0,1,4.865,14.327,10.3,10.3,0,0,1,.278,13.266a.21.21,0,0,1-.126-.194V12.98a.219.219,0,0,1,.219-.219A7.454,7.454,0,0,0,4.68,11.212,3.678,3.678,0,0,1,1.406,9.056a.219.219,0,0,1,.219-.3A3.365,3.365,0,0,0,2.9,8.635,3.67,3.67,0,0,1,0,5.427a.219.219,0,0,1,.3-.219,3.365,3.365,0,0,0,1.33.286A3.6,3.6,0,0,1,.194,1.336.454.454,0,0,1,.96,1.184,10.4,10.4,0,0,0,8.037,4.451a3.369,3.369,0,0,1-.1-.842,3.669,3.669,0,0,1,6.32-2.475,7.311,7.311,0,0,0,2.011-.7.143.143,0,0,1,.151,0,.143.143,0,0,1,0,.152A3.679,3.679,0,0,1,14.938,2.27a7.218,7.218,0,0,0,1.683-.4.135.135,0,0,1,.151,0,.143.143,0,0,1,.059.21Z" fill="#fff"/>
</svg>
