<svg id="youtube" xmlns="http://www.w3.org/2000/svg" width="20" height="20" viewBox="0 0 20 20">
  <path id="Icon_color" data-name="Icon color" d="M9.526,13c-1.887,0-3.8-.092-5.674-.274L2.592,12.6A2.8,2.8,0,0,1,0,9.833V3.168A2.8,2.8,0,0,1,2.592.4L3.8.274C5.678.092,7.587,0,9.474,0s3.8.092,5.673.274L16.409.4A2.8,2.8,0,0,1,19,3.168V9.833a2.8,2.8,0,0,1-2.59,2.772l-1.209.121C13.322,12.908,11.413,13,9.526,13ZM8.42,3.778a.682.682,0,0,0-.3.071.607.607,0,0,0-.345.538V8.613a.606.606,0,0,0,.331.5.685.685,0,0,0,.628,0L12.091,7h.052a.583.583,0,0,0,0-1.008L8.783,3.883A.675.675,0,0,0,8.42,3.778Z" transform="translate(1 3.001)" fill="#fff"/>
</svg>
